<svg width="517" height="523" viewBox="0 0 517 523" fill="none" xmlns="http://www.w3.org/2000/svg">
<g clip-path="url(#clip0_2937_6510)">
<path d="M272.9 170.399C272.8 170.299 272.8 170.199 272.7 170.199C272.2 169.599 271.7 169.099 271.2 168.599C271.1 168.499 271.1 168.499 271 168.399C270.7 168.199 270.4 167.999 270.2 167.799C269.9 167.599 269.7 167.499 269.4 167.399C269.3 167.399 269.2 167.299 269.2 167.299C268.9 167.199 268.6 167.099 268.4 166.999C268.4 166.999 268.4 166.999 268.3 166.999C268.1 166.899 267.8 166.899 267.6 166.799C267.5 166.799 267.5 166.799 267.4 166.799C267.2 166.799 266.9 166.699 266.7 166.699H266.6C266.1 166.699 265.7 166.899 265.5 167.199C265.1 168.099 265.1 170.999 264.5 174.899C267.7 173.799 270.8 172.599 273.7 171.499C273.3 170.999 273.1 170.699 272.9 170.399Z" fill="white"/>
<path d="M215.4 318.101L223.4 301.301H207.5L215.4 318.101Z" fill="white"/>
<path d="M257.4 373.901C257.4 373.901 313.8 316.401 453.2 301.301H313.2L297.2 340.701L280.3 301.301H231.2L214.7 340.701L195.4 301.301H72.2998C72.2998 301.301 220.7 325.001 257.4 373.901Z" fill="white"/>
<path d="M297.9 314.501L303.2 301.301H293.5L297.9 314.501Z" fill="white"/>
<path d="M255.9 385.699L257.7 386.999L259.5 385.599C259.7 385.499 276.7 372.299 314.6 355.699C349.6 340.399 410.2 319.099 499.7 304.199C505.8 303.199 511.6 302.199 517 301.199H481.8C400.7 315.999 345 335.899 311.8 350.299C279.9 364.199 262.9 375.599 257.6 379.499C199 337.499 98 312.999 43.6 301.199H14.5C16.9 301.699 19.8 302.299 23.3 302.999C69.2 312.699 191 337.999 255.9 385.699Z" fill="white"/>
<path d="M98.5998 414.098C98.5998 413.998 98.5998 413.798 98.4998 413.598C98.4998 413.398 98.3998 413.198 98.3998 412.998L98.2998 412.198C96.9998 412.398 95.3998 412.498 93.6998 412.598C91.9998 412.698 90.0998 412.698 88.1998 412.698C86.3998 412.698 84.3998 412.598 82.2998 412.498C80.1998 412.398 78.5998 412.298 77.3998 412.098L77.2998 412.898C77.2998 413.098 77.2998 413.298 77.1998 413.498C77.1998 413.698 77.0998 413.798 77.0998 413.998C77.0998 415.198 77.4998 415.798 78.2998 415.898C80.3998 416.198 81.9998 416.498 82.7998 416.998C83.6998 417.398 84.0998 418.098 84.0998 419.098C84.0998 419.598 83.8998 420.298 83.5998 421.198L71.2998 456.698L54.9998 413.198C54.6998 412.498 54.4998 412.098 54.1998 411.798C53.9998 411.598 53.5998 411.398 52.9998 411.398C52.7998 411.398 52.5998 411.398 52.2998 411.498C51.9998 411.498 51.6998 411.598 51.3998 411.698L35.4998 456.798L22.2998 420.398C22.1998 420.098 22.0998 419.798 21.9998 419.498C21.8998 419.298 21.8998 418.998 21.8998 418.698C21.8998 417.898 22.2998 417.298 23.1998 416.798C24.0998 416.298 25.5998 415.998 27.6998 415.798C28.5998 415.698 28.9998 415.098 28.9998 413.898C28.9998 413.698 28.9998 413.398 28.8998 413.098C28.8998 412.798 28.7998 412.398 28.6998 412.098C26.5998 412.198 24.2998 412.398 21.6998 412.498C19.0998 412.598 16.6998 412.698 14.3998 412.698C13.4998 412.698 12.3998 412.698 11.0998 412.598C9.89981 412.598 8.5998 412.498 7.2998 412.498C5.9998 412.498 4.6998 412.398 3.3998 412.298C2.0998 412.198 0.999805 412.198 -0.00019531 412.098C-0.100195 412.298 -0.200195 412.598 -0.200195 412.998C-0.200195 413.398 -0.200195 413.698 -0.200195 413.898C-0.200195 415.198 0.199805 415.898 1.0998 415.998C3.6998 416.298 5.2998 416.698 6.1998 417.198C6.9998 417.698 7.5998 418.398 7.9998 419.398L30.0998 477.698C30.3998 478.398 30.5998 478.898 30.8998 479.098C31.0998 479.298 31.4998 479.398 32.0998 479.398C32.3998 479.398 32.5998 479.398 32.7998 479.398C32.9998 479.398 33.1998 479.398 33.5998 479.298L49.5998 433.998L65.9998 477.698C66.2998 478.398 66.5998 478.898 66.8998 479.098C67.0998 479.298 67.4998 479.398 67.9998 479.398C68.2998 479.398 68.5998 479.398 68.6998 479.398C68.7998 479.398 69.0998 479.398 69.3998 479.298L90.5998 419.898C91.0998 418.598 91.7998 417.698 92.7998 417.198C93.7998 416.698 95.2998 416.398 97.3998 416.198C98.0998 416.098 98.5998 415.398 98.5998 414.098Z" fill="white"/>
<path d="M155 461.599C154.3 461.599 153.8 461.799 153.6 462.299C152.8 463.899 152 465.399 151.2 466.699C150.4 467.999 149.5 469.199 148.4 470.099C147.3 471.099 146.1 471.799 144.7 472.399C143.3 472.899 141.6 473.199 139.6 473.199H135.4C131.2 473.199 128.3 472.999 126.5 472.499C124.8 471.999 123.9 471.099 123.9 469.699V447.099H138.1C139.2 447.099 140.1 447.599 140.6 448.499C141.1 449.399 141.6 451.099 142 453.699C142.1 454.599 142.7 455.099 143.9 455.099C144.1 455.099 144.4 455.099 144.9 455.099C145.3 455.099 145.7 454.999 145.9 454.799C145.7 452.699 145.6 450.899 145.5 449.199C145.4 447.599 145.4 446.099 145.4 444.899C145.4 443.499 145.5 441.799 145.6 439.699C145.7 437.699 145.8 435.899 146 434.299C145.8 434.199 145.5 434.199 145 434.099C144.6 434.099 144.2 433.999 144 433.999C143.5 433.999 143 434.099 142.7 434.299C142.4 434.499 142.2 434.799 142.1 435.399C141.8 437.799 141.4 439.399 140.9 440.499C140.4 441.499 139.6 442.099 138.3 442.099H124.1V417.799H137.5C139.3 417.799 140.9 417.999 142.2 418.299C143.5 418.599 144.6 419.199 145.6 419.999C146.6 420.799 147.4 421.799 148.2 422.999C149 424.199 149.8 425.699 150.6 427.499C150.9 428.099 151.5 428.399 152.2 428.399C152.6 428.399 153 428.299 153.4 428.199C153.8 428.099 154.2 427.899 154.5 427.799C154 426.299 153.6 424.899 153.3 423.899C153 422.799 152.8 421.699 152.6 420.599C152.3 419.099 152 417.599 151.9 416.099C151.8 414.699 151.6 413.699 151.4 413.099C151.1 412.499 150.5 412.199 149.8 412.199C149 412.199 147.5 412.299 145.3 412.499C143.1 412.699 140.5 412.799 137.5 412.799H116.9C115.3 412.799 113.4 412.799 111.2 412.699C109 412.599 106.4 412.499 103.5 412.299C103.4 412.599 103.3 412.999 103.3 413.299C103.3 413.599 103.3 413.899 103.3 414.299C103.3 415.299 103.6 415.899 104.3 416.099C105.7 416.399 106.9 416.599 107.8 416.899C108.7 417.099 109.4 417.399 110 417.699C110.6 417.999 111 418.399 111.2 418.799C111.4 419.199 111.5 419.799 111.5 420.499V470.899C111.5 472.199 110.9 473.199 109.8 473.699C108.7 474.199 106.9 474.699 104.3 475.199C103.6 475.299 103.3 475.799 103.3 476.799C103.3 476.999 103.3 477.299 103.3 477.799C103.3 478.199 103.4 478.599 103.5 478.899C105.5 478.799 107.8 478.599 110.3 478.499C112.8 478.399 115 478.299 117 478.299H139.9C140.8 478.299 141.8 478.299 143 478.399C144.2 478.499 145.4 478.499 146.6 478.599C147.8 478.599 148.9 478.699 149.9 478.799C150.9 478.899 151.7 478.899 152.2 478.899C153 478.899 153.5 478.599 153.8 478.099C153.9 477.899 154 477.499 154.2 476.899C154.4 476.299 154.5 475.599 154.7 474.799C154.9 473.999 155 473.199 155.2 472.399C155.4 471.599 155.5 470.799 155.7 470.099C155.9 469.599 156.1 468.899 156.3 467.999C156.5 467.099 156.8 466.299 157.1 465.599C157.2 465.099 157.4 464.699 157.6 464.199C157.8 463.699 157.9 463.199 158.1 462.699C157.6 462.499 157.2 462.299 156.7 462.099C155.7 461.699 155.3 461.599 155 461.599Z" fill="white"/>
<path d="M214.5 461.598C213.7 461.598 213.2 461.898 213 462.398C212.3 464.298 211.5 465.998 210.7 467.398C209.9 468.798 209.1 469.898 208.1 470.798C207.2 471.698 206.1 472.298 204.8 472.698C203.6 473.098 202.1 473.298 200.4 473.298H196.6C192.4 473.298 189.5 473.098 187.6 472.598C185.8 472.098 184.9 471.198 184.9 469.798V420.698C184.9 419.398 185.4 418.398 186.4 417.698C187.4 417.098 189.3 416.498 192.2 416.098C192.9 415.898 193.2 415.298 193.2 414.398C193.2 414.198 193.2 413.898 193.1 413.498C193.1 413.098 193 412.698 192.9 412.398C191.8 412.498 190.6 412.498 189.3 412.598C188 412.698 186.7 412.698 185.4 412.798C184.1 412.798 182.8 412.898 181.6 412.898C180.4 412.898 179.3 412.998 178.4 412.998C176.5 412.998 174.4 412.898 172 412.798C169.6 412.698 167.3 412.598 165.2 412.398C165.1 412.698 165 413.098 165 413.498C165 413.898 165 414.198 165 414.398C165 415.298 165.3 415.898 166 416.098C167.4 416.298 168.5 416.498 169.4 416.798C170.2 416.998 170.9 417.298 171.3 417.698C171.7 417.998 172 418.398 172.1 418.898C172.2 419.298 172.3 419.898 172.3 420.598V470.998C172.3 472.298 171.7 473.298 170.6 473.798C169.5 474.298 167.7 474.798 165.1 475.298C164.4 475.398 164.1 475.898 164.1 476.898C164.1 477.098 164.1 477.398 164.1 477.898C164.1 478.298 164.2 478.698 164.3 478.998C166.3 478.898 168.6 478.698 171.1 478.598C173.6 478.498 175.8 478.398 177.8 478.398H200.7C201.6 478.398 202.6 478.398 203.8 478.498C205 478.598 206.1 478.598 207.3 478.698C208.4 478.698 209.5 478.798 210.5 478.898C211.5 478.998 212.2 478.998 212.8 478.998C213.2 478.998 213.6 478.898 214 478.698C214.4 478.498 214.6 477.998 214.7 477.198C215 474.798 215.4 472.298 215.9 469.798C216.3 467.298 216.8 464.998 217.4 462.798C216.9 462.598 216.5 462.398 216 462.198C215.2 461.698 214.8 461.598 214.5 461.598Z" fill="white"/>
<path d="M271.9 461.598C271.1 461.598 270.6 461.898 270.4 462.398C269.7 464.298 268.9 465.998 268.1 467.398C267.3 468.798 266.5 469.898 265.5 470.798C264.6 471.698 263.5 472.298 262.2 472.698C261 473.098 259.5 473.298 257.8 473.298H254C249.8 473.298 246.9 473.098 245 472.598C243.2 472.098 242.3 471.198 242.3 469.798V420.698C242.3 419.398 242.8 418.398 243.8 417.698C244.8 417.098 246.7 416.498 249.6 416.098C250.3 415.898 250.6 415.298 250.6 414.398C250.6 414.198 250.6 413.898 250.5 413.498C250.5 413.098 250.4 412.698 250.3 412.398C249.2 412.498 248 412.498 246.7 412.598C245.4 412.698 244.1 412.698 242.8 412.798C241.5 412.798 240.2 412.898 239 412.898C237.8 412.898 236.7 412.998 235.8 412.998C233.9 412.998 231.8 412.898 229.4 412.798C227 412.698 224.7 412.598 222.6 412.398C222.5 412.698 222.4 413.098 222.4 413.498C222.4 413.898 222.4 414.198 222.4 414.398C222.4 415.298 222.7 415.898 223.4 416.098C224.8 416.298 225.9 416.498 226.8 416.798C227.6 416.998 228.3 417.298 228.7 417.698C229.1 417.998 229.4 418.398 229.5 418.898C229.6 419.298 229.7 419.898 229.7 420.598V470.998C229.7 472.298 229.1 473.298 228 473.798C226.9 474.298 225.1 474.798 222.5 475.298C221.8 475.398 221.5 475.898 221.5 476.898C221.5 477.098 221.5 477.398 221.5 477.898C221.5 478.298 221.6 478.698 221.7 478.998C223.7 478.898 226 478.698 228.5 478.598C231 478.498 233.2 478.398 235.2 478.398H258.1C259 478.398 260 478.398 261.2 478.498C262.4 478.598 263.5 478.598 264.7 478.698C265.8 478.698 266.9 478.798 267.9 478.898C268.9 478.998 269.6 478.998 270.2 478.998C270.6 478.998 271 478.898 271.4 478.698C271.8 478.498 272 477.998 272.1 477.198C272.4 474.798 272.8 472.298 273.3 469.798C273.7 467.298 274.2 464.998 274.8 462.798C274.3 462.598 273.9 462.398 273.4 462.198C272.6 461.698 272.2 461.598 271.9 461.598Z" fill="white"/>
<path d="M337.7 420.298C337.7 418.998 338.1 417.998 338.9 417.398C339.7 416.798 341.2 416.298 343.4 415.998C344.2 415.898 344.6 415.198 344.6 414.098C344.6 413.898 344.6 413.598 344.5 413.298C344.5 412.998 344.4 412.598 344.3 412.298C342.8 412.498 341.2 412.598 339.7 412.698C338.2 412.798 336.3 412.798 334.2 412.798C332 412.798 330.2 412.798 328.6 412.698C327 412.598 325.3 412.498 323.7 412.298C323.6 412.598 323.5 412.998 323.5 413.298C323.5 413.598 323.5 413.898 323.5 414.098C323.5 415.198 323.9 415.798 324.8 415.998C327.4 416.298 329.1 416.798 330.1 417.398C331.1 417.998 331.6 418.998 331.6 420.498V456.198L298.2 413.898C297.7 413.398 297.2 413.098 296.6 412.898C296 412.698 294.7 412.598 292.8 412.598C291.9 412.598 290.6 412.598 289.1 412.498C287.6 412.498 286.1 412.398 284.6 412.298C283.7 412.198 282.9 412.198 282 412.098C281.1 412.098 280.2 411.998 279.3 411.898L279.2 412.698C279.1 412.898 279.1 413.098 279.1 413.298C279.1 413.498 279.1 413.598 279.1 413.798C279.1 414.898 279.5 415.498 280.3 415.698C282.8 415.998 284.4 416.498 285.1 417.098C285.8 417.698 286.2 418.498 286.2 419.598V470.598C286.2 471.898 285.8 472.798 285 473.398C284.2 473.998 282.6 474.498 280.2 474.898C279.9 474.998 279.6 475.098 279.3 475.398C279.1 475.698 278.9 476.098 278.9 476.798C278.9 476.998 278.9 477.298 278.9 477.598C278.9 477.898 279 478.198 279.1 478.498C280.6 478.398 282.2 478.198 284 478.098C285.8 477.998 287.6 477.898 289.6 477.898C291.5 477.898 293.3 477.998 294.7 478.098C296.1 478.198 297.8 478.298 299.4 478.498C299.5 477.798 299.6 477.298 299.6 476.798C299.6 476.098 299.5 475.598 299.2 475.298C299 475.098 298.7 474.898 298.3 474.798C296.9 474.498 295.8 474.298 294.9 473.998C294.1 473.798 293.4 473.498 293 473.198C292.6 472.898 292.3 472.498 292.2 472.098C292.1 471.698 292 471.098 292 470.398V426.898L331.7 477.198C332.3 477.898 332.9 478.398 333.4 478.698C333.9 478.898 334.4 479.098 334.9 479.098C335.1 479.098 335.5 479.098 336.2 479.098C336.8 479.098 337.3 478.998 337.6 478.898V420.298H337.7Z" fill="white"/>
<path d="M401.3 478.699C402.1 478.699 402.6 478.399 402.9 477.899C403 477.699 403.1 477.299 403.3 476.699C403.5 476.099 403.6 475.399 403.8 474.599C404 473.799 404.1 472.999 404.3 472.199C404.5 471.399 404.6 470.599 404.8 469.899C405 469.399 405.2 468.699 405.4 467.799C405.6 466.899 405.9 466.099 406.2 465.399C406.3 464.899 406.5 464.499 406.7 463.999C406.9 463.499 407 462.999 407.2 462.499C406.7 462.299 406.3 462.099 405.8 461.899C405.3 461.699 404.9 461.599 404.6 461.599C403.9 461.599 403.4 461.799 403.2 462.299C402.4 463.899 401.6 465.399 400.8 466.699C400 467.999 399.1 469.199 398 470.099C396.9 471.099 395.7 471.799 394.3 472.399C392.9 472.899 391.2 473.199 389.2 473.199H385C380.8 473.199 377.9 472.999 376.1 472.499C374.4 471.999 373.5 471.099 373.5 469.699V447.099H387.7C388.8 447.099 389.7 447.599 390.2 448.499C390.7 449.399 391.2 451.099 391.6 453.699C391.7 454.599 392.3 455.099 393.5 455.099C393.7 455.099 394 455.099 394.5 455.099C394.9 455.099 395.3 454.999 395.5 454.799C395.3 452.699 395.2 450.899 395.1 449.199C395 447.599 395 446.099 395 444.899C395 443.499 395.1 441.799 395.2 439.699C395.3 437.699 395.4 435.899 395.6 434.299C395.4 434.199 395.1 434.199 394.6 434.099C394.2 434.099 393.8 433.999 393.6 433.999C393.1 433.999 392.6 434.099 392.3 434.299C392 434.499 391.8 434.799 391.7 435.399C391.4 437.799 391 439.399 390.5 440.499C390 441.499 389.2 442.099 387.9 442.099H373.7V417.799H387.1C388.9 417.799 390.5 417.999 391.8 418.299C393.1 418.599 394.2 419.199 395.2 419.999C396.2 420.799 397 421.799 397.8 422.999C398.6 424.199 399.4 425.699 400.2 427.499C400.5 428.099 401.1 428.399 401.8 428.399C402.2 428.399 402.6 428.299 403 428.199C403.4 428.099 403.8 427.899 404.1 427.799C403.6 426.299 403.2 424.899 402.9 423.899C402.6 422.799 402.4 421.699 402.2 420.599C401.9 419.099 401.6 417.599 401.5 416.099C401.4 414.699 401.2 413.699 401 413.099C400.7 412.499 400.1 412.199 399.4 412.199C398.6 412.199 397.1 412.299 394.9 412.499C392.7 412.699 390.1 412.799 387.1 412.799H366C364.4 412.799 362.5 412.799 360.3 412.699C358.1 412.599 355.5 412.499 352.6 412.299C352.5 412.599 352.4 412.999 352.4 413.299C352.4 413.599 352.4 413.899 352.4 414.299C352.4 415.299 352.7 415.899 353.4 416.099C354.8 416.399 356 416.599 356.9 416.899C357.8 417.099 358.5 417.399 359.1 417.699C359.7 417.999 360.1 418.399 360.3 418.799C360.5 419.199 360.6 419.799 360.6 420.499V470.899C360.6 472.199 360 473.199 358.9 473.699C357.8 474.199 356 474.699 353.4 475.199C352.7 475.299 352.4 475.799 352.4 476.799C352.4 476.999 352.4 477.299 352.4 477.799C352.4 478.199 352.5 478.599 352.6 478.899C354.6 478.799 356.9 478.599 359.4 478.499C361.9 478.399 364.1 478.299 366.1 478.299H389C389.9 478.299 390.9 478.299 392.1 478.399C393.3 478.499 394.5 478.499 395.7 478.599C396.9 478.599 398 478.699 399 478.799C400 478.699 400.7 478.699 401.3 478.699Z" fill="white"/>
<path d="M450.3 443.702C447.7 442.102 444.9 440.702 441.9 439.702C438.9 438.602 436.1 437.502 433.5 436.402C430.9 435.302 428.8 433.902 427.1 432.402C425.4 430.902 424.5 428.902 424.5 426.402C424.5 423.202 425.6 420.802 427.9 419.202C430.1 417.602 432.9 416.802 436.1 416.802C440.2 416.802 443.5 417.602 445.9 419.302C448.3 421.002 450.3 423.702 451.9 427.602C452 428.002 452.3 428.402 452.7 428.802C453.1 429.202 453.8 429.402 454.7 429.402C455.4 429.402 456 429.302 456.6 429.102C456.2 427.102 455.8 424.802 455.5 422.302C455.2 419.802 455 417.502 454.8 415.502C451.2 414.102 447.9 413.102 445.1 412.502C442.2 411.902 439.4 411.602 436.6 411.602C433.2 411.602 430.1 412.102 427.5 413.102C424.8 414.102 422.6 415.502 420.7 417.202C418.8 418.902 417.4 420.902 416.4 423.202C415.4 425.502 414.9 428.002 414.9 430.702C414.9 434.702 415.7 437.902 417.4 440.302C419 442.702 421.1 444.602 423.5 446.102C426 447.602 428.6 448.902 431.5 449.802C434.4 450.802 437 451.802 439.5 452.902C441.9 454.002 444 455.402 445.6 457.002C447.2 458.602 448.1 460.902 448.1 463.802C448.1 465.102 447.9 466.502 447.4 467.702C446.9 469.002 446.2 470.102 445.3 471.002C444.4 471.902 443.2 472.702 441.7 473.302C440.2 473.902 438.4 474.202 436.4 474.202C434 474.202 431.9 473.902 430 473.402C428.2 472.902 426.5 472.002 425.1 470.802C423.7 469.602 422.4 468.102 421.4 466.302C420.3 464.502 419.4 462.302 418.5 459.702C418.2 459.002 417.9 458.402 417.5 458.102C417.1 457.802 416.5 457.602 415.7 457.602C414.8 457.602 414.1 457.702 413.4 458.002C413.9 460.602 414.4 463.302 414.9 466.102C415.3 468.902 415.7 471.702 415.9 474.602C418.2 475.702 421.1 476.802 424.6 477.802C428.1 478.802 432.1 479.302 436.5 479.302C440.5 479.302 444 478.702 446.9 477.602C449.8 476.502 452.2 475.002 454 473.202C455.9 471.402 457.3 469.202 458.1 466.802C459 464.402 459.4 461.902 459.4 459.302C459.4 455.402 458.5 452.202 456.8 449.702C455 447.402 452.8 445.402 450.3 443.702Z" fill="white"/>
<path d="M504.1 443.702C501.5 442.102 498.7 440.702 495.7 439.702C492.7 438.602 489.9 437.502 487.3 436.402C484.7 435.302 482.6 433.902 480.9 432.402C479.2 430.902 478.3 428.902 478.3 426.402C478.3 423.202 479.4 420.802 481.7 419.202C483.9 417.602 486.7 416.802 489.9 416.802C494 416.802 497.3 417.602 499.7 419.302C502.1 421.002 504.1 423.702 505.7 427.602C505.8 428.002 506.1 428.402 506.5 428.802C506.9 429.202 507.6 429.402 508.5 429.402C509.2 429.402 509.8 429.302 510.4 429.102C510 427.102 509.6 424.802 509.3 422.302C509 419.802 508.8 417.502 508.6 415.502C505 414.102 501.7 413.102 498.9 412.502C496 411.902 493.2 411.602 490.4 411.602C487 411.602 483.9 412.102 481.3 413.102C478.6 414.102 476.4 415.502 474.5 417.202C472.6 418.902 471.2 420.902 470.2 423.202C469.2 425.502 468.7 428.002 468.7 430.702C468.7 434.702 469.5 437.902 471.2 440.302C472.8 442.702 474.9 444.602 477.3 446.102C479.8 447.602 482.4 448.902 485.3 449.802C488.2 450.802 490.8 451.802 493.3 452.902C495.7 454.002 497.8 455.402 499.4 457.002C501 458.602 501.9 460.902 501.9 463.802C501.9 465.102 501.7 466.502 501.2 467.702C500.7 469.002 500 470.102 499.1 471.002C498.2 471.902 497 472.702 495.5 473.302C494 473.902 492.2 474.202 490.2 474.202C487.8 474.202 485.7 473.902 483.8 473.402C482 472.902 480.3 472.002 478.9 470.802C477.5 469.602 476.2 468.102 475.2 466.302C474.1 464.502 473.2 462.302 472.3 459.702C472 459.002 471.7 458.402 471.3 458.102C470.9 457.802 470.3 457.602 469.5 457.602C468.6 457.602 467.9 457.702 467.2 458.002C467.7 460.602 468.2 463.302 468.7 466.102C469.1 468.902 469.5 471.702 469.7 474.602C472 475.702 474.9 476.802 478.4 477.802C481.9 478.802 485.9 479.302 490.3 479.302C494.3 479.302 497.8 478.702 500.7 477.602C503.6 476.502 506 475.002 507.8 473.202C509.7 471.402 511.1 469.202 511.9 466.802C512.8 464.402 513.2 461.902 513.2 459.302C513.2 455.402 512.3 452.202 510.6 449.702C508.9 447.402 506.7 445.402 504.1 443.702Z" fill="white"/>
<path d="M57.2999 291.9C56.6999 292.2 55.8999 292.4 54.8999 292.6C54.7999 292.6 54.6999 292.7 54.4999 292.8C54.3999 292.9 54.2999 293.2 54.2999 293.5C54.2999 293.7 54.2999 294 54.3999 294.4C55.4999 294.3 56.7999 294.3 58.1999 294.2C59.5999 294.1 60.7999 294.1 61.8999 294.1C62.8999 294.1 64.0999 294.1 65.2999 294.2C66.4999 294.3 67.6999 294.3 68.8999 294.4C68.9999 294 68.9999 293.7 68.9999 293.5C68.9999 293.2 68.8999 292.9 68.7999 292.8C68.6999 292.7 68.4999 292.6 68.2999 292.5C67.4999 292.4 66.6999 292.2 65.8999 291.9C65.0999 291.6 64.5999 291.2 64.2999 290.6L50.2999 256.1C49.9999 256 49.7999 256 49.5999 256C49.0999 256 48.7999 256.3 48.4999 257L34.5999 290.5C34.2999 291.1 33.8999 291.6 33.2999 291.9C32.6999 292.2 31.7999 292.4 30.5999 292.6C30.2999 292.6 30.0999 292.8 29.9999 292.9C29.8999 293.1 29.8999 293.3 29.8999 293.6C29.8999 293.9 29.8999 294.2 29.9999 294.5C30.8999 294.4 31.6999 294.3 32.4999 294.3C33.2999 294.3 34.0999 294.2 34.8999 294.2C35.9999 294.2 37.1999 294.2 38.2999 294.3C39.4999 294.4 40.5999 294.4 41.5999 294.5C41.6999 294.1 41.6999 293.8 41.6999 293.6C41.6999 293.4 41.6999 293.2 41.5999 293C41.4999 292.8 41.2999 292.7 41.0999 292.7C38.7999 292.4 37.5999 291.8 37.5999 291C37.5999 290.7 37.6999 290.3 37.8999 289.8L39.8999 284.8H43.9999L43.5999 285.2L48.1999 289.8L52.7999 285.2L52.3999 284.8H55.8999L57.8999 290C58.0999 290.3 58.0999 290.6 58.0999 290.9C58.1999 291.2 57.8999 291.6 57.2999 291.9ZM50.0999 282.3L48.1999 280.4L46.2999 282.3H40.6999L47.9999 263.9L54.9999 282.3H50.0999Z" fill="white"/>
<path d="M91.8 291.701C91.2 292.001 90.1 292.301 88.7 292.601C88.3 292.701 88.1 293.001 88.1 293.501C88.1 293.701 88.1 294.001 88.2 294.401C89.4 294.301 90.6 294.301 91.8 294.201C93.1 294.101 94.3 294.101 95.4 294.101H108C108.5 294.101 109.1 294.101 109.8 294.201C110.5 294.201 111.2 294.301 111.9 294.301C112.6 294.301 113.2 294.301 113.8 294.401C114.4 294.401 114.8 294.501 115.1 294.501C115.5 294.501 115.8 294.201 116.1 293.501C116.4 292.801 116.6 292.101 116.8 291.101C117 290.101 117.3 289.201 117.5 288.201C117.8 287.201 118 286.301 118.4 285.601C118.2 285.501 118 285.401 117.8 285.301C117.6 285.201 117.4 285.101 117.2 285.101C116.7 285.101 116.4 285.201 116.3 285.501C115.8 286.401 115.4 287.301 114.9 288.001C114.4 288.801 113.8 289.401 113.2 290.001C112.6 290.601 111.8 291.001 111 291.301C110.2 291.601 109.2 291.801 108.1 291.801H104.9C102.5 291.801 100.8 291.701 99.8 291.401C98.8 291.101 98.2 290.601 98.2 289.801V276.201H107.2C108 276.201 108.5 276.601 108.8 277.301C109.1 278.101 109.4 279.001 109.6 280.001C109.7 280.501 110.1 280.801 110.7 280.801C111 280.801 111.3 280.801 111.6 280.701C111.5 279.501 111.4 278.401 111.4 277.501C111.4 276.601 111.3 275.801 111.3 275.101C111.3 274.301 111.3 273.301 111.4 272.301C111.5 271.201 111.5 270.301 111.6 269.401C111.5 269.401 111.3 269.301 111.1 269.301C110.9 269.301 110.8 269.201 110.6 269.201C110 269.201 109.7 269.501 109.6 270.001C109.4 271.101 109.1 272.001 108.8 272.701C108.5 273.501 107.9 273.801 107.2 273.801H98.2V259.001H106.7C107.9 259.001 108.8 259.101 109.6 259.301C110.4 259.501 111.1 259.901 111.6 260.301C112.2 260.801 112.6 261.301 113.1 262.101C113.5 262.801 114 263.701 114.4 264.701C114.6 265.001 114.9 265.201 115.4 265.201C115.8 265.201 116.1 265.101 116.4 264.901C116 264.201 115.7 263.401 115.5 262.401C115.3 261.401 115.2 260.501 115.1 259.601C115 258.701 114.8 258.001 114.7 257.301C114.5 256.701 114.2 256.301 113.7 256.301C113.3 256.301 112.4 256.401 111.2 256.501C109.9 256.601 108.4 256.701 106.7 256.701H95.3C94.4 256.701 93.4 256.701 92.3 256.601C91.2 256.601 89.8 256.501 88.1 256.401C88.1 256.601 88 256.701 88 256.801C88 256.901 88 257.101 88 257.301C88 257.901 88.2 258.201 88.6 258.301C90.2 258.601 91.3 258.901 91.9 259.201C92.5 259.501 92.7 260.001 92.7 260.801V290.001C92.7 290.801 92.4 291.301 91.8 291.701Z" fill="white"/>
<path d="M157.9 290.1C157.3 290.7 156.5 291.2 155.6 291.5C154.7 291.8 153.6 292 152.4 292C149.7 292 147.5 291.3 146 290C144.5 288.7 143.2 286.6 142.3 283.9C142.1 283.4 141.9 283.1 141.6 282.9C141.3 282.7 141 282.6 140.5 282.6C140.1 282.6 139.8 282.7 139.5 282.8C139.8 284.3 140.1 285.8 140.3 287.3C140.5 288.8 140.7 290.4 140.8 292C142.1 292.8 143.8 293.5 145.7 294C147.6 294.5 149.8 294.8 152.2 294.8C154.5 294.8 156.4 294.5 158 293.9C159.6 293.3 160.9 292.5 162 291.5C163 290.5 163.8 289.3 164.3 287.9C164.8 286.5 165 285.1 165 283.5C165 280.9 164.1 278.7 162.4 276.9C160.6 275.1 157.9 273.5 154.2 272C151.2 270.8 149 269.6 147.5 268.5C146 267.3 145.2 265.9 145.2 264.1C145.2 263.3 145.4 262.5 145.7 261.8C146.1 261.1 146.6 260.5 147.2 260C147.8 259.5 148.5 259.2 149.4 258.9C150.2 258.6 151.1 258.5 152 258.5C154.4 258.5 156.3 259 157.7 260C159.1 261 160.3 262.6 161.3 264.8C161.4 265 161.6 265.2 161.8 265.4C162 265.6 162.4 265.7 162.9 265.7C163.1 265.7 163.4 265.7 163.8 265.6C163.6 264.4 163.4 263.2 163.3 261.9C163.2 260.6 163.1 259.3 163 258.2C160.9 257.4 159.1 256.8 157.4 256.5C155.7 256.2 154 256 152.2 256C150.5 256 148.9 256.3 147.5 256.8C146.1 257.3 144.9 258.1 143.9 259C142.9 259.9 142.2 261 141.6 262.3C141.1 263.6 140.8 264.9 140.8 266.3C140.8 267.9 141.1 269.3 141.6 270.5C142.1 271.7 142.9 272.7 143.8 273.6C144.8 274.5 145.9 275.3 147.3 275.9C148.6 276.6 150.1 277.2 151.8 277.8C154.3 278.7 156.3 279.8 157.7 280.9C159.1 282.1 159.8 283.6 159.8 285.6C159.8 286.5 159.6 287.3 159.3 288.1C159 288.8 158.6 289.5 157.9 290.1Z" fill="white"/>
<path d="M219.8 258.499C219.6 257.799 219.5 257.199 219.3 256.799C219.1 256.399 218.8 256.199 218.5 256.199C218.2 256.199 217.8 256.199 217.3 256.299C216.8 256.299 216.3 256.399 215.7 256.399C215.1 256.399 214.5 256.499 214 256.499C213.4 256.499 212.9 256.599 212.4 256.599H193.1C192.6 256.599 192.1 256.599 191.5 256.499C190.9 256.499 190.4 256.399 189.8 256.399C189.2 256.399 188.7 256.299 188.2 256.299C187.7 256.299 187.3 256.199 187 256.199C186.6 256.199 186.3 256.399 186.2 256.799C186 257.199 185.9 257.699 185.7 258.399C185.5 259.099 185.4 259.999 185.2 261.099C185 262.199 184.7 263.399 184.3 264.799C184.6 264.999 185 265.099 185.4 265.099C185.6 265.099 185.7 265.099 185.9 264.999C186.1 264.899 186.2 264.799 186.3 264.599C186.8 263.599 187.2 262.799 187.6 262.099C188 261.399 188.5 260.799 189.1 260.299C189.7 259.799 190.4 259.499 191.2 259.299C192 259.099 193 258.999 194.1 258.999H200.1V289.799C200.1 290.699 199.7 291.299 198.9 291.599C198.1 291.899 196.9 292.199 195.1 292.499C194.7 292.599 194.5 292.899 194.5 293.399C194.5 293.699 194.5 293.999 194.6 294.399C195.8 294.299 197.2 294.299 198.6 294.199C200 294.099 201.4 294.099 202.7 294.099C204.1 294.099 205.5 294.099 206.8 294.199C208.2 294.299 209.5 294.299 210.7 294.399C210.8 293.999 210.8 293.699 210.8 293.399C210.8 292.799 210.6 292.499 210.2 292.499C208.5 292.299 207.2 291.999 206.5 291.699C205.8 291.299 205.4 290.699 205.4 289.799V258.999H211.4C212.6 258.999 213.5 259.099 214.3 259.299C215.1 259.499 215.8 259.899 216.3 260.299C216.9 260.799 217.3 261.399 217.8 262.099C218.2 262.799 218.6 263.699 219.1 264.599C219.2 264.799 219.3 264.899 219.5 264.999C219.7 265.099 219.9 265.099 220 265.099C220.2 265.099 220.4 265.099 220.6 264.999C220.8 264.899 221 264.799 221.1 264.799C220.7 263.499 220.4 262.299 220.2 261.199C220.1 260.099 219.9 259.199 219.8 258.499Z" fill="white"/>
<path d="M243.8 291.701C243.3 292.001 242.3 292.301 240.8 292.601C240.4 292.701 240.2 292.901 240.2 293.401C240.2 293.701 240.2 294.101 240.3 294.401C241.5 294.301 242.7 294.301 243.9 294.201C245.1 294.101 246.2 294.101 247.3 294.101C248.3 294.101 249.5 294.101 250.8 294.201C252.1 294.301 253.3 294.301 254.3 294.401C254.4 294.001 254.4 293.701 254.4 293.401C254.4 292.901 254.2 292.701 253.8 292.601C252.3 292.301 251.3 292.001 250.8 291.701C250.3 291.401 250 290.901 250 290.101V276.101H268.1V290.101C268.1 290.901 267.8 291.401 267.3 291.701C266.8 292.001 265.8 292.301 264.4 292.601C264 292.701 263.8 292.901 263.8 293.401C263.8 293.701 263.8 294.101 263.9 294.401C265.1 294.301 266.2 294.301 267.5 294.201C268.7 294.101 269.9 294.101 270.9 294.101C271.9 294.101 273.1 294.101 274.4 294.201C275.7 294.301 276.8 294.301 277.8 294.401C277.9 294.001 277.9 293.701 277.9 293.401C277.9 292.901 277.7 292.701 277.3 292.601C275.8 292.301 274.8 292.001 274.3 291.701C273.8 291.401 273.5 290.901 273.5 290.101V260.801C273.5 260.001 273.7 259.501 274.2 259.101C274.7 258.801 275.7 258.501 277.2 258.201C277.6 258.101 277.8 257.801 277.8 257.301C277.8 257.001 277.8 256.701 277.7 256.301C276.5 256.401 275.3 256.401 274.1 256.501C272.9 256.601 271.8 256.601 270.7 256.601C269.7 256.601 268.5 256.601 267.2 256.501C265.9 256.401 264.8 256.401 263.8 256.301C263.7 256.701 263.7 257.001 263.7 257.301C263.7 257.901 263.9 258.201 264.3 258.201C265.8 258.401 266.8 258.701 267.2 259.201C267.7 259.601 267.9 260.101 267.9 260.801V273.701H250V260.801C250 260.001 250.2 259.501 250.7 259.101C251.2 258.801 252.2 258.501 253.7 258.201C254.1 258.101 254.3 257.801 254.3 257.301C254.3 257.001 254.3 256.701 254.2 256.301C253 256.401 251.9 256.401 250.7 256.501C249.5 256.601 248.4 256.601 247.3 256.601C246.3 256.601 245.1 256.601 243.8 256.501C242.5 256.401 241.4 256.401 240.4 256.301C240.3 256.701 240.3 257.001 240.3 257.301C240.3 257.901 240.5 258.201 240.9 258.201C241.7 258.401 242.3 258.501 242.8 258.601C243.3 258.701 243.7 258.901 243.9 259.101C244.2 259.301 244.4 259.501 244.4 259.801C244.5 260.101 244.5 260.401 244.5 260.801V290.001C244.6 290.801 244.3 291.301 243.8 291.701Z" fill="white"/>
<path d="M303.3 291.701C302.7 292.001 301.6 292.301 300.2 292.601C299.8 292.701 299.6 293.001 299.6 293.501C299.6 293.701 299.6 294.001 299.7 294.401C300.9 294.301 302.1 294.301 303.3 294.201C304.6 294.101 305.8 294.101 306.9 294.101H319.6C320.1 294.101 320.7 294.101 321.4 294.201C322.1 294.201 322.8 294.301 323.4 294.301C324.1 294.301 324.7 294.301 325.3 294.401C325.9 294.401 326.3 294.501 326.6 294.501C327 294.501 327.3 294.201 327.6 293.501C327.9 292.801 328.1 292.101 328.3 291.101C328.5 290.201 328.8 289.201 329 288.201C329.3 287.201 329.5 286.301 329.9 285.601C329.7 285.501 329.5 285.401 329.3 285.301C329.1 285.201 328.9 285.101 328.7 285.101C328.2 285.101 327.9 285.201 327.8 285.501C327.3 286.401 326.9 287.301 326.4 288.001C325.9 288.801 325.3 289.401 324.7 290.001C324.1 290.601 323.3 291.001 322.5 291.301C321.7 291.601 320.7 291.801 319.6 291.801H316.4C314 291.801 312.3 291.701 311.3 291.401C310.3 291.101 309.7 290.601 309.7 289.801V276.201H318.7C319.5 276.201 320 276.601 320.3 277.301C320.6 278.001 320.9 279.001 321.1 280.001C321.2 280.501 321.6 280.801 322.2 280.801C322.5 280.801 322.8 280.801 323.1 280.701C323 279.501 322.9 278.401 322.9 277.501C322.9 276.601 322.8 275.801 322.8 275.101C322.8 274.301 322.8 273.301 322.9 272.301C323 271.201 323 270.301 323.1 269.401C323 269.401 322.8 269.301 322.6 269.301C322.4 269.301 322.3 269.201 322.1 269.201C321.5 269.201 321.2 269.501 321.1 270.001C320.9 271.101 320.6 272.001 320.3 272.701C320 273.401 319.4 273.801 318.7 273.801H309.7V259.001H318.2C319.4 259.001 320.3 259.101 321.1 259.301C321.9 259.501 322.6 259.901 323.1 260.301C323.7 260.801 324.1 261.301 324.6 262.101C325 262.801 325.5 263.701 325.9 264.701C326.1 265.001 326.4 265.201 326.9 265.201C327.3 265.201 327.6 265.101 327.9 264.901C327.5 264.201 327.2 263.401 327 262.401C326.8 261.401 326.7 260.501 326.6 259.601C326.5 258.701 326.3 258.001 326.2 257.301C326 256.701 325.7 256.301 325.2 256.301C324.8 256.301 323.9 256.401 322.7 256.501C321.4 256.601 319.9 256.701 318.2 256.701H306.8C305.9 256.701 304.9 256.701 303.8 256.601C302.7 256.601 301.3 256.501 299.6 256.401C299.6 256.601 299.5 256.701 299.5 256.801C299.5 256.901 299.5 257.101 299.5 257.301C299.5 257.901 299.7 258.201 300.1 258.301C301.7 258.601 302.8 258.901 303.4 259.201C304 259.501 304.2 260.001 304.2 260.801V290.001C304.2 290.801 303.9 291.301 303.3 291.701Z" fill="white"/>
<path d="M375.4 258.902C376.6 258.902 377.5 259.002 378.3 259.202C379.1 259.402 379.8 259.802 380.3 260.202C380.9 260.702 381.3 261.302 381.8 262.002C382.2 262.702 382.6 263.602 383.1 264.502C383.2 264.702 383.3 264.802 383.5 264.902C383.7 265.002 383.9 265.002 384 265.002C384.2 265.002 384.4 265.002 384.6 264.902C384.8 264.802 385 264.702 385.1 264.702C384.7 263.402 384.4 262.202 384.2 261.102C384 260.002 383.9 259.102 383.7 258.402C383.5 257.702 383.4 257.102 383.2 256.702C383 256.302 382.7 256.102 382.4 256.102C382.1 256.102 381.7 256.102 381.2 256.202C380.7 256.202 380.2 256.302 379.6 256.302C379 256.302 378.4 256.402 377.9 256.402C377.3 256.402 376.8 256.502 376.3 256.502H357C356.5 256.502 356 256.502 355.4 256.402C354.8 256.402 354.3 256.302 353.7 256.302C353.1 256.302 352.6 256.202 352.1 256.202C351.6 256.202 351.2 256.102 350.9 256.102C350.5 256.102 350.2 256.302 350.1 256.702C349.9 257.102 349.8 257.602 349.6 258.302C349.4 259.002 349.3 259.902 349.1 261.002C348.9 262.102 348.6 263.302 348.2 264.702C348.5 264.902 348.9 265.002 349.3 265.002C349.5 265.002 349.6 265.002 349.8 264.902C350 264.802 350.1 264.702 350.2 264.502C350.7 263.502 351.1 262.702 351.5 262.002C351.9 261.302 352.4 260.702 353 260.202C353.6 259.702 354.3 259.402 355.1 259.202C355.9 259.002 356.9 258.902 358 258.902H363.9V289.702C363.9 290.602 363.5 291.202 362.7 291.502C361.9 291.802 360.7 292.102 358.9 292.402C358.5 292.502 358.3 292.802 358.3 293.302C358.3 293.602 358.3 293.902 358.4 294.302C359.6 294.202 361 294.202 362.4 294.102C363.8 294.002 365.2 294.002 366.5 294.002C367.9 294.002 369.3 294.002 370.6 294.102C372 294.202 373.3 294.202 374.5 294.302C374.6 293.902 374.6 293.602 374.6 293.302C374.6 292.702 374.4 292.402 374 292.402C372.3 292.202 371 291.902 370.3 291.602C369.6 291.202 369.2 290.602 369.2 289.702V258.902H375.4Z" fill="white"/>
<path d="M407.8 291.698C407.3 291.998 406.3 292.298 404.8 292.598C404.4 292.698 404.2 292.998 404.2 293.498C404.2 293.698 404.2 293.998 404.3 294.398C405.4 294.298 406.6 294.298 407.9 294.198C409.2 294.098 410.3 294.098 411.3 294.098C412.4 294.098 413.5 294.098 414.7 294.198C415.9 294.298 417.1 294.298 418.3 294.398C418.4 293.998 418.4 293.698 418.4 293.498C418.4 292.998 418.2 292.698 417.8 292.598C416.3 292.298 415.3 291.998 414.8 291.698C414.3 291.398 414 290.898 414 290.098V260.698C414 259.898 414.3 259.398 414.8 259.098C415.3 258.798 416.3 258.498 417.8 258.298C418.2 258.198 418.4 257.898 418.4 257.298C418.4 257.098 418.4 256.798 418.3 256.398C417.1 256.498 415.9 256.498 414.6 256.598C413.3 256.698 412.2 256.698 411.3 256.698C410.3 256.698 409.2 256.698 407.9 256.598C406.6 256.498 405.4 256.498 404.3 256.398C404.2 256.798 404.2 257.098 404.2 257.298C404.2 257.498 404.2 257.698 404.3 257.898C404.4 258.098 404.5 258.198 404.8 258.198C406.3 258.398 407.3 258.698 407.8 258.998C408.3 259.298 408.6 259.898 408.6 260.598V289.998C408.6 290.798 408.3 291.298 407.8 291.698Z" fill="white"/>
<path d="M465.7 294.501C467.7 294.301 469.6 294.101 471.5 293.801C471.8 292.201 472.2 290.601 472.7 288.901C473.2 287.301 473.6 285.801 474.1 284.501C474 284.401 473.8 284.401 473.6 284.301C473.4 284.201 473.2 284.201 473 284.201C472.3 284.201 471.9 284.501 471.6 285.101C471.1 286.301 470.6 287.301 470.1 288.201C469.6 289.101 468.9 289.901 468.2 290.501C467.4 291.101 466.5 291.601 465.4 291.901C464.3 292.201 462.9 292.401 461.2 292.401C459.1 292.401 457.2 292.001 455.3 291.101C453.5 290.201 451.9 289.001 450.5 287.301C449.1 285.601 448 283.801 447.2 281.501C446.4 279.301 446 276.801 446 274.201C446 271.801 446.3 269.601 447 267.701C447.6 265.801 448.6 264.101 449.8 262.701C451.1 261.301 452.6 260.201 454.4 259.501C456.2 258.701 458.3 258.301 460.7 258.301C463.5 258.301 465.7 258.801 467.2 259.901C468.7 261.001 469.8 262.801 470.5 265.301C470.6 265.601 470.7 265.901 471 265.901C471.3 266.001 471.5 266.001 471.8 266.001C472.1 266.001 472.4 265.901 472.7 265.801C472.3 264.301 472 262.701 471.8 261.201C471.6 259.701 471.4 258.401 471.4 257.401C470.4 257.101 469.4 256.901 468.5 256.701C467.6 256.501 466.6 256.301 465.7 256.201C464.7 256.101 463.7 256.001 462.7 255.901C461.6 255.801 460.5 255.801 459.2 255.801C456 255.801 453.1 256.401 450.7 257.601C448.3 258.801 446.3 260.301 444.7 262.201C443.1 264.101 441.9 266.201 441.1 268.501C440.3 270.801 439.9 273.101 439.9 275.401C439.9 278.101 440.3 280.701 441.1 283.101C441.9 285.501 443.1 287.501 444.7 289.301C446.3 291.101 448.3 292.401 450.7 293.401C453.1 294.401 456 294.901 459.2 294.901C461.5 294.801 463.7 294.701 465.7 294.501Z" fill="white"/>
<path d="M166.5 233.4C164.9 230.2 161.6 228.2 158.1 228.2C157.5 228.2 156.9 227.9 156.5 227.6C156.1 227.2 155.8 226.6 155.8 226V225.7C155.8 224.3 156.9 223.2 158.3 223.2H188.2C189.6 223.2 190.7 224.3 190.7 225.7V225.9C190.7 227.3 189.6 228.4 188.2 228.4H188.1C182.8 228.4 179.4 234 181.7 238.7L188 251.3H240.1L253.3 218.7L271.3 251.3H323.2L328.4 238.7C330.4 234 327.5 228.4 323.1 228.4H323C321.9 228.4 320.9 227.3 320.9 225.9V225.7C320.9 224.3 321.8 223.2 323 223.2H347.7C348.9 223.2 349.8 224.3 349.8 225.7V226C349.8 226.6 349.6 227.2 349.3 227.6C349 228 348.5 228.2 348 228.2C345.1 228.2 342.4 230.2 341 233.4L333.5 251.2H501.8L353.5 101L353.6 100.9C354 100.5 362.3 91 366.9 76.1C371.1 62.3 372.7 41.1 355.9 18.8C346.6 6.3 331.2 0 310.1 0C296.2 0 279.8 2.9 262.8 8.4C262.6 8.5 262.3 8.6 262.1 8.6L258.3 4.7L250.5 12.7C249.5 13.1 248.4 13.5 247.4 13.9C224.7 23.1 203.9 35.7 193.2 46.9C189.9 50.3 186.6 53.9 183.5 57.6L183.3 57.9L177.7 64.7L176.9 65.7L175 68.2C162.9 84 154.5 99.4 149.8 114C149.5 114.9 149.2 115.9 149 116.8L18 251.1H175.7L166.5 233.4ZM310.1 1.5C328.8 1.5 345 6.6 354.7 19.6C386.3 61.9 352.4 99.9 352.4 99.9L350.2 97.7L349.7 97.2C366 70.6 365.1 18.4 317.8 18.4C316.9 18.4 316 18.4 315.1 18.5C302.5 19 289.2 20.5 276.3 23C256.2 26.9 236.8 33.3 221.5 42.6C209.2 50 199.6 59.2 194.4 70.4C193.7 71.9 193 73.5 192.5 75.2C179.7 112.7 232.3 115.6 232.3 115.6C232.3 115.6 228.6 116.3 223.2 116.5C222.8 116.5 222.4 116.5 222 116.5C221.6 116.5 221.2 116.5 220.8 116.5C210.7 116.5 196.4 114.4 188 104C187.6 103.5 187.2 103 186.9 102.5C186.7 102.2 186.5 102 186.4 101.7C186.1 101.2 185.7 100.6 185.4 100.1C183.1 95.9 181.5 90.6 181.2 84C180.9 77.1 181.9 68.8 184.7 58.8C188 55 191.2 51.4 194.4 48.1C204.9 37.2 225.1 24.7 248.1 15.4C253.1 13.4 258.3 11.5 263.5 9.8C279.1 4.7 295.4 1.5 310.1 1.5ZM277.5 24.2C289.7 21.9 302.4 20.4 315.1 19.9C316 19.9 316.9 19.8 317.8 19.8C333.7 19.8 345.5 26 352.1 37.7C362 55.5 357.7 80.9 348.6 96L277.5 24.2ZM176.1 89C175.3 90.3 137.8 153.9 176.2 176C182.2 179.4 188.6 181.7 195.3 183.1C195.8 183.2 196.3 183.3 196.9 183.4C197.5 183.5 198 183.6 198.6 183.7C199.2 183.8 199.7 183.9 200.3 184C200.9 184.1 201.4 184.2 202 184.2C202.4 184.2 202.8 184.3 203.2 184.3C204 184.4 204.8 184.4 205.6 184.5C206.4 184.6 207.2 184.6 208 184.7C209.6 184.8 211.3 184.8 212.9 184.8C214.5 184.8 216.1 184.8 217.6 184.7C219.1 184.6 220.8 184.5 222.3 184.4C223.9 184.3 225.5 184.1 227 183.9C228.6 183.7 230.2 183.5 231.7 183.2C233.3 182.9 234.8 182.7 236.4 182.4C241.1 181.5 245.6 180.4 250.1 179.2C253.6 173.3 255.4 168.8 255.7 166.5C255.7 166.5 238.3 164.8 242.5 153.6C246.8 142.4 266.5 119.5 268.6 114.8C268.8 114.4 268.9 114 269 113.6C269.1 113.3 269.1 113.1 269.2 112.8C269.5 111.1 269.1 109.3 268.2 107.8C268 107.4 267.7 107.1 267.4 106.8C266.1 105.5 264.3 104.7 261.9 104.7C261.6 104.7 261.4 104.7 261.1 104.7C260.9 104.7 260.7 104.7 260.4 104.8C260.2 104.8 260 104.8 259.8 104.8C259.7 104.8 259.6 104.8 259.4 104.8C259.2 104.8 258.9 104.8 258.6 104.9C258.3 104.9 258 105 257.7 105C257.4 105 257.1 105.1 256.7 105.1C256.4 105.1 256 105.1 255.6 105.2C255.2 105.2 254.9 105.3 254.5 105.3C253.9 105.3 253.3 105.4 252.7 105.4C251.6 105.5 250.5 105.5 249.3 105.6C248.8 105.6 248.3 105.6 247.8 105.7C246.3 105.7 244.8 105.8 243.2 105.8C240.8 105.8 238.3 105.7 235.7 105.6C235.1 105.6 234.6 105.5 234 105.5C231.4 105.3 228.9 105 226.4 104.6C225.8 104.5 225.3 104.4 224.7 104.3C224.2 104.2 223.6 104.1 223.1 104C222.6 103.9 222 103.8 221.5 103.6C220.2 103.3 218.9 102.9 217.6 102.5C217.1 102.3 216.6 102.2 216.1 102C215.4 101.7 214.7 101.4 214 101.1C213.1 100.7 212.2 100.2 211.4 99.8C211.2 99.7 211 99.5 210.8 99.4C210.5 99.2 210.1 98.9 209.8 98.7C208.8 98 207.9 97.2 207.1 96.4C203.6 92.6 202.2 87.4 204.3 80.2C204.3 80.2 208.8 91.5 226.1 94.7C228.6 95.2 231.3 95.4 234.3 95.5C235.2 95.5 236.1 95.5 237 95.5C257.4 95.5 262.8 90.2 268.1 89.5C268.3 89.5 268.5 89.5 268.6 89.5C268.7 89.5 268.9 89.5 269.1 89.5C274.8 89.5 280.3 98.1 284.7 98.1C284.9 98.1 285.1 98.1 285.3 98C289.8 97.1 296 95.2 295.7 89.2C294.8 87.4 294.3 85.3 294.3 83.1C294.3 76.2 299.3 70.6 304.2 70.6C309.1 70.6 313.1 76.2 313.1 83.1C313.1 87.5 312.7 91.8 310.2 94C309 95.1 306.8 95.5 305 95.6C305 95.6 304.9 95.6 304.8 95.6C303.6 95.7 299.1 96.2 300.7 100.3C302.6 104.9 310 102.7 312.1 109.8C314.2 116.9 317.4 129.8 332.8 136.4C332.8 136.4 329.6 137.4 325.7 137.4C324.9 137.4 324.1 137.4 323.2 137.2C322.8 137.2 322.3 137.1 321.9 137C321.5 136.9 321.1 136.8 320.6 136.7C320.4 136.6 320.2 136.6 320 136.5C319.6 136.3 319.2 136.2 318.8 136C318.5 135.9 318.2 135.7 317.9 135.5C317.6 135.3 317.3 135.2 317 135C316.6 134.7 316.2 134.4 315.9 134.1C315.5 133.8 315.2 133.4 314.8 133.1C314.4 132.7 314.1 132.3 313.7 132C312.4 130.6 311.2 129.2 310 127.7C309.7 127.3 309.3 126.9 309 126.4C308.3 125.6 307.6 124.8 306.9 124C306.7 123.8 306.5 123.6 306.4 123.4C306 123 305.7 122.7 305.3 122.4C304.9 122.1 304.6 121.7 304.2 121.5C302.3 120 300.4 119.1 298.2 119.1C297.8 119.1 297.3 119.1 296.9 119.2C289.3 120.6 278 132.5 274.3 137.5C270.5 142.5 267.2 148.4 271.6 150.1C276 151.8 284 156.5 284.5 167C293.8 162.8 299.5 159.5 299.5 159.5C297.3 162.2 291.9 166.1 284.5 170.2C283.7 180.9 276.3 195.1 249.6 208.5C249.6 208.5 273.6 184.2 274.4 176.3C274.4 176 274.4 175.7 274.4 175.4C270.9 177.1 267.1 178.7 263.1 180.3C262.4 182.5 261.4 184.8 260.1 187.1C259.9 187.4 259.8 187.6 259.6 187.9C259.6 188 259.5 188 259.5 188.1C259.4 188.2 259.3 188.3 259.3 188.4C258.9 189 258.4 189.6 257.8 190.3C257.5 190.6 257.2 191 256.9 191.3C256.4 191.9 255.9 192.5 255.3 193.1C255 193.5 254.7 193.8 254.3 194.2C254 194.6 253.6 194.9 253.3 195.3C252 196.7 250.6 198.2 249.1 199.7C248.8 200 248.4 200.4 248.1 200.8C248 200.9 247.9 201 247.8 201.1C247.6 201.3 247.4 201.5 247.1 201.8C246.8 202.1 246.5 202.5 246.1 202.8C244.7 204.2 243.3 205.7 241.9 207.2C241.8 207.3 241.7 207.5 241.5 207.6C241.2 208 240.8 208.4 240.4 208.7C240.2 208.9 240 209.2 239.7 209.4C239.3 209.8 238.9 210.3 238.5 210.7L238.4 210.8C238 211.2 237.7 211.6 237.3 212C236.4 213 235.5 214 234.7 215C234.5 215.2 234.3 215.5 234.1 215.7C234 215.8 233.9 215.9 233.9 216C233.6 216.4 233.3 216.7 233 217.1C232.8 217.3 232.6 217.6 232.5 217.8C232.3 218 232.1 218.3 232 218.5C230.2 220.9 228.6 223.3 227.5 225.5C227.5 225.6 227.4 225.6 227.3 225.6C227.2 225.6 227.1 225.5 227.1 225.4C227.1 225.4 227.1 225.4 227.1 225.3C227.1 225.1 227.2 224.8 227.3 224.6C227.3 224.4 227.4 224.3 227.4 224.1C227.5 223.8 227.6 223.4 227.7 223C227.8 222.7 227.9 222.4 228 222C228.4 220.5 228.9 218.8 229.5 216.9C229.6 216.5 229.8 216.1 229.9 215.6C231 212.3 232.3 208.7 233.9 205.1C234.1 204.6 234.3 204.1 234.6 203.7C235.3 202.2 236.1 200.7 236.9 199.3C237.3 198.6 237.7 197.8 238.2 197.1C238.3 196.9 238.4 196.8 238.5 196.6C238.7 196.2 239 195.8 239.2 195.5C239.5 195.1 239.8 194.7 240.1 194.2C240.4 193.8 240.7 193.4 241 193C242.7 190.7 244.3 188.6 245.7 186.5C231.6 190.8 216.4 193.8 202.4 193.8C184.4 193.8 168.2 188.8 158.6 175.3C145 156.1 144.8 135 151.2 114.8C156.4 98.6 165.9 82.9 176.2 69.4V89H176.1ZM226.7 227.1C226.7 227 226.7 226.8 226.8 226.6H226.9C226.8 226.8 226.8 227 226.7 227.1Z" fill="white"/>
<path d="M35.4998 502.698C35.3998 502.198 35.2998 501.698 35.2998 501.198C35.2998 500.698 35.1998 500.398 35.0998 500.198C34.9998 499.998 34.7998 499.898 34.5998 499.898C34.2998 499.898 33.8998 499.898 33.0998 499.998C32.3998 500.098 31.4998 500.098 30.3998 500.098H23.3998C22.8998 500.098 22.1998 500.098 21.4998 500.098C20.7998 500.098 19.8998 499.998 18.8998 499.998C18.8998 500.098 18.7998 500.198 18.7998 500.298C18.7998 500.398 18.7998 500.498 18.7998 500.598C18.7998 500.898 18.8998 501.098 19.0998 501.198C19.5998 501.298 19.9998 501.398 20.2998 501.498C20.5998 501.598 20.8998 501.698 21.0998 501.798C21.2998 501.898 21.3998 501.998 21.4998 502.198C21.5998 502.298 21.5998 502.498 21.5998 502.698V519.798C21.5998 520.298 21.3998 520.598 20.9998 520.698C20.5998 520.898 19.9998 520.998 19.1998 521.198C18.9998 521.198 18.8998 521.398 18.8998 521.698C18.8998 521.798 18.8998 521.898 18.8998 521.998C18.8998 522.098 18.8998 522.298 18.9998 522.398C19.2998 522.398 19.6998 522.398 20.0998 522.298C20.4998 522.298 20.8998 522.298 21.2998 522.198C21.6998 522.198 22.0998 522.198 22.4998 522.098C22.8998 521.998 23.1998 522.098 23.4998 522.098C24.1998 522.098 24.7998 522.098 25.4998 522.098C26.1998 522.098 26.7998 522.098 27.3998 522.198C27.6998 522.198 27.9998 522.198 28.3998 522.298C28.6998 522.298 28.9998 522.298 29.3998 522.298C29.3998 522.198 29.3998 522.098 29.4998 521.898C29.4998 521.698 29.4998 521.598 29.4998 521.598C29.4998 521.198 29.3998 520.998 29.0998 520.998C28.6998 520.898 28.2998 520.898 27.8998 520.798C27.4998 520.698 27.1998 520.698 26.8998 520.598C26.5998 520.498 26.3998 520.398 26.2998 520.198C26.0998 520.098 26.0998 519.898 26.0998 519.598V511.998H30.7998C31.1998 511.998 31.4998 512.198 31.6998 512.598C31.8998 512.998 31.9998 513.498 32.0998 514.298C32.1998 514.598 32.3998 514.798 32.7998 514.798C32.8998 514.798 32.9998 514.798 33.0998 514.798C33.1998 514.798 33.2998 514.798 33.3998 514.698C33.2998 513.998 33.2998 513.398 33.2998 512.798C33.2998 512.198 33.2998 511.798 33.2998 511.398C33.2998 510.898 33.2998 510.298 33.3998 509.598C33.3998 508.898 33.4998 508.298 33.4998 507.798C33.3998 507.798 33.2998 507.798 33.1998 507.698C33.0998 507.698 32.8998 507.698 32.8998 507.698C32.4998 507.698 32.2998 507.798 32.2998 508.098C32.1998 508.898 31.9998 509.398 31.8998 509.798C31.6998 510.198 31.4998 510.398 31.0998 510.398H26.3998V501.798H30.8998C31.4998 501.798 32.0998 501.898 32.4998 501.998C32.8998 502.098 33.2998 502.298 33.6998 502.598C34.0998 502.898 34.2998 503.198 34.5998 503.598C34.8998 503.998 35.0998 504.498 35.3998 505.098C35.4998 505.298 35.6998 505.398 35.8998 505.398C35.9998 505.398 36.1998 505.398 36.2998 505.298C36.3998 505.298 36.5998 505.198 36.6998 505.198C36.4998 504.698 36.3998 504.198 36.2998 503.898C35.6998 503.398 35.5998 502.998 35.4998 502.698Z" fill="white"/>
<path d="M53.4 502.001C53.4 501.901 53.5 501.701 53.7 501.601C53.8 501.501 54.1 501.401 54.3 501.301C54.6 501.201 55 501.101 55.4 501.101C55.6 501.001 55.7 500.801 55.7 500.501C55.7 500.401 55.7 500.301 55.7 500.201C55.7 500.101 55.7 499.901 55.6 499.801C54.9 499.801 54.1 499.901 53.3 499.901C52.5 499.901 51.7 500.001 51.1 500.001C50.4 500.001 49.7 500.001 48.9 499.901C48.1 499.901 47.3 499.801 46.6 499.801C46.6 499.901 46.5 500.001 46.5 500.201C46.5 500.401 46.5 500.401 46.5 500.501C46.5 500.801 46.6 501.001 46.8 501.101C47.3 501.201 47.7 501.201 47.9 501.301C48.2 501.401 48.4 501.501 48.5 501.601C48.6 501.701 48.7 501.801 48.8 502.001C48.8 502.101 48.9 502.301 48.9 502.601V519.701C48.9 519.901 48.9 520.101 48.8 520.301C48.8 520.401 48.7 520.601 48.5 520.701C48.4 520.801 48.2 520.901 47.9 521.001C47.6 521.101 47.2 521.201 46.8 521.201C46.6 521.201 46.5 521.401 46.5 521.801C46.5 521.901 46.5 522.001 46.5 522.101C46.5 522.201 46.5 522.401 46.6 522.401C47.3 522.401 48.1 522.301 48.9 522.301C49.7 522.301 50.5 522.201 51.1 522.201C51.7 522.201 52.5 522.201 53.3 522.301C54.1 522.301 54.9 522.401 55.6 522.401C55.6 522.301 55.6 522.201 55.7 522.101C55.7 522.001 55.7 521.901 55.7 521.801C55.7 521.501 55.6 521.301 55.4 521.201C54.9 521.101 54.5 521.101 54.3 521.001C54 520.901 53.8 520.801 53.7 520.701C53.6 520.601 53.5 520.501 53.4 520.301C53.4 520.201 53.3 520.001 53.3 519.701V502.601C53.3 502.401 53.3 502.201 53.4 502.001Z" fill="white"/>
<path d="M86.9996 502.401C86.8996 501.901 86.7996 501.401 86.7996 501.001C86.7996 500.601 86.6996 500.301 86.5996 500.101C86.4996 499.901 86.2996 499.801 86.0996 499.801C85.7996 499.801 85.2996 499.801 84.5996 499.901C83.8996 500.001 82.9996 500.001 81.9996 500.001H71.3996C70.3996 500.001 69.4996 500.001 68.6996 499.901C67.9996 499.801 67.4996 499.801 67.1996 499.801C66.8996 499.801 66.6996 499.901 66.6996 500.101C66.5996 500.301 66.5996 500.601 66.4996 501.001C66.4996 501.401 66.3996 501.901 66.2996 502.401C66.1996 502.801 66.0996 503.201 65.9996 503.601C65.8996 504.001 65.6996 504.501 65.5996 505.001C65.6996 505.001 65.7996 505.101 65.9996 505.201C66.1996 505.301 66.2996 505.301 66.4996 505.301C66.6996 505.301 66.8996 505.201 66.9996 505.001C67.2996 504.401 67.4996 503.901 67.7996 503.501C68.0996 503.101 68.3996 502.701 68.6996 502.501C68.9996 502.201 69.3996 502.001 69.8996 501.901C70.2996 501.801 70.8996 501.701 71.4996 501.701H74.4996V519.601C74.4996 520.101 74.3996 520.401 74.1996 520.601C73.9996 520.801 73.4996 520.901 72.5996 521.101C72.2996 521.101 72.1996 521.201 72.0996 521.301C71.9996 521.401 71.9996 521.501 71.9996 521.701C71.9996 521.801 71.9996 521.901 71.9996 522.001C71.9996 522.101 71.9996 522.301 72.0996 522.301C72.7996 522.301 73.5996 522.201 74.3996 522.201C75.1996 522.201 75.8996 522.101 76.5996 522.101C77.1996 522.101 77.9996 522.101 78.7996 522.201C79.5996 522.201 80.3996 522.301 81.0996 522.301C81.0996 522.201 81.0996 522.101 81.1996 522.001C81.1996 521.901 81.1996 521.801 81.1996 521.701C81.1996 521.401 80.9996 521.201 80.6996 521.101C80.1996 521.001 79.8996 521.001 79.5996 520.901C79.2996 520.801 79.1996 520.701 78.9996 520.601C78.8996 520.501 78.7996 520.401 78.6996 520.201C78.6996 520.101 78.5996 519.901 78.5996 519.601V501.701H81.5996C82.1996 501.701 82.6996 501.801 83.1996 501.901C83.5996 502.001 83.9996 502.201 84.3996 502.501C84.6996 502.801 84.9996 503.101 85.2996 503.501C85.5996 503.901 85.7996 504.401 86.0996 505.001C86.1996 505.201 86.3996 505.301 86.5996 505.301C86.6996 505.301 86.8996 505.301 87.0996 505.201C87.2996 505.101 87.3996 505.101 87.4996 505.001C87.2996 504.501 87.1996 504.001 87.0996 503.601C86.9996 503.201 87.0996 502.801 86.9996 502.401Z" fill="white"/>
<path d="M119.8 499.901C119.3 500.001 118.8 500.001 118.2 500.001C117.7 500.001 117.1 500.001 116.3 500.001C115.5 500.001 114.9 500.001 114.4 500.001C113.9 500.001 113.3 499.901 112.7 499.901C112.7 500.001 112.6 500.101 112.6 500.201C112.6 500.301 112.6 500.401 112.6 500.501C112.6 500.901 112.7 501.101 113 501.101C113.9 501.201 114.5 501.401 114.8 501.601C115.1 501.801 115.3 502.201 115.3 502.701V514.801L104 500.501C103.8 500.301 103.7 500.201 103.5 500.201C103.3 500.201 102.9 500.101 102.2 500.101C101.9 500.101 101.5 500.101 101 500.101C100.5 500.101 99.9997 500.101 99.4997 500.001C99.1997 500.001 98.8997 500.001 98.5997 499.901C98.2997 499.901 97.9997 499.901 97.6997 499.801V500.101C97.6997 500.201 97.6997 500.201 97.6997 500.301C97.6997 500.401 97.6997 500.401 97.6997 500.501C97.6997 500.901 97.7997 501.101 98.0997 501.101C98.8997 501.201 99.4997 501.401 99.6997 501.601C99.8997 501.801 100.1 502.101 100.1 502.401V519.701C100.1 520.101 99.9997 520.501 99.6997 520.701C99.3997 520.901 98.8997 521.101 98.0997 521.201C97.9997 521.201 97.8997 521.301 97.7997 521.401C97.6997 521.501 97.6997 521.701 97.6997 521.901C97.6997 522.001 97.6997 522.101 97.6997 522.201C97.6997 522.301 97.6997 522.401 97.7997 522.501C98.2997 522.501 98.8997 522.401 99.4997 522.401C100.1 522.401 100.7 522.301 101.4 522.301C102.1 522.301 102.6 522.301 103.1 522.401C103.6 522.401 104.1 522.501 104.7 522.501C104.7 522.301 104.8 522.101 104.8 521.901C104.8 521.601 104.8 521.501 104.7 521.401C104.6 521.301 104.5 521.301 104.4 521.201C103.9 521.101 103.5 521.001 103.3 520.901C103 520.801 102.8 520.701 102.7 520.601C102.6 520.501 102.5 520.401 102.4 520.201C102.4 520.101 102.3 519.901 102.3 519.601V504.901L115.7 521.901C115.9 522.101 116.1 522.301 116.3 522.401C116.5 522.501 116.7 522.501 116.8 522.501C116.9 522.501 117 522.501 117.2 522.501C117.4 522.501 117.6 522.501 117.7 522.401V502.501C117.7 502.001 117.8 501.701 118.1 501.501C118.4 501.301 118.9 501.101 119.6 501.001C119.9 501.001 120 500.701 120 500.401C120 500.301 120 500.201 120 500.101C119.8 500.101 119.8 500.001 119.8 499.901Z" fill="white"/>
<path d="M148.2 516.599C147.9 516.599 147.8 516.699 147.7 516.799C147.4 517.299 147.2 517.799 146.9 518.299C146.6 518.699 146.3 519.099 145.9 519.499C145.5 519.799 145.1 520.099 144.7 520.299C144.2 520.499 143.7 520.599 143 520.599H141.6C140.2 520.599 139.2 520.499 138.6 520.399C138 520.199 137.7 519.899 137.7 519.399V511.799H142.5C142.9 511.799 143.2 511.999 143.3 512.299C143.5 512.599 143.6 513.199 143.8 514.099C143.8 514.399 144 514.599 144.4 514.599C144.5 514.599 144.6 514.599 144.7 514.599C144.8 514.599 145 514.599 145 514.499C144.9 513.799 144.9 513.199 144.9 512.599C144.9 511.999 144.9 511.599 144.9 511.199C144.9 510.699 144.9 510.099 145 509.399C145 508.699 145.1 508.099 145.1 507.599C145 507.599 144.9 507.599 144.8 507.499C144.7 507.499 144.5 507.499 144.5 507.499C144.3 507.499 144.2 507.499 144.1 507.599C144 507.699 143.9 507.799 143.9 507.999C143.8 508.799 143.6 509.399 143.5 509.699C143.3 510.099 143 510.199 142.6 510.199H137.8V501.999H142.3C142.9 501.999 143.4 502.099 143.9 502.199C144.3 502.299 144.7 502.499 145.1 502.799C145.5 503.099 145.7 503.399 146 503.799C146.3 504.199 146.5 504.699 146.8 505.299C146.9 505.499 147.1 505.599 147.3 505.599C147.4 505.599 147.6 505.599 147.7 505.499C147.8 505.499 148 505.399 148.1 505.399C147.9 504.899 147.8 504.399 147.7 504.099C147.6 503.699 147.5 503.399 147.5 502.999C147.4 502.499 147.3 501.999 147.3 501.499C147.3 500.999 147.2 500.699 147.1 500.499C147 500.299 146.8 500.199 146.6 500.199C146.3 500.199 145.8 500.199 145.1 500.299C144.4 500.399 143.5 500.399 142.5 500.399H135.5C135 500.399 134.3 500.399 133.6 500.399C132.9 500.399 132 500.299 131 500.299C131 500.399 130.9 500.499 130.9 500.599C130.9 500.699 130.9 500.799 130.9 500.899C130.9 501.199 131 501.399 131.2 501.499C131.7 501.599 132.1 501.699 132.4 501.799C132.7 501.899 133 501.999 133.2 502.099C133.4 502.199 133.5 502.299 133.6 502.499C133.7 502.599 133.7 502.799 133.7 503.099V520.199C133.7 520.699 133.5 520.999 133.1 521.199C132.7 521.399 132.1 521.599 131.2 521.699C131 521.699 130.9 521.899 130.9 522.199C130.9 522.299 130.9 522.399 130.9 522.499C130.9 522.599 130.9 522.799 131 522.899C131.7 522.899 132.4 522.799 133.3 522.799C134.2 522.799 134.9 522.699 135.6 522.699H143.3C143.6 522.699 143.9 522.699 144.4 522.699C144.8 522.699 145.2 522.699 145.6 522.799C146 522.799 146.4 522.799 146.7 522.899C147 522.899 147.3 522.899 147.5 522.899C147.8 522.899 148 522.799 148 522.599C148 522.499 148.1 522.399 148.1 522.199C148.2 521.999 148.2 521.799 148.3 521.499C148.4 521.199 148.4 520.999 148.5 520.699C148.6 520.399 148.6 520.199 148.7 519.899C148.8 519.699 148.8 519.499 148.9 519.199C149 518.899 149.1 518.599 149.2 518.399C149.2 518.199 149.3 518.099 149.4 517.899C149.5 517.699 149.5 517.599 149.6 517.399C149.4 517.299 149.3 517.299 149.1 517.199C148.5 516.599 148.4 516.599 148.2 516.599Z" fill="white"/>
<path d="M172 510.501C171.1 510.001 170.2 509.501 169.2 509.101C168.2 508.701 167.2 508.401 166.4 508.001C165.5 507.601 164.8 507.201 164.2 506.701C163.6 506.201 163.3 505.501 163.3 504.701C163.3 503.601 163.7 502.801 164.4 502.301C165.2 501.801 166.1 501.501 167.2 501.501C168.6 501.501 169.7 501.801 170.5 502.401C171.3 503.001 172 503.901 172.5 505.201C172.5 505.301 172.6 505.501 172.8 505.601C173 505.701 173.2 505.801 173.5 505.801C173.7 505.801 173.9 505.801 174.1 505.701C174 505.001 173.8 504.301 173.7 503.401C173.6 502.501 173.5 501.801 173.5 501.101C172.3 500.601 171.2 500.301 170.2 500.101C169.2 499.901 168.3 499.801 167.3 499.801C166.1 499.801 165.1 500.001 164.2 500.301C163.3 500.601 162.5 501.101 161.9 501.701C161.3 502.301 160.8 503.001 160.5 503.701C160.2 504.501 160 505.301 160 506.201C160 507.601 160.3 508.601 160.8 509.501C161.4 510.301 162 511.001 162.9 511.501C163.7 512.001 164.6 512.401 165.6 512.801C166.6 513.101 167.5 513.501 168.3 513.901C169.1 514.301 169.8 514.701 170.4 515.301C171 515.901 171.2 516.601 171.2 517.601C171.2 518.101 171.1 518.501 171 518.901C170.8 519.301 170.6 519.701 170.3 520.001C170 520.301 169.6 520.601 169.1 520.801C168.6 521.001 168 521.101 167.3 521.101C166.5 521.101 165.8 521.001 165.1 520.801C164.5 520.601 163.9 520.301 163.4 519.901C162.9 519.501 162.5 519.001 162.1 518.401C161.7 517.801 161.4 517.001 161.1 516.201C161 515.901 160.9 515.801 160.8 515.701C160.7 515.601 160.5 515.501 160.2 515.501C159.9 515.501 159.6 515.501 159.4 515.601C159.6 516.501 159.7 517.401 159.9 518.301C160 519.201 160.2 520.201 160.2 521.201C161 521.601 162 521.901 163.1 522.301C164.3 522.601 165.6 522.801 167.1 522.801C168.5 522.801 169.6 522.601 170.6 522.201C171.6 521.801 172.4 521.301 173 520.701C173.6 520.101 174.1 519.401 174.4 518.501C174.7 517.701 174.8 516.801 174.8 516.001C174.8 514.701 174.5 513.601 173.9 512.801C173.3 512.001 172.8 511.101 172 510.501Z" fill="white"/>
<path d="M198.4 510.501C197.5 510.001 196.6 509.501 195.6 509.101C194.6 508.701 193.6 508.401 192.8 508.001C191.9 507.601 191.2 507.201 190.6 506.701C190 506.201 189.7 505.501 189.7 504.701C189.7 503.601 190.1 502.801 190.8 502.301C191.6 501.801 192.5 501.501 193.6 501.501C195 501.501 196.1 501.801 196.9 502.401C197.7 503.001 198.4 503.901 198.9 505.201C198.9 505.301 199 505.501 199.2 505.601C199.4 505.701 199.6 505.801 199.9 505.801C200.1 505.801 200.3 505.801 200.5 505.701C200.4 505.001 200.2 504.301 200.1 503.401C200 502.501 199.9 501.801 199.9 501.101C198.7 500.601 197.6 500.301 196.6 500.101C195.6 499.901 194.7 499.801 193.7 499.801C192.5 499.801 191.5 500.001 190.6 500.301C189.7 500.601 188.9 501.101 188.3 501.701C187.7 502.301 187.2 503.001 186.9 503.701C186.6 504.501 186.4 505.301 186.4 506.201C186.4 507.601 186.7 508.601 187.2 509.501C187.8 510.301 188.4 511.001 189.3 511.501C190.1 512.001 191 512.401 192 512.801C193 513.101 193.9 513.501 194.7 513.901C195.5 514.301 196.2 514.701 196.8 515.301C197.4 515.901 197.6 516.601 197.6 517.601C197.6 518.101 197.5 518.501 197.4 518.901C197.2 519.301 197 519.701 196.7 520.001C196.4 520.301 196 520.601 195.5 520.801C195 521.001 194.4 521.101 193.7 521.101C192.9 521.101 192.2 521.001 191.5 520.801C190.9 520.601 190.3 520.301 189.8 519.901C189.3 519.501 188.9 519.001 188.5 518.401C188.1 517.801 187.8 517.001 187.5 516.201C187.4 515.901 187.3 515.801 187.2 515.701C187.1 515.601 186.9 515.501 186.6 515.501C186.3 515.501 186 515.501 185.8 515.601C186 516.501 186.1 517.401 186.3 518.301C186.4 519.201 186.6 520.201 186.6 521.201C187.4 521.601 188.4 521.901 189.5 522.301C190.7 522.601 192 522.801 193.5 522.801C194.9 522.801 196 522.601 197 522.201C198 521.801 198.8 521.301 199.4 520.701C200 520.101 200.5 519.401 200.8 518.501C201.1 517.701 201.2 516.801 201.2 516.001C201.2 514.701 200.9 513.601 200.3 512.801C199.7 512.001 199.3 511.101 198.4 510.501Z" fill="white"/>
<path d="M251.3 521.302C251 521.302 250.8 521.202 250.6 521.202C250.4 521.202 250.2 521.102 250.1 521.102C249.8 521.002 249.6 520.902 249.2 520.702C248.9 520.502 248.5 520.302 248 519.902C247.5 519.602 247 519.102 246.3 518.602C245.7 518.102 244.9 517.402 244.1 516.602C244.8 515.602 245.4 514.602 246 513.502C246.6 512.402 247.1 511.402 247.6 510.302C247.8 510.002 247.9 509.702 248 509.502C248.1 509.302 248.3 509.202 248.4 509.002C248.6 508.902 248.7 508.802 248.9 508.802C249.1 508.802 249.3 508.702 249.6 508.602C249.9 508.602 250 508.402 250 508.102C250 508.102 250 508.002 250 507.802C250 507.702 250 507.502 249.9 507.402C249.5 507.402 249 507.502 248.6 507.502C248.1 507.502 247.6 507.502 247.2 507.502C246.7 507.502 246.1 507.502 245.5 507.502C244.9 507.502 244.4 507.502 243.9 507.402C243.8 507.602 243.8 507.802 243.8 508.002C243.8 508.202 243.8 508.302 243.9 508.402C244 508.502 244.1 508.502 244.3 508.602C244.8 508.702 245.2 508.902 245.4 509.002C245.6 509.102 245.7 509.302 245.7 509.502C245.7 509.802 245.6 510.102 245.5 510.602C245.4 511.002 245.2 511.502 245 512.102C244.8 512.602 244.5 513.202 244.1 513.802C243.8 514.402 243.4 515.002 243 515.502C242.2 514.802 241.4 513.902 240.4 513.002C239.4 512.102 238.4 511.002 237.2 509.802C238.2 509.202 239 508.402 239.7 507.502C240.3 506.602 240.6 505.702 240.6 504.702C240.6 503.502 240.2 502.602 239.3 501.802C238.4 501.002 237.1 500.602 235.4 500.602C234.6 500.602 233.8 500.702 233.1 501.002C232.4 501.202 231.8 501.602 231.3 502.002C230.8 502.402 230.4 502.902 230.1 503.502C229.8 504.102 229.7 504.702 229.7 505.302C229.7 505.702 229.8 506.102 229.9 506.502C230 506.902 230.2 507.302 230.4 507.802C230.6 508.302 231 508.702 231.4 509.202C231.8 509.702 232.3 510.302 232.9 510.902C232.3 511.202 231.6 511.602 231.1 512.102C230.5 512.502 230 513.002 229.5 513.502C229 514.002 228.7 514.602 228.4 515.202C228.1 515.802 228 516.502 228 517.302C228 518.202 228.2 519.002 228.5 519.702C228.8 520.402 229.3 520.902 229.9 521.402C230.5 521.802 231.2 522.202 232 522.402C232.8 522.602 233.7 522.702 234.7 522.702C236.3 522.702 237.6 522.402 238.8 521.802C239.9 521.202 241 520.502 242 519.502C243 520.502 243.9 521.202 244.5 521.702C245.1 522.202 245.7 522.402 246.2 522.402C246.5 522.402 246.9 522.402 247.4 522.402C248 522.402 248.5 522.402 249.1 522.402C249.7 522.402 250.2 522.402 250.7 522.402C251.2 522.402 251.5 522.402 251.7 522.502C251.8 522.302 251.8 522.102 251.8 521.902C251.8 521.502 251.6 521.302 251.3 521.302ZM233.8 502.802C234.1 502.402 234.6 502.202 235.2 502.202C235.9 502.202 236.4 502.502 236.9 503.002C237.3 503.502 237.5 504.202 237.5 505.202C237.5 505.702 237.4 506.302 237.1 507.002C236.9 507.602 236.5 508.302 236 508.902C235.1 508.002 234.4 507.302 233.9 506.502C233.4 505.802 233.2 505.102 233.2 504.402C233.3 503.702 233.5 503.202 233.8 502.802ZM239.3 519.302C238.9 519.602 238.5 519.702 238.1 519.902C237.7 520.002 237.3 520.102 236.9 520.202C236.5 520.302 236.1 520.302 235.6 520.302C235.1 520.302 234.6 520.202 234.1 520.102C233.6 520.002 233.2 519.702 232.8 519.402C232.4 519.102 232.1 518.702 231.9 518.202C231.7 517.702 231.5 517.202 231.5 516.502C231.5 515.502 231.7 514.602 232.1 513.802C232.5 513.002 233 512.402 233.6 511.702C235 513.202 236.3 514.502 237.4 515.502C238.5 516.502 239.5 517.502 240.4 518.302C240.1 518.802 239.7 519.102 239.3 519.302Z" fill="white"/>
<path d="M298.6 521.198C298.1 521.098 297.7 520.898 297.1 520.698C296.6 520.498 296.1 520.098 295.7 519.498L290.3 511.698C291.6 511.198 292.6 510.498 293.4 509.498C294.1 508.498 294.5 507.398 294.5 506.198C294.5 505.298 294.3 504.498 294 503.698C293.6 502.898 293.1 502.298 292.5 501.798C291.8 501.298 291 500.798 290.1 500.498C289.1 500.198 288.1 500.098 286.9 500.098H281.8C281.1 500.098 280.4 500.098 279.6 499.998C278.8 499.998 278 499.898 277.4 499.898C277.4 499.998 277.3 500.098 277.3 500.198C277.3 500.298 277.3 500.398 277.3 500.498C277.3 500.698 277.3 500.898 277.4 500.998C277.5 501.098 277.6 501.198 277.7 501.198C278.6 501.298 279.3 501.498 279.6 501.698C279.9 501.898 280.1 502.198 280.1 502.698V519.798C280.1 519.998 280.1 520.198 280 520.398C279.9 520.498 279.8 520.698 279.7 520.798C279.5 520.898 279.3 520.998 279 521.098C278.7 521.198 278.3 521.298 277.8 521.398C277.5 521.398 277.4 521.698 277.4 521.998C277.4 522.098 277.4 522.198 277.4 522.298C277.4 522.398 277.4 522.498 277.5 522.598C278.2 522.598 278.9 522.498 279.6 522.498C280.4 522.498 281.2 522.398 282 522.398C283.2 522.398 284.2 522.398 285.2 522.498C286.2 522.598 287 522.598 287.7 522.598C287.7 522.398 287.8 522.198 287.8 521.998C287.8 521.598 287.6 521.398 287.3 521.298C286.2 521.198 285.5 520.998 285 520.798C284.6 520.598 284.3 520.198 284.3 519.698V512.598H285.8L291.1 520.398C291.6 521.098 292 521.598 292.5 521.998C293 522.398 293.5 522.598 293.9 522.598C294.2 522.598 294.6 522.598 295.1 522.598C295.6 522.598 296.1 522.598 296.6 522.698C297.1 522.698 297.6 522.698 298 522.798C298.5 522.798 298.8 522.798 299.1 522.898C299.1 522.798 299.2 522.698 299.2 522.598C299.2 522.498 299.2 522.398 299.2 522.298C299.2 522.098 299.2 521.998 299.1 521.898C298.8 521.298 298.7 521.298 298.6 521.198ZM289.5 508.398C289.3 508.898 289 509.398 288.6 509.698C288.2 509.998 287.7 510.298 287.1 510.398C286.5 510.498 285.9 510.598 285.2 510.598H284.2V501.698H285.2C286.9 501.698 288.1 502.098 288.8 502.898C289.5 503.698 289.8 504.798 289.8 506.198C289.9 507.098 289.8 507.798 289.5 508.398Z" fill="white"/>
<path d="M326.6 516.599C326.3 516.599 326.2 516.699 326.1 516.799C325.8 517.299 325.6 517.799 325.3 518.299C325 518.699 324.7 519.099 324.3 519.499C323.9 519.799 323.5 520.099 323.1 520.299C322.6 520.499 322.1 520.599 321.4 520.599H320C318.6 520.599 317.6 520.499 317 520.399C316.4 520.199 316.1 519.899 316.1 519.399V511.799H320.9C321.3 511.799 321.6 511.999 321.7 512.299C321.9 512.599 322 513.199 322.2 514.099C322.2 514.399 322.4 514.599 322.8 514.599C322.9 514.599 323 514.599 323.1 514.599C323.2 514.599 323.4 514.599 323.4 514.499C323.3 513.799 323.3 513.199 323.3 512.599C323.3 511.999 323.3 511.599 323.3 511.199C323.3 510.699 323.3 510.099 323.4 509.399C323.4 508.699 323.5 508.099 323.5 507.599C323.4 507.599 323.3 507.599 323.2 507.499C323.1 507.499 322.9 507.499 322.9 507.499C322.7 507.499 322.6 507.499 322.5 507.599C322.4 507.699 322.3 507.799 322.3 507.999C322.2 508.799 322 509.399 321.9 509.699C321.8 509.999 321.4 510.199 321 510.199H316.2V501.999H320.7C321.3 501.999 321.8 502.099 322.3 502.199C322.8 502.299 323.1 502.499 323.5 502.799C323.8 503.099 324.1 503.399 324.4 503.799C324.7 504.199 324.9 504.699 325.2 505.299C325.3 505.499 325.5 505.599 325.7 505.599C325.8 505.599 326 505.599 326.1 505.499C326.2 505.499 326.4 505.399 326.5 505.399C326.3 504.899 326.2 504.399 326.1 504.099C326 503.799 325.9 503.399 325.9 502.999C325.8 502.499 325.7 501.999 325.7 501.499C325.7 500.999 325.6 500.699 325.5 500.499C325.4 500.299 325.2 500.199 325 500.199C324.7 500.199 324.2 500.199 323.5 500.299C322.8 500.399 321.9 500.399 320.9 500.399H313.9C313.4 500.399 312.7 500.399 312 500.399C311.2 500.399 310.4 500.299 309.4 500.299C309.4 500.399 309.3 500.499 309.3 500.599C309.3 500.699 309.3 500.799 309.3 500.899C309.3 501.199 309.4 501.399 309.6 501.499C310.1 501.599 310.5 501.699 310.8 501.799C311.1 501.899 311.4 501.999 311.6 502.099C311.8 502.199 311.9 502.299 312 502.499C312.1 502.599 312.1 502.799 312.1 503.099V520.199C312.1 520.699 311.9 520.999 311.5 521.199C311.1 521.399 310.5 521.599 309.6 521.699C309.4 521.699 309.3 521.899 309.3 522.199C309.3 522.299 309.3 522.399 309.3 522.499C309.3 522.599 309.3 522.799 309.4 522.899C310.1 522.899 310.8 522.799 311.7 522.799C312.6 522.799 313.3 522.699 314 522.699H321.7C322 522.699 322.3 522.699 322.8 522.699C323.2 522.699 323.6 522.699 324 522.799C324.4 522.799 324.8 522.799 325.1 522.899C325.4 522.899 325.7 522.899 325.9 522.899C326.2 522.899 326.4 522.799 326.4 522.599C326.4 522.499 326.5 522.399 326.5 522.199C326.6 521.999 326.6 521.799 326.7 521.499C326.8 521.199 326.8 520.999 326.9 520.699C327 520.399 327 520.199 327.1 519.899C327.2 519.699 327.2 519.499 327.3 519.199C327.4 518.899 327.5 518.599 327.6 518.399C327.6 518.199 327.7 518.099 327.8 517.899C327.9 517.699 327.9 517.599 328 517.399C327.8 517.299 327.7 517.299 327.5 517.199C326.8 516.599 326.7 516.599 326.6 516.599Z" fill="white"/>
<path d="M356.6 515.999C356.4 515.999 356.3 515.999 356.1 516.099C356 516.199 355.8 516.299 355.8 516.499C355.5 517.199 355.2 517.899 354.9 518.399C354.6 518.899 354.2 519.399 353.7 519.699C353.2 519.999 352.7 520.299 352 520.499C351.4 520.699 350.6 520.799 349.7 520.799C348.6 520.799 347.6 520.499 346.6 519.999C345.6 519.499 344.8 518.699 344.1 517.799C343.4 516.899 342.9 515.799 342.5 514.499C342.1 513.199 341.9 511.899 341.9 510.399C341.9 508.999 342.1 507.799 342.4 506.699C342.7 505.599 343.2 504.699 343.8 503.899C344.4 503.099 345.2 502.499 346.2 502.099C347.1 501.699 348.2 501.499 349.5 501.499C350.3 501.499 351 501.599 351.6 501.699C352.2 501.799 352.7 502.099 353.2 502.399C353.7 502.699 354 503.099 354.3 503.599C354.6 504.099 354.9 504.699 355.2 505.499C355.2 505.699 355.3 505.799 355.5 505.899C355.6 505.999 355.8 505.999 356 505.999C356.1 505.999 356.2 505.999 356.4 505.899C356.6 505.799 356.7 505.799 356.8 505.799C356.5 504.899 356.4 503.999 356.2 502.999C356.1 501.999 356 501.299 355.9 500.599C354.7 500.299 353.6 499.999 352.6 499.899C351.6 499.699 350.5 499.699 349.3 499.699C347.2 499.699 345.4 499.999 343.8 500.699C342.3 501.399 341 502.299 340 503.399C339 504.499 338.3 505.699 337.9 507.099C337.4 508.499 337.2 509.799 337.2 511.199C337.2 512.799 337.4 514.299 337.9 515.699C338.4 517.099 339.1 518.299 340 519.299C340.9 520.299 342.1 521.099 343.5 521.699C344.9 522.299 346.6 522.599 348.5 522.599C349.9 522.599 351.2 522.599 352.3 522.499C353.4 522.399 354.6 522.299 355.7 522.099C355.8 521.599 355.9 521.099 356 520.599C356.1 520.099 356.3 519.599 356.4 519.099C356.6 518.599 356.7 518.099 356.9 517.599C357 517.099 357.2 516.699 357.3 516.299C357.2 516.299 357 516.199 356.9 516.199C356.9 515.999 356.7 515.999 356.6 515.999Z" fill="white"/>
<path d="M387 502.902C386 501.902 384.7 501.102 383.3 500.502C381.9 499.902 380.4 499.602 378.7 499.602C377.1 499.602 375.6 499.902 374.2 500.502C372.8 501.102 371.6 501.902 370.5 503.002C369.5 504.002 368.6 505.302 368 506.602C367.4 508.002 367.1 509.502 367.1 511.102C367.1 512.802 367.4 514.302 368 515.702C368.6 517.102 369.4 518.302 370.4 519.302C371.4 520.302 372.6 521.102 374 521.702C375.4 522.302 376.9 522.602 378.6 522.602C380.2 522.602 381.7 522.302 383.1 521.702C384.5 521.102 385.7 520.302 386.8 519.202C387.8 518.202 388.7 516.902 389.3 515.602C389.9 514.202 390.2 512.702 390.2 511.102C390.2 509.402 389.9 507.902 389.3 506.502C388.7 505.102 388.1 503.902 387 502.902ZM385.2 515.902C384.9 516.902 384.5 517.702 383.9 518.502C383.3 519.302 382.7 519.802 381.9 520.202C381.1 520.602 380.3 520.802 379.3 520.802C378.1 520.802 377.1 520.502 376.2 519.902C375.3 519.302 374.5 518.502 373.9 517.502C373.3 516.502 372.8 515.202 372.5 513.802C372.2 512.402 372 510.802 372 509.102C372 507.902 372.2 506.802 372.5 505.902C372.8 504.902 373.3 504.102 373.9 503.502C374.5 502.802 375.1 502.302 375.9 502.002C376.7 501.602 377.4 501.502 378.2 501.502C379.5 501.502 380.5 501.802 381.5 502.402C382.4 503.002 383.2 503.802 383.9 504.802C384.5 505.802 385 507.002 385.3 508.402C385.6 509.802 385.8 511.302 385.8 512.902C385.7 513.902 385.5 514.902 385.2 515.902Z" fill="white"/>
<path d="M421 499.901C420.6 500.001 420.1 500.001 419.4 500.001C418.8 500.001 418.2 500.001 417.5 500.001C417.2 500.001 416.9 500.001 416.5 500.001C416.1 500.001 415.8 500.001 415.4 500.001C415 500.001 414.7 500.001 414.4 499.901C414.1 499.901 413.9 499.901 413.6 499.801V500.101C413.6 500.201 413.6 500.201 413.6 500.301C413.6 500.401 413.6 500.401 413.6 500.501C413.6 500.901 413.7 501.101 414 501.101C414.7 501.201 415.2 501.301 415.5 501.501C415.8 501.601 415.9 501.901 415.9 502.201C415.9 502.401 415.8 502.601 415.7 502.901L410.4 516.101L405.4 502.601C405.3 502.401 405.3 502.201 405.3 502.101C405.3 501.801 405.4 501.601 405.7 501.501C406 501.301 406.5 501.201 407.2 501.201C407.5 501.201 407.6 501.001 407.6 500.601C407.6 500.501 407.6 500.401 407.6 500.301C407.6 500.201 407.6 500.101 407.5 500.001C406.8 500.001 406 500.101 405.1 500.101C404.2 500.101 403.4 500.201 402.6 500.201C402.3 500.201 401.9 500.201 401.5 500.201C401.1 500.201 400.6 500.201 400.2 500.201C399.8 500.201 399.3 500.201 398.9 500.101C398.5 500.001 398.1 500.101 397.7 500.001C397.7 500.101 397.6 500.201 397.6 500.301C397.6 500.401 397.6 500.501 397.6 500.601C397.6 501.101 397.7 501.301 398 501.301C398.4 501.301 398.8 501.401 399 501.501C399.2 501.601 399.5 501.601 399.6 501.701C399.7 501.801 399.9 501.901 400 502.001C400.1 502.101 400.2 502.301 400.2 502.401L408.2 522.101C408.3 522.401 408.4 522.501 408.5 522.601C408.6 522.701 408.7 522.701 408.9 522.701C409 522.701 409.1 522.701 409.1 522.701C409.2 522.701 409.3 522.701 409.4 522.701L417.8 502.601C418 502.201 418.2 501.901 418.5 501.701C418.8 501.501 419.3 501.401 420.1 501.301C420.4 501.301 420.5 501.001 420.5 500.601C420.5 500.601 420.5 500.501 420.5 500.401C420.5 500.301 420.5 500.301 420.5 500.201L421 499.901Z" fill="white"/>
<path d="M448.3 516.599C448 516.599 447.9 516.699 447.8 516.799C447.5 517.299 447.3 517.799 447 518.299C446.7 518.699 446.4 519.099 446 519.499C445.6 519.799 445.2 520.099 444.8 520.299C444.3 520.499 443.8 520.599 443.1 520.599H441.7C440.3 520.599 439.3 520.499 438.7 520.399C438.1 520.199 437.8 519.899 437.8 519.399V511.799H442.6C443 511.799 443.3 511.999 443.4 512.299C443.6 512.599 443.7 513.199 443.9 514.099C443.9 514.399 444.1 514.599 444.5 514.599C444.6 514.599 444.7 514.599 444.8 514.599C444.9 514.599 445.1 514.599 445.1 514.499C445 513.799 445 513.199 445 512.599C445 511.999 445 511.599 445 511.199C445 510.699 445 510.099 445.1 509.399C445.1 508.699 445.2 508.099 445.2 507.599C445.1 507.599 445 507.599 444.9 507.499C444.8 507.499 444.6 507.499 444.6 507.499C444.4 507.499 444.3 507.499 444.2 507.599C444.1 507.699 444 507.799 444 507.999C443.9 508.799 443.7 509.399 443.6 509.699C443.5 509.999 443.1 510.199 442.7 510.199H437.9V501.999H442.4C443 501.999 443.5 502.099 444 502.199C444.5 502.299 444.8 502.499 445.2 502.799C445.5 503.099 445.8 503.399 446.1 503.799C446.4 504.199 446.6 504.699 446.9 505.299C447 505.499 447.2 505.599 447.4 505.599C447.5 505.599 447.7 505.599 447.8 505.499C447.9 505.499 448.1 505.399 448.2 505.399C448 504.899 447.9 504.399 447.8 504.099C447.7 503.799 447.6 503.399 447.6 502.999C447.5 502.499 447.4 501.999 447.4 501.499C447.4 500.999 447.3 500.699 447.2 500.499C447.1 500.299 446.9 500.199 446.7 500.199C446.4 500.199 445.9 500.199 445.2 500.299C444.5 500.399 443.6 500.399 442.6 500.399H435.6C435.1 500.399 434.4 500.399 433.7 500.399C432.9 500.399 432.1 500.299 431.1 500.299C431.1 500.399 431 500.499 431 500.599C431 500.699 431 500.799 431 500.899C431 501.199 431.1 501.399 431.3 501.499C431.8 501.599 432.2 501.699 432.5 501.799C432.8 501.899 433.1 501.999 433.3 502.099C433.5 502.199 433.6 502.299 433.7 502.499C433.8 502.599 433.8 502.799 433.8 503.099V520.199C433.8 520.699 433.6 520.999 433.2 521.199C432.8 521.399 432.2 521.599 431.3 521.699C431.1 521.699 431 521.899 431 522.199C431 522.299 431 522.399 431 522.499C431 522.599 431 522.799 431.1 522.899C431.8 522.899 432.5 522.799 433.4 522.799C434.3 522.799 435 522.699 435.7 522.699H443.4C443.7 522.699 444 522.699 444.5 522.699C444.9 522.699 445.3 522.699 445.7 522.799C446.1 522.799 446.5 522.799 446.8 522.899C447.1 522.899 447.4 522.899 447.6 522.899C447.9 522.899 448.1 522.799 448.1 522.599C448.1 522.499 448.2 522.399 448.2 522.199C448.3 521.999 448.3 521.799 448.4 521.499C448.5 521.199 448.5 520.999 448.6 520.699C448.7 520.399 448.7 520.199 448.8 519.899C448.9 519.699 448.9 519.499 449 519.199C449.1 518.899 449.2 518.599 449.3 518.399C449.3 518.199 449.4 518.099 449.5 517.899C449.6 517.699 449.6 517.599 449.7 517.399C449.5 517.299 449.4 517.299 449.2 517.199C448.5 516.599 448.4 516.599 448.3 516.599Z" fill="white"/>
<path d="M481.1 521.198C480.6 521.098 480.2 520.898 479.6 520.698C479 520.498 478.6 520.098 478.2 519.498L472.8 511.698C474.1 511.198 475.1 510.498 475.9 509.498C476.6 508.498 477 507.398 477 506.198C477 505.298 476.8 504.498 476.5 503.698C476.2 502.898 475.6 502.298 475 501.798C474.3 501.298 473.5 500.798 472.6 500.498C471.6 500.198 470.6 500.098 469.4 500.098H464.3C463.6 500.098 462.9 500.098 462.1 499.998C461.3 499.998 460.5 499.898 459.9 499.898C459.9 499.998 459.8 500.098 459.8 500.198C459.8 500.298 459.8 500.398 459.8 500.498C459.8 500.698 459.8 500.898 459.9 500.998C460 501.098 460.1 501.198 460.2 501.198C461.1 501.298 461.8 501.498 462.1 501.698C462.4 501.898 462.6 502.198 462.6 502.698V519.798C462.6 519.998 462.6 520.198 462.5 520.398C462.4 520.498 462.3 520.698 462.2 520.798C462 520.898 461.8 520.998 461.5 521.098C461.2 521.198 460.8 521.298 460.3 521.398C460 521.398 459.9 521.698 459.9 521.998C459.9 522.098 459.9 522.198 459.9 522.298C459.9 522.398 459.9 522.498 460 522.598C460.7 522.598 461.4 522.498 462.1 522.498C462.9 522.498 463.7 522.398 464.5 522.398C465.7 522.398 466.7 522.398 467.7 522.498C468.7 522.498 469.5 522.598 470.2 522.598C470.2 522.398 470.3 522.198 470.3 521.998C470.3 521.598 470.1 521.398 469.8 521.298C468.7 521.198 468 520.998 467.5 520.798C467 520.598 466.8 520.198 466.8 519.698V512.598H468.3L473.6 520.398C474.1 521.098 474.5 521.598 475 521.998C475.5 522.398 476 522.598 476.4 522.598C476.7 522.598 477.1 522.598 477.6 522.598C478.1 522.598 478.6 522.598 479.1 522.698C479.6 522.698 480.1 522.698 480.5 522.798C481 522.798 481.3 522.798 481.6 522.898C481.6 522.798 481.7 522.698 481.7 522.598C481.7 522.498 481.7 522.398 481.7 522.298C481.7 522.098 481.7 521.998 481.6 521.898C481.3 521.298 481.2 521.298 481.1 521.198ZM472 508.398C471.8 508.898 471.5 509.398 471.1 509.698C470.7 509.998 470.2 510.298 469.6 510.398C469 510.498 468.4 510.598 467.7 510.598H466.7V501.698H467.7C469.4 501.698 470.6 502.098 471.3 502.898C472 503.698 472.3 504.798 472.3 506.198C472.3 507.098 472.2 507.798 472 508.398Z" fill="white"/>
<path d="M506.4 500.001C505.8 500.001 505.3 500.001 504.7 500.001C504.2 500.001 503.5 500.001 502.8 499.901C502.1 499.801 501.5 499.801 501 499.801C500.9 500.101 500.9 500.301 500.9 500.401C500.9 500.801 501 501.001 501.3 501.001C501.9 501.101 502.3 501.201 502.6 501.401C502.9 501.501 503 501.701 503 502.001C503 502.301 502.9 502.701 502.6 503.101L498.7 510.501L494.7 502.601C494.5 502.301 494.5 502.101 494.5 501.901C494.5 501.701 494.6 501.501 494.8 501.401C495 501.301 495.4 501.201 496 501.101C496.3 501.101 496.4 500.801 496.4 500.501C496.4 500.501 496.4 500.401 496.4 500.301C496.4 500.201 496.4 500.101 496.3 499.901C496 499.901 495.7 499.901 495.3 500.001C494.9 500.101 494.5 500.001 494 500.101C493.5 500.101 493.1 500.101 492.7 500.101C492.3 500.101 491.9 500.101 491.6 500.101C490.7 500.101 489.8 500.101 489 500.001C488.2 499.901 487.6 499.901 487.1 499.901V500.101C487.1 500.201 487.1 500.201 487.1 500.301C487.1 500.401 487.1 500.401 487.1 500.501C487.1 500.901 487.2 501.201 487.5 501.201C488.1 501.301 488.6 501.401 488.9 501.601C489.2 501.801 489.6 502.101 489.8 502.601L495.2 512.901V519.601C495.2 519.901 495.2 520.101 495.1 520.201C495 520.401 494.9 520.501 494.7 520.601C494.5 520.701 494.3 520.801 493.9 520.901C493.6 521.001 493.2 521.101 492.7 521.201C492.6 521.201 492.5 521.301 492.4 521.401C492.3 521.501 492.3 521.601 492.3 521.901C492.3 521.901 492.3 522.001 492.3 522.101C492.3 522.201 492.3 522.201 492.3 522.301V522.501C492.6 522.501 492.9 522.501 493.2 522.501C493.5 522.501 493.8 522.501 494.1 522.401C494.6 522.401 495.1 522.301 495.7 522.301C496.3 522.301 496.7 522.301 497.1 522.301C497.5 522.301 498 522.301 498.5 522.301C499.1 522.301 499.6 522.301 500.2 522.401C500.5 522.401 500.8 522.401 501.2 522.501C501.5 522.501 501.9 522.501 502.2 522.501V522.301C502.2 522.201 502.2 522.201 502.2 522.101C502.2 522.001 502.2 522.001 502.2 521.901C502.2 521.601 502.2 521.501 502.1 521.401C502 521.301 501.9 521.301 501.8 521.201C501.3 521.101 500.9 521.101 500.6 521.001C500.3 520.901 500 520.801 499.9 520.701C499.7 520.601 499.6 520.401 499.5 520.301C499.4 520.101 499.4 519.901 499.4 519.701V512.901L505 502.501C505.2 502.101 505.5 501.801 505.8 501.601C506.1 501.401 506.7 501.301 507.5 501.201C507.8 501.201 507.9 501.001 507.9 500.601C507.9 500.601 507.9 500.501 507.9 500.401C507.9 500.301 507.9 500.201 507.8 500.001C507.5 499.901 507 500.001 506.4 500.001Z" fill="white"/>
<path d="M458.633 278.122L453.966 282.789L458.633 287.456L463.3 282.789L458.633 278.122Z" fill="white"/>
</g>
<defs>
<clipPath id="clip0_2937_6510">
<rect width="517" height="522.6" fill="white"/>
</clipPath>
</defs>
</svg>
