<?xml version="1.0" encoding="utf-8"?>
<!-- Generator: Adobe Illustrator 24.1.2, SVG Export Plug-In . SVG Version: 6.00 Build 0)  -->
<svg version="1.1" id="Layer_1" xmlns="http://www.w3.org/2000/svg" xmlns:xlink="http://www.w3.org/1999/xlink" x="0px" y="0px"
	 viewBox="0 0 517 522.6" style="enable-background:new 0 0 517 522.6;" xml:space="preserve">
<style type="text/css">
	.st0{fill:#FFFFFF;}
	.st1{fill:none;}
</style>
<g>
	<path class="st1" d="M158.5,175.1c9.6,13.5,25.8,18.5,43.8,18.5c14,0,29.2-3,43.3-7.3c-1.4,2.1-3,4.2-4.7,6.5
		c-0.3,0.4-0.6,0.8-0.9,1.2c-0.3,0.4-0.6,0.8-0.9,1.3c-0.3,0.4-0.5,0.8-0.7,1.1c-0.1,0.2-0.2,0.3-0.3,0.5c-0.4,0.7-0.9,1.4-1.3,2.2
		c-0.8,1.5-1.5,2.9-2.3,4.4c-0.2,0.5-0.5,1-0.7,1.4c-1.6,3.6-2.9,7.2-4,10.5c-0.1,0.4-0.3,0.9-0.4,1.3c-0.6,1.9-1.1,3.6-1.5,5.1
		c-0.1,0.3-0.2,0.7-0.3,1c-0.1,0.4-0.2,0.7-0.3,1.1c0,0.2-0.1,0.3-0.1,0.5c-0.1,0.3-0.1,0.5-0.2,0.7c0,0,0,0,0,0.1
		c0,0.1,0.1,0.2,0.2,0.2c0.1,0,0.1,0,0.2-0.1c1.1-2.2,2.6-4.6,4.5-7c0.2-0.2,0.3-0.5,0.5-0.7c0.2-0.2,0.3-0.5,0.5-0.7
		c0.3-0.4,0.6-0.7,0.9-1.1c0.1-0.1,0.1-0.2,0.2-0.3c0.2-0.2,0.4-0.5,0.6-0.7c0.8-1,1.7-2,2.6-3c0.3-0.4,0.7-0.8,1.1-1.2
		c0,0,0.1-0.1,0.1-0.1c0.4-0.4,0.8-0.9,1.2-1.3c0.2-0.2,0.4-0.5,0.7-0.7c0.4-0.4,0.7-0.8,1.1-1.1c0.1-0.1,0.2-0.3,0.4-0.4
		c1.4-1.5,2.8-3,4.2-4.4c0.3-0.3,0.6-0.6,1-1c0.2-0.2,0.4-0.5,0.7-0.7c0.1-0.1,0.2-0.2,0.3-0.3c0.3-0.4,0.7-0.7,1-1.1
		c1.5-1.5,2.9-3,4.2-4.4c0.3-0.4,0.7-0.7,1-1.1c0.3-0.4,0.7-0.7,1-1.1c0.6-0.6,1.1-1.2,1.6-1.8c0.3-0.3,0.6-0.7,0.9-1
		c0.5-0.7,1-1.3,1.5-1.9c0.1-0.1,0.2-0.2,0.2-0.3c0-0.1,0.1-0.1,0.1-0.2c0.2-0.3,0.4-0.5,0.5-0.8c1.4-2.3,2.3-4.6,3-6.8
		c4-1.6,7.7-3.2,11.3-4.9c0,0.3,0,0.6,0,0.9c-0.8,8-24.8,32.2-24.8,32.2c26.7-13.4,34.2-27.6,34.9-38.3c7.5-4.1,12.9-8,15-10.7
		c0,0-5.7,3.3-15,7.5c-0.6-10.6-8.6-15.3-12.9-16.9c-4.4-1.7-1-7.6,2.7-12.6c3.8-5,15-16.9,22.6-18.3c0.4-0.1,0.9-0.1,1.3-0.1
		c2.2,0,4.1,1,6,2.4c0.4,0.3,0.7,0.6,1.1,0.9c0.4,0.3,0.7,0.7,1.1,1c0.2,0.2,0.4,0.4,0.5,0.6c0.7,0.8,1.4,1.6,2.1,2.4
		c0.3,0.4,0.7,0.8,1,1.3c1.2,1.5,2.5,3,3.7,4.3c0.4,0.4,0.7,0.8,1.1,1.1c0.4,0.4,0.7,0.7,1.1,1c0.4,0.3,0.7,0.6,1.1,0.9
		c0.3,0.2,0.6,0.4,0.9,0.5c0.3,0.2,0.6,0.3,0.9,0.5c0.4,0.2,0.8,0.3,1.2,0.5c0.2,0.1,0.4,0.1,0.6,0.2c0.4,0.1,0.8,0.2,1.3,0.3
		c0.4,0.1,0.9,0.2,1.3,0.2c0.8,0.1,1.7,0.2,2.5,0.2c3.9,0,7.1-1,7.1-1c-15.4-6.5-18.6-19.5-20.7-26.6s-9.5-4.8-11.4-9.5
		c-1.7-4.1,2.9-4.6,4.1-4.7h0c0.2,0,0.2,0,0.2,0c1.7-0.1,4-0.5,5.2-1.6c2.4-2.2,2.9-6.5,2.9-10.9c0-6.9-4-12.5-8.9-12.5
		c-4.9,0-9.9,5.6-9.9,12.5c0,2.2,0.5,4.3,1.4,6.1v0c0.3,6.1-5.8,8-10.4,8.8c-0.2,0-0.4,0.1-0.6,0.1c-4.5,0-10-8.6-15.6-8.6
		c-0.2,0-0.3,0-0.5,0s-0.4,0-0.5,0c-5.3,0.7-10.7,6-31.1,6c-0.9,0-1.8,0-2.7,0c-3-0.1-5.7-0.3-8.2-0.8
		c-17.3-3.2-21.8-14.5-21.8-14.5c-2.1,7.2-0.7,12.4,2.8,16.2c0.8,0.8,1.7,1.6,2.7,2.3c0.3,0.2,0.7,0.5,1,0.7
		c0.2,0.1,0.4,0.2,0.6,0.4c0.8,0.5,1.7,0.9,2.6,1.3c0.7,0.3,1.4,0.6,2.1,0.9c0.5,0.2,1,0.4,1.5,0.5c1.2,0.4,2.5,0.8,3.9,1.1
		c0.5,0.1,1.1,0.3,1.6,0.4c0.5,0.1,1.1,0.2,1.6,0.3c0.6,0.1,1.1,0.2,1.7,0.3c2.5,0.4,5.1,0.7,7.6,0.9c0.6,0,1.1,0.1,1.7,0.1
		c2.5,0.1,5.1,0.2,7.5,0.2c1.6,0,3.2,0,4.6-0.1c0.5,0,1,0,1.5-0.1c1.2,0,2.3-0.1,3.4-0.2c0.6,0,1.3-0.1,1.8-0.1
		c0.4,0,0.8-0.1,1.1-0.1c0.4,0,0.7,0,1.1-0.1c0.3,0,0.7,0,1-0.1c0.3,0,0.6,0,0.9-0.1c0,0,0,0,0,0c0.3,0,0.5,0,0.8-0.1
		c0.1,0,0.2,0,0.4,0c0.2,0,0.4,0,0.6,0c0.3,0,0.5,0,0.7-0.1c0.3,0,0.6,0,0.8,0c2.4,0,4.3,0.8,5.5,2.1c0.3,0.3,0.6,0.7,0.8,1
		c0.9,1.4,1.3,3.2,1,5c0,0.3-0.1,0.5-0.2,0.8c-0.1,0.4-0.3,0.8-0.4,1.2c-2.1,4.6-21.9,27.6-26.1,38.8c-4.3,11.2,13.2,12.9,13.2,12.9
		c-0.2,2.3-2,6.8-5.6,12.7c-4.4,1.2-9,2.3-13.7,3.2c-1.5,0.3-3.1,0.6-4.7,0.8c-1.6,0.3-3.1,0.5-4.7,0.7c-1.6,0.2-3.2,0.4-4.7,0.5
		s-3.2,0.2-4.7,0.3c-1.6,0.1-3.2,0.1-4.7,0.1c-1.6,0-3.3,0-4.9-0.1c-0.8,0-1.6-0.1-2.4-0.2c-0.8-0.1-1.6-0.1-2.4-0.2
		c-0.4,0-0.8-0.1-1.2-0.1c-0.6-0.1-1.1-0.1-1.7-0.2s-1.1-0.2-1.7-0.3c-0.6-0.1-1.1-0.2-1.7-0.3c-0.5-0.1-1-0.2-1.6-0.3
		c-6.7-1.4-13.2-3.7-19.1-7.1c-38.5-22.1-0.9-85.7-0.2-87c0,0,0,0,0,0V69.2c-10.3,13.5-19.8,29.1-25,45.4
		C144.7,134.8,144.9,155.9,158.5,175.1z M265.3,167.1c0.1-0.3,0.5-0.5,1.1-0.5c0,0,0.1,0,0.1,0c0,0,0,0,0,0c0.2,0,0.4,0,0.7,0.1
		c0.1,0,0.1,0,0.2,0c0.2,0,0.5,0.1,0.7,0.2c0,0,0,0,0.1,0c0.3,0.1,0.5,0.2,0.8,0.3c0.1,0,0.2,0.1,0.2,0.1c0.3,0.1,0.5,0.3,0.8,0.4
		c0,0,0,0,0,0c0.3,0.2,0.6,0.4,0.8,0.6c0.1,0.1,0.1,0.1,0.2,0.2c0.6,0.5,1.1,1,1.5,1.6c0.1,0.1,0.1,0.2,0.2,0.2
		c0.2,0.3,0.4,0.7,0.6,1c-2.9,1.2-6,2.3-9.2,3.4C264.9,171,264.9,168,265.3,167.1z"/>
	<path class="st1" d="M352.1,37.7c-6.5-11.7-18.4-17.9-34.3-17.9c-0.9,0-1.8,0-2.7,0.1c-12.7,0.5-25.4,2-37.6,4.3L348.6,96
		C357.7,80.9,362,55.5,352.1,37.7z"/>
	<path class="st1" d="M236.1,508.8c0.5-0.6,0.8-1.2,1.1-1.9c0.2-0.6,0.4-1.2,0.4-1.8c0-1-0.2-1.7-0.6-2.2c-0.4-0.5-1-0.8-1.7-0.8
		c-0.6,0-1.1,0.2-1.4,0.6s-0.5,0.9-0.5,1.5c0,0.7,0.2,1.4,0.7,2.1C234.5,507.1,235.2,507.9,236.1,508.8z"/>
	<path class="st1" d="M233.7,511.8c-0.6,0.6-1.1,1.3-1.5,2.1c-0.4,0.8-0.6,1.7-0.6,2.7c0,0.7,0.1,1.2,0.4,1.7
		c0.2,0.5,0.5,0.9,0.9,1.2s0.8,0.5,1.3,0.7c0.5,0.1,1,0.2,1.5,0.2c0.5,0,0.9,0,1.3-0.1c0.4-0.1,0.8-0.2,1.2-0.3
		c0.4-0.1,0.8-0.3,1.2-0.6c0.4-0.2,0.8-0.6,1.2-1c-0.9-0.8-1.9-1.7-3-2.8S235.1,513.3,233.7,511.8z"/>
	<path class="st1" d="M285.2,501.7h-1v8.9h1c0.7,0,1.3-0.1,1.9-0.2c0.6-0.1,1.1-0.4,1.5-0.7c0.4-0.3,0.7-0.8,0.9-1.3
		c0.2-0.5,0.3-1.2,0.3-2.1c0-1.4-0.3-2.5-1-3.3S287,501.7,285.2,501.7z"/>
	<path class="st1" d="M383.8,504.7c-0.6-1-1.4-1.8-2.4-2.4c-0.9-0.6-2-0.9-3.3-0.9c-0.8,0-1.6,0.2-2.3,0.5c-0.8,0.4-1.4,0.9-2,1.5
		c-0.6,0.7-1,1.5-1.4,2.4c-0.3,1-0.5,2-0.5,3.2c0,1.7,0.2,3.2,0.5,4.7c0.3,1.4,0.8,2.7,1.4,3.7s1.4,1.8,2.3,2.4
		c0.9,0.6,1.9,0.9,3.1,0.9c1,0,1.8-0.2,2.6-0.6s1.4-1,2-1.7s1-1.6,1.3-2.6c0.3-1,0.5-2,0.5-3.1c0-1.6-0.2-3.1-0.5-4.5
		C384.9,506.9,384.4,505.7,383.8,504.7z"/>
	<path class="st1" d="M226.7,227.1c0.1-0.2,0.1-0.3,0.2-0.5c0,0-0.1,0-0.1,0C226.8,226.9,226.7,227.1,226.7,227.1z"/>
	<polygon class="st1" points="40.7,282.3 46.3,282.3 48.2,280.4 50.1,282.3 55,282.3 48,263.8 	"/>
	<path class="st1" d="M194.3,48.1c-3.1,3.3-6.4,6.9-9.7,10.7c-2.8,10-3.9,18.3-3.5,25.2c0.3,6.6,1.8,11.9,4.2,16.1
		c0.3,0.6,0.7,1.1,1,1.6c0.2,0.3,0.3,0.5,0.5,0.8c0.4,0.5,0.7,1,1.1,1.5c8.4,10.4,22.7,12.5,32.8,12.5c0.4,0,0.8,0,1.2,0
		c0.4,0,0.8,0,1.2,0c5.4-0.2,9.1-0.9,9.1-0.9s-52.6-2.9-39.8-40.4c0.6-1.6,1.2-3.2,1.9-4.8c5.3-11.2,14.9-20.4,27.1-27.8
		c15.3-9.2,34.7-15.7,54.8-19.6c13-2.5,26.2-4,38.8-4.5c0.9,0,1.8-0.1,2.7-0.1c47.3,0,48.2,52.3,31.9,78.8l0.5,0.5l2.2,2.2
		c0,0,33.9-37.9,2.3-80.3c-9.7-13-25.9-18.1-44.6-18.1h0c-14.8,0-31.1,3.2-46.8,8.3c-5.2,1.7-10.4,3.5-15.4,5.6
		C225,24.7,204.7,37.1,194.3,48.1z"/>
	<path class="st1" d="M467.7,501.7h-1v8.9h1c0.7,0,1.3-0.1,1.9-0.2c0.6-0.1,1.1-0.4,1.5-0.7c0.4-0.3,0.7-0.8,0.9-1.3
		c0.2-0.5,0.3-1.2,0.3-2.1c0-1.4-0.3-2.5-1-3.3S469.4,501.7,467.7,501.7z"/>
	<path d="M272.9,170.4c-0.1-0.1-0.1-0.2-0.2-0.2c-0.5-0.6-1-1.1-1.5-1.6c-0.1-0.1-0.1-0.1-0.2-0.2c-0.3-0.2-0.6-0.4-0.8-0.6
		c0,0,0,0,0,0c-0.3-0.2-0.5-0.3-0.8-0.4c-0.1,0-0.2-0.1-0.2-0.1c-0.3-0.1-0.6-0.2-0.8-0.3c0,0,0,0-0.1,0c-0.2-0.1-0.5-0.1-0.7-0.2
		c-0.1,0-0.1,0-0.2,0c-0.2,0-0.5-0.1-0.7-0.1c0,0,0,0,0,0c0,0-0.1,0-0.1,0c-0.5,0-0.9,0.2-1.1,0.5c-0.4,0.9-0.4,3.8-1,7.7
		c3.2-1.1,6.3-2.3,9.2-3.4C273.3,171,273.1,170.7,272.9,170.4z"/>
	<polygon points="215.4,318.1 223.4,301.3 207.5,301.3 	"/>
	<path d="M257.4,373.9c0,0,56.4-57.5,195.8-72.6h-140l-16,39.4l-16.9-39.4h-49.1l-16.5,39.4l-19.3-39.4H72.3
		C72.3,301.3,220.7,325,257.4,373.9z"/>
	<polygon points="297.9,314.5 303.2,301.3 293.5,301.3 	"/>
	<path d="M255.9,385.7l1.8,1.3l1.8-1.4c0.2-0.1,17.2-13.3,55.1-29.9c35-15.3,95.6-36.6,185.1-51.5c6.1-1,11.9-2,17.3-3h-35.2
		c-81.1,14.8-136.8,34.7-170,49.1c-31.9,13.9-48.9,25.3-54.2,29.2c-58.6-42-159.6-66.5-214-78.3H14.5c2.4,0.5,5.3,1.1,8.8,1.8
		C69.2,312.7,191,338,255.9,385.7z"/>
	<path d="M98.6,414.1c0-0.1,0-0.3-0.1-0.5c0-0.2-0.1-0.4-0.1-0.6l-0.1-0.8c-1.3,0.2-2.9,0.3-4.6,0.4c-1.7,0.1-3.6,0.1-5.5,0.1
		c-1.8,0-3.8-0.1-5.9-0.2c-2.1-0.1-3.7-0.2-4.9-0.4l-0.1,0.8c0,0.2,0,0.4-0.1,0.6c0,0.2-0.1,0.3-0.1,0.5c0,1.2,0.4,1.8,1.2,1.9
		c2.1,0.3,3.7,0.6,4.5,1.1c0.9,0.4,1.3,1.1,1.3,2.1c0,0.5-0.2,1.2-0.5,2.1l-12.3,35.5L55,413.2c-0.3-0.7-0.5-1.1-0.8-1.4
		c-0.2-0.2-0.6-0.4-1.2-0.4c-0.2,0-0.4,0-0.7,0.1c-0.3,0-0.6,0.1-0.9,0.2l-15.9,45.1l-13.2-36.4c-0.1-0.3-0.2-0.6-0.3-0.9
		c-0.1-0.2-0.1-0.5-0.1-0.8c0-0.8,0.4-1.4,1.3-1.9c0.9-0.5,2.4-0.8,4.5-1c0.9-0.1,1.3-0.7,1.3-1.9c0-0.2,0-0.5-0.1-0.8
		c0-0.3-0.1-0.7-0.2-1c-2.1,0.1-4.4,0.3-7,0.4s-5,0.2-7.3,0.2c-0.9,0-2,0-3.3-0.1c-1.2,0-2.5-0.1-3.8-0.1c-1.3,0-2.6-0.1-3.9-0.2
		c-1.3-0.1-2.4-0.1-3.4-0.2c-0.1,0.2-0.2,0.5-0.2,0.9c0,0.4,0,0.7,0,0.9c0,1.3,0.4,2,1.3,2.1c2.6,0.3,4.2,0.7,5.1,1.2
		c0.8,0.5,1.4,1.2,1.8,2.2l22.1,58.3c0.3,0.7,0.5,1.2,0.8,1.4c0.2,0.2,0.6,0.3,1.2,0.3c0.3,0,0.5,0,0.7,0c0.2,0,0.4,0,0.8-0.1
		l16-45.3L66,477.7c0.3,0.7,0.6,1.2,0.9,1.4c0.2,0.2,0.6,0.3,1.1,0.3c0.3,0,0.6,0,0.7,0c0.1,0,0.4,0,0.7-0.1l21.2-59.4
		c0.5-1.3,1.2-2.2,2.2-2.7c1-0.5,2.5-0.8,4.6-1C98.1,416.1,98.6,415.4,98.6,414.1z"/>
	<path d="M155,461.6c-0.7,0-1.2,0.2-1.4,0.7c-0.8,1.6-1.6,3.1-2.4,4.4c-0.8,1.3-1.7,2.5-2.8,3.4c-1.1,1-2.3,1.7-3.7,2.3
		c-1.4,0.5-3.1,0.8-5.1,0.8h-4.2c-4.2,0-7.1-0.2-8.9-0.7c-1.7-0.5-2.6-1.4-2.6-2.8v-22.6h14.2c1.1,0,2,0.5,2.5,1.4s1,2.6,1.4,5.2
		c0.1,0.9,0.7,1.4,1.9,1.4c0.2,0,0.5,0,1,0c0.4,0,0.8-0.1,1-0.3c-0.2-2.1-0.3-3.9-0.4-5.6c-0.1-1.6-0.1-3.1-0.1-4.3
		c0-1.4,0.1-3.1,0.2-5.2c0.1-2,0.2-3.8,0.4-5.4c-0.2-0.1-0.5-0.1-1-0.2c-0.4,0-0.8-0.1-1-0.1c-0.5,0-1,0.1-1.3,0.3
		c-0.3,0.2-0.5,0.5-0.6,1.1c-0.3,2.4-0.7,4-1.2,5.1c-0.5,1-1.3,1.6-2.6,1.6h-14.2v-24.3h13.4c1.8,0,3.4,0.2,4.7,0.5
		c1.3,0.3,2.4,0.9,3.4,1.7c1,0.8,1.8,1.8,2.6,3c0.8,1.2,1.6,2.7,2.4,4.5c0.3,0.6,0.9,0.9,1.6,0.9c0.4,0,0.8-0.1,1.2-0.2
		c0.4-0.1,0.8-0.3,1.1-0.4c-0.5-1.5-0.9-2.9-1.2-3.9c-0.3-1.1-0.5-2.2-0.7-3.3c-0.3-1.5-0.6-3-0.7-4.5c-0.1-1.4-0.3-2.4-0.5-3
		c-0.3-0.6-0.9-0.9-1.6-0.9c-0.8,0-2.3,0.1-4.5,0.3c-2.2,0.2-4.8,0.3-7.8,0.3h-20.6c-1.6,0-3.5,0-5.7-0.1c-2.2-0.1-4.8-0.2-7.7-0.4
		c-0.1,0.3-0.2,0.7-0.2,1c0,0.3,0,0.6,0,1c0,1,0.3,1.6,1,1.8c1.4,0.3,2.6,0.5,3.5,0.8c0.9,0.2,1.6,0.5,2.2,0.8
		c0.6,0.3,1,0.7,1.2,1.1c0.2,0.4,0.3,1,0.3,1.7v50.4c0,1.3-0.6,2.3-1.7,2.8c-1.1,0.5-2.9,1-5.5,1.5c-0.7,0.1-1,0.6-1,1.6
		c0,0.2,0,0.5,0,1c0,0.4,0.1,0.8,0.2,1.1c2-0.1,4.3-0.3,6.8-0.4c2.5-0.1,4.7-0.2,6.7-0.2h22.9c0.9,0,1.9,0,3.1,0.1
		c1.2,0.1,2.4,0.1,3.6,0.2c1.2,0,2.3,0.1,3.3,0.2c1,0.1,1.8,0.1,2.3,0.1c0.8,0,1.3-0.3,1.6-0.8c0.1-0.2,0.2-0.6,0.4-1.2
		c0.2-0.6,0.3-1.3,0.5-2.1c0.2-0.8,0.3-1.6,0.5-2.4c0.2-0.8,0.3-1.6,0.5-2.3c0.2-0.5,0.4-1.2,0.6-2.1c0.2-0.9,0.5-1.7,0.8-2.4
		c0.1-0.5,0.3-0.9,0.5-1.4c0.2-0.5,0.3-1,0.5-1.5c-0.5-0.2-0.9-0.4-1.4-0.6C155.7,461.7,155.3,461.6,155,461.6z"/>
	<path d="M214.5,461.6c-0.8,0-1.3,0.3-1.5,0.8c-0.7,1.9-1.5,3.6-2.3,5c-0.8,1.4-1.6,2.5-2.6,3.4c-0.9,0.9-2,1.5-3.3,1.9
		c-1.2,0.4-2.7,0.6-4.4,0.6h-3.8c-4.2,0-7.1-0.2-9-0.7c-1.8-0.5-2.7-1.4-2.7-2.8v-49.1c0-1.3,0.5-2.3,1.5-3c1-0.6,2.9-1.2,5.8-1.6
		c0.7-0.2,1-0.8,1-1.7c0-0.2,0-0.5-0.1-0.9c0-0.4-0.1-0.8-0.2-1.1c-1.1,0.1-2.3,0.1-3.6,0.2c-1.3,0.1-2.6,0.1-3.9,0.2
		c-1.3,0-2.6,0.1-3.8,0.1c-1.2,0-2.3,0.1-3.2,0.1c-1.9,0-4-0.1-6.4-0.2c-2.4-0.1-4.7-0.2-6.8-0.4c-0.1,0.3-0.2,0.7-0.2,1.1
		c0,0.4,0,0.7,0,0.9c0,0.9,0.3,1.5,1,1.7c1.4,0.2,2.5,0.4,3.4,0.7c0.8,0.2,1.5,0.5,1.9,0.9c0.4,0.3,0.7,0.7,0.8,1.2
		c0.1,0.4,0.2,1,0.2,1.7v50.4c0,1.3-0.6,2.3-1.7,2.8c-1.1,0.5-2.9,1-5.5,1.5c-0.7,0.1-1,0.6-1,1.6c0,0.2,0,0.5,0,1
		c0,0.4,0.1,0.8,0.2,1.1c2-0.1,4.3-0.3,6.8-0.4c2.5-0.1,4.7-0.2,6.7-0.2h22.9c0.9,0,1.9,0,3.1,0.1c1.2,0.1,2.3,0.1,3.5,0.2
		c1.1,0,2.2,0.1,3.2,0.2c1,0.1,1.7,0.1,2.3,0.1c0.4,0,0.8-0.1,1.2-0.3c0.4-0.2,0.6-0.7,0.7-1.5c0.3-2.4,0.7-4.9,1.2-7.4
		c0.4-2.5,0.9-4.8,1.5-7c-0.5-0.2-0.9-0.4-1.4-0.6C215.2,461.7,214.8,461.6,214.5,461.6z"/>
	<path d="M271.9,461.6c-0.8,0-1.3,0.3-1.5,0.8c-0.7,1.9-1.5,3.6-2.3,5c-0.8,1.4-1.6,2.5-2.6,3.4c-0.9,0.9-2,1.5-3.3,1.9
		c-1.2,0.4-2.7,0.6-4.4,0.6h-3.8c-4.2,0-7.1-0.2-9-0.7c-1.8-0.5-2.7-1.4-2.7-2.8v-49.1c0-1.3,0.5-2.3,1.5-3c1-0.6,2.9-1.2,5.8-1.6
		c0.7-0.2,1-0.8,1-1.7c0-0.2,0-0.5-0.1-0.9c0-0.4-0.1-0.8-0.2-1.1c-1.1,0.1-2.3,0.1-3.6,0.2c-1.3,0.1-2.6,0.1-3.9,0.2
		c-1.3,0-2.6,0.1-3.8,0.1c-1.2,0-2.3,0.1-3.2,0.1c-1.9,0-4-0.1-6.4-0.2c-2.4-0.1-4.7-0.2-6.8-0.4c-0.1,0.3-0.2,0.7-0.2,1.1
		c0,0.4,0,0.7,0,0.9c0,0.9,0.3,1.5,1,1.7c1.4,0.2,2.5,0.4,3.4,0.7c0.8,0.2,1.5,0.5,1.9,0.9c0.4,0.3,0.7,0.7,0.8,1.2
		c0.1,0.4,0.2,1,0.2,1.7v50.4c0,1.3-0.6,2.3-1.7,2.8c-1.1,0.5-2.9,1-5.5,1.5c-0.7,0.1-1,0.6-1,1.6c0,0.2,0,0.5,0,1
		c0,0.4,0.1,0.8,0.2,1.1c2-0.1,4.3-0.3,6.8-0.4c2.5-0.1,4.7-0.2,6.7-0.2h22.9c0.9,0,1.9,0,3.1,0.1c1.2,0.1,2.3,0.1,3.5,0.2
		c1.1,0,2.2,0.1,3.2,0.2c1,0.1,1.7,0.1,2.3,0.1c0.4,0,0.8-0.1,1.2-0.3c0.4-0.2,0.6-0.7,0.7-1.5c0.3-2.4,0.7-4.9,1.2-7.4
		c0.4-2.5,0.9-4.8,1.5-7c-0.5-0.2-0.9-0.4-1.4-0.6C272.6,461.7,272.2,461.6,271.9,461.6z"/>
	<path d="M337.7,420.3c0-1.3,0.4-2.3,1.2-2.9c0.8-0.6,2.3-1.1,4.5-1.4c0.8-0.1,1.2-0.8,1.2-1.9c0-0.2,0-0.5-0.1-0.8
		c0-0.3-0.1-0.7-0.2-1c-1.5,0.2-3.1,0.3-4.6,0.4c-1.5,0.1-3.4,0.1-5.5,0.1c-2.2,0-4,0-5.6-0.1c-1.6-0.1-3.3-0.2-4.9-0.4
		c-0.1,0.3-0.2,0.7-0.2,1c0,0.3,0,0.6,0,0.8c0,1.1,0.4,1.7,1.3,1.9c2.6,0.3,4.3,0.8,5.3,1.4c1,0.6,1.5,1.6,1.5,3.1v35.7l-33.4-42.3
		c-0.5-0.5-1-0.8-1.6-1c-0.6-0.2-1.9-0.3-3.8-0.3c-0.9,0-2.2,0-3.7-0.1c-1.5,0-3-0.1-4.5-0.2c-0.9-0.1-1.7-0.1-2.6-0.2
		c-0.9,0-1.8-0.1-2.7-0.2l-0.1,0.8c-0.1,0.2-0.1,0.4-0.1,0.6c0,0.2,0,0.3,0,0.5c0,1.1,0.4,1.7,1.2,1.9c2.5,0.3,4.1,0.8,4.8,1.4
		c0.7,0.6,1.1,1.4,1.1,2.5v51c0,1.3-0.4,2.2-1.2,2.8s-2.4,1.1-4.8,1.5c-0.3,0.1-0.6,0.2-0.9,0.5c-0.2,0.3-0.4,0.7-0.4,1.4
		c0,0.2,0,0.5,0,0.8s0.1,0.6,0.2,0.9c1.5-0.1,3.1-0.3,4.9-0.4c1.8-0.1,3.6-0.2,5.6-0.2c1.9,0,3.7,0.1,5.1,0.2s3.1,0.2,4.7,0.4
		c0.1-0.7,0.2-1.2,0.2-1.7c0-0.7-0.1-1.2-0.4-1.5c-0.2-0.2-0.5-0.4-0.9-0.5c-1.4-0.3-2.5-0.5-3.4-0.8c-0.8-0.2-1.5-0.5-1.9-0.8
		c-0.4-0.3-0.7-0.7-0.8-1.1c-0.1-0.4-0.2-1-0.2-1.7v-43.5l39.7,50.3c0.6,0.7,1.2,1.2,1.7,1.5c0.5,0.2,1,0.4,1.5,0.4
		c0.2,0,0.6,0,1.3,0c0.6,0,1.1-0.1,1.4-0.2V420.3z"/>
	<path d="M401.3,478.7c0.8,0,1.3-0.3,1.6-0.8c0.1-0.2,0.2-0.6,0.4-1.2c0.2-0.6,0.3-1.3,0.5-2.1c0.2-0.8,0.3-1.6,0.5-2.4
		c0.2-0.8,0.3-1.6,0.5-2.3c0.2-0.5,0.4-1.2,0.6-2.1c0.2-0.9,0.5-1.7,0.8-2.4c0.1-0.5,0.3-0.9,0.5-1.4c0.2-0.5,0.3-1,0.5-1.5
		c-0.5-0.2-0.9-0.4-1.4-0.6c-0.5-0.2-0.9-0.3-1.2-0.3c-0.7,0-1.2,0.2-1.4,0.7c-0.8,1.6-1.6,3.1-2.4,4.4c-0.8,1.3-1.7,2.5-2.8,3.4
		c-1.1,1-2.3,1.7-3.7,2.3c-1.4,0.5-3.1,0.8-5.1,0.8h-4.2c-4.2,0-7.1-0.2-8.9-0.7c-1.7-0.5-2.6-1.4-2.6-2.8v-22.6h14.2
		c1.1,0,2,0.5,2.5,1.4c0.5,0.9,1,2.6,1.4,5.2c0.1,0.9,0.7,1.4,1.9,1.4c0.2,0,0.5,0,1,0c0.4,0,0.8-0.1,1-0.3
		c-0.2-2.1-0.3-3.9-0.4-5.6c-0.1-1.6-0.1-3.1-0.1-4.3c0-1.4,0.1-3.1,0.2-5.2c0.1-2,0.2-3.8,0.4-5.4c-0.2-0.1-0.5-0.1-1-0.2
		c-0.4,0-0.8-0.1-1-0.1c-0.5,0-1,0.1-1.3,0.3c-0.3,0.2-0.5,0.5-0.6,1.1c-0.3,2.4-0.7,4-1.2,5.1c-0.5,1-1.3,1.6-2.6,1.6h-14.2v-24.3
		h13.4c1.8,0,3.4,0.2,4.7,0.5c1.3,0.3,2.4,0.9,3.4,1.7c1,0.8,1.8,1.8,2.6,3c0.8,1.2,1.6,2.7,2.4,4.5c0.3,0.6,0.9,0.9,1.6,0.9
		c0.4,0,0.8-0.1,1.2-0.2c0.4-0.1,0.8-0.3,1.1-0.4c-0.5-1.5-0.9-2.9-1.2-3.9c-0.3-1.1-0.5-2.2-0.7-3.3c-0.3-1.5-0.6-3-0.7-4.5
		c-0.1-1.4-0.3-2.4-0.5-3c-0.3-0.6-0.9-0.9-1.6-0.9c-0.8,0-2.3,0.1-4.5,0.3c-2.2,0.2-4.8,0.3-7.8,0.3H366c-1.6,0-3.5,0-5.7-0.1
		c-2.2-0.1-4.8-0.2-7.7-0.4c-0.1,0.3-0.2,0.7-0.2,1c0,0.3,0,0.6,0,1c0,1,0.3,1.6,1,1.8c1.4,0.3,2.6,0.5,3.5,0.8
		c0.9,0.2,1.6,0.5,2.2,0.8c0.6,0.3,1,0.7,1.2,1.1c0.2,0.4,0.3,1,0.3,1.7v50.4c0,1.3-0.6,2.3-1.7,2.8c-1.1,0.5-2.9,1-5.5,1.5
		c-0.7,0.1-1,0.6-1,1.6c0,0.2,0,0.5,0,1c0,0.4,0.1,0.8,0.2,1.1c2-0.1,4.3-0.3,6.8-0.4c2.5-0.1,4.7-0.2,6.7-0.2H389
		c0.9,0,1.9,0,3.1,0.1c1.2,0.1,2.4,0.1,3.6,0.2c1.2,0,2.3,0.1,3.3,0.2C400,478.7,400.7,478.7,401.3,478.7z"/>
	<path d="M450.3,443.7c-2.6-1.6-5.4-3-8.4-4c-3-1.1-5.8-2.2-8.4-3.3c-2.6-1.1-4.7-2.5-6.4-4s-2.6-3.5-2.6-6c0-3.2,1.1-5.6,3.4-7.2
		c2.2-1.6,5-2.4,8.2-2.4c4.1,0,7.4,0.8,9.8,2.5c2.4,1.7,4.4,4.4,6,8.3c0.1,0.4,0.4,0.8,0.8,1.2c0.4,0.4,1.1,0.6,2,0.6
		c0.7,0,1.3-0.1,1.9-0.3c-0.4-2-0.8-4.3-1.1-6.8c-0.3-2.5-0.5-4.8-0.7-6.8c-3.6-1.4-6.9-2.4-9.7-3c-2.9-0.6-5.7-0.9-8.5-0.9
		c-3.4,0-6.5,0.5-9.1,1.5c-2.7,1-4.9,2.4-6.8,4.1c-1.9,1.7-3.3,3.7-4.3,6c-1,2.3-1.5,4.8-1.5,7.5c0,4,0.8,7.2,2.5,9.6
		c1.6,2.4,3.7,4.3,6.1,5.8c2.5,1.5,5.1,2.8,8,3.7c2.9,1,5.5,2,8,3.1c2.4,1.1,4.5,2.5,6.1,4.1c1.6,1.6,2.5,3.9,2.5,6.8
		c0,1.3-0.2,2.7-0.7,3.9c-0.5,1.3-1.2,2.4-2.1,3.3c-0.9,0.9-2.1,1.7-3.6,2.3c-1.5,0.6-3.3,0.9-5.3,0.9c-2.4,0-4.5-0.3-6.4-0.8
		c-1.8-0.5-3.5-1.4-4.9-2.6c-1.4-1.2-2.7-2.7-3.7-4.5c-1.1-1.8-2-4-2.9-6.6c-0.3-0.7-0.6-1.3-1-1.6c-0.4-0.3-1-0.5-1.8-0.5
		c-0.9,0-1.6,0.1-2.3,0.4c0.5,2.6,1,5.3,1.5,8.1c0.4,2.8,0.8,5.6,1,8.5c2.3,1.1,5.2,2.2,8.7,3.2c3.5,1,7.5,1.5,11.9,1.5
		c4,0,7.5-0.6,10.4-1.7c2.9-1.1,5.3-2.6,7.1-4.4c1.9-1.8,3.3-4,4.1-6.4c0.9-2.4,1.3-4.9,1.3-7.5c0-3.9-0.9-7.1-2.6-9.6
		C455,447.4,452.8,445.4,450.3,443.7z"/>
	<path d="M504.1,443.7c-2.6-1.6-5.4-3-8.4-4c-3-1.1-5.8-2.2-8.4-3.3c-2.6-1.1-4.7-2.5-6.4-4s-2.6-3.5-2.6-6c0-3.2,1.1-5.6,3.4-7.2
		c2.2-1.6,5-2.4,8.2-2.4c4.1,0,7.4,0.8,9.8,2.5c2.4,1.7,4.4,4.4,6,8.3c0.1,0.4,0.4,0.8,0.8,1.2c0.4,0.4,1.1,0.6,2,0.6
		c0.7,0,1.3-0.1,1.9-0.3c-0.4-2-0.8-4.3-1.1-6.8c-0.3-2.5-0.5-4.8-0.7-6.8c-3.6-1.4-6.9-2.4-9.7-3c-2.9-0.6-5.7-0.9-8.5-0.9
		c-3.4,0-6.5,0.5-9.1,1.5c-2.7,1-4.9,2.4-6.8,4.1c-1.9,1.7-3.3,3.7-4.3,6c-1,2.3-1.5,4.8-1.5,7.5c0,4,0.8,7.2,2.5,9.6
		c1.6,2.4,3.7,4.3,6.1,5.8c2.5,1.5,5.1,2.8,8,3.7c2.9,1,5.5,2,8,3.1c2.4,1.1,4.5,2.5,6.1,4.1c1.6,1.6,2.5,3.9,2.5,6.8
		c0,1.3-0.2,2.7-0.7,3.9c-0.5,1.3-1.2,2.4-2.1,3.3c-0.9,0.9-2.1,1.7-3.6,2.3c-1.5,0.6-3.3,0.9-5.3,0.9c-2.4,0-4.5-0.3-6.4-0.8
		c-1.8-0.5-3.5-1.4-4.9-2.6c-1.4-1.2-2.7-2.7-3.7-4.5c-1.1-1.8-2-4-2.9-6.6c-0.3-0.7-0.6-1.3-1-1.6c-0.4-0.3-1-0.5-1.8-0.5
		c-0.9,0-1.6,0.1-2.3,0.4c0.5,2.6,1,5.3,1.5,8.1c0.4,2.8,0.8,5.6,1,8.5c2.3,1.1,5.2,2.2,8.7,3.2c3.5,1,7.5,1.5,11.9,1.5
		c4,0,7.5-0.6,10.4-1.7c2.9-1.1,5.3-2.6,7.1-4.4c1.9-1.8,3.3-4,4.1-6.4c0.9-2.4,1.3-4.9,1.3-7.5c0-3.9-0.9-7.1-2.6-9.6
		C508.9,447.4,506.7,445.4,504.1,443.7z"/>
	<path d="M57.3,291.9c-0.6,0.3-1.4,0.5-2.4,0.7c-0.1,0-0.2,0.1-0.4,0.2c-0.1,0.1-0.2,0.4-0.2,0.7c0,0.2,0,0.5,0.1,0.9
		c1.1-0.1,2.4-0.1,3.8-0.2c1.4-0.1,2.6-0.1,3.7-0.1c1,0,2.2,0,3.4,0.1c1.2,0.1,2.4,0.1,3.6,0.2c0.1-0.4,0.1-0.7,0.1-0.9
		c0-0.3-0.1-0.6-0.2-0.7c-0.1-0.1-0.3-0.2-0.5-0.3c-0.8-0.1-1.6-0.3-2.4-0.6c-0.8-0.3-1.3-0.7-1.6-1.3l-14-34.5
		c-0.3-0.1-0.5-0.1-0.7-0.1c-0.5,0-0.8,0.3-1.1,1l-13.9,33.5c-0.3,0.6-0.7,1.1-1.3,1.4c-0.6,0.3-1.5,0.5-2.7,0.7
		c-0.3,0-0.5,0.2-0.6,0.3c-0.1,0.2-0.1,0.4-0.1,0.7c0,0.3,0,0.6,0.1,0.9c0.9-0.1,1.7-0.2,2.5-0.2c0.8,0,1.6-0.1,2.4-0.1
		c1.1,0,2.3,0,3.4,0.1c1.2,0.1,2.3,0.1,3.3,0.2c0.1-0.4,0.1-0.7,0.1-0.9c0-0.2,0-0.4-0.1-0.6c-0.1-0.2-0.3-0.3-0.5-0.3
		c-2.3-0.3-3.5-0.9-3.5-1.7c0-0.3,0.1-0.7,0.3-1.2l2-5H44l-0.4,0.4l4.6,4.6l4.6-4.6l-0.4-0.4h3.5l2,5.2c0.2,0.3,0.2,0.6,0.2,0.9
		C58.2,291.2,57.9,291.6,57.3,291.9z M50.1,282.3l-1.9-1.9l-1.9,1.9h-5.6l7.3-18.4l7,18.4H50.1z"/>
	<path d="M91.8,291.7c-0.6,0.3-1.7,0.6-3.1,0.9c-0.4,0.1-0.6,0.4-0.6,0.9c0,0.2,0,0.5,0.1,0.9c1.2-0.1,2.4-0.1,3.6-0.2
		c1.3-0.1,2.5-0.1,3.6-0.1H108c0.5,0,1.1,0,1.8,0.1c0.7,0,1.4,0.1,2.1,0.1c0.7,0,1.3,0,1.9,0.1c0.6,0,1,0.1,1.3,0.1
		c0.4,0,0.7-0.3,1-1c0.3-0.7,0.5-1.4,0.7-2.4s0.5-1.9,0.7-2.9c0.3-1,0.5-1.9,0.9-2.6c-0.2-0.1-0.4-0.2-0.6-0.3
		c-0.2-0.1-0.4-0.2-0.6-0.2c-0.5,0-0.8,0.1-0.9,0.4c-0.5,0.9-0.9,1.8-1.4,2.5c-0.5,0.8-1.1,1.4-1.7,2c-0.6,0.6-1.4,1-2.2,1.3
		c-0.8,0.3-1.8,0.5-2.9,0.5h-3.2c-2.4,0-4.1-0.1-5.1-0.4c-1-0.3-1.6-0.8-1.6-1.6v-13.6h9c0.8,0,1.3,0.4,1.6,1.1
		c0.3,0.8,0.6,1.7,0.8,2.7c0.1,0.5,0.5,0.8,1.1,0.8c0.3,0,0.6,0,0.9-0.1c-0.1-1.2-0.2-2.3-0.2-3.2c0-0.9-0.1-1.7-0.1-2.4
		c0-0.8,0-1.8,0.1-2.8c0.1-1.1,0.1-2,0.2-2.9c-0.1,0-0.3-0.1-0.5-0.1c-0.2,0-0.3-0.1-0.5-0.1c-0.6,0-0.9,0.3-1,0.8
		c-0.2,1.1-0.5,2-0.8,2.7c-0.3,0.8-0.9,1.1-1.6,1.1h-9v-14.8h8.5c1.2,0,2.1,0.1,2.9,0.3c0.8,0.2,1.5,0.6,2,1c0.6,0.5,1,1,1.5,1.8
		c0.4,0.7,0.9,1.6,1.3,2.6c0.2,0.3,0.5,0.5,1,0.5c0.4,0,0.7-0.1,1-0.3c-0.4-0.7-0.7-1.5-0.9-2.5c-0.2-1-0.3-1.9-0.4-2.8
		c-0.1-0.9-0.3-1.6-0.4-2.3c-0.2-0.6-0.5-1-1-1c-0.4,0-1.3,0.1-2.5,0.2c-1.3,0.1-2.8,0.2-4.5,0.2H95.3c-0.9,0-1.9,0-3-0.1
		c-1.1,0-2.5-0.1-4.2-0.2c0,0.2-0.1,0.3-0.1,0.4c0,0.1,0,0.3,0,0.5c0,0.6,0.2,0.9,0.6,1c1.6,0.3,2.7,0.6,3.3,0.9
		c0.6,0.3,0.8,0.8,0.8,1.6V290C92.7,290.8,92.4,291.3,91.8,291.7z"/>
	<path d="M157.9,290.1c-0.6,0.6-1.4,1.1-2.3,1.4s-2,0.5-3.2,0.5c-2.7,0-4.9-0.7-6.4-2c-1.5-1.3-2.8-3.4-3.7-6.1
		c-0.2-0.5-0.4-0.8-0.7-1c-0.3-0.2-0.6-0.3-1.1-0.3c-0.4,0-0.7,0.1-1,0.2c0.3,1.5,0.6,3,0.8,4.5c0.2,1.5,0.4,3.1,0.5,4.7
		c1.3,0.8,3,1.5,4.9,2c1.9,0.5,4.1,0.8,6.5,0.8c2.3,0,4.2-0.3,5.8-0.9c1.6-0.6,2.9-1.4,4-2.4c1-1,1.8-2.2,2.3-3.6
		c0.5-1.4,0.7-2.8,0.7-4.4c0-2.6-0.9-4.8-2.6-6.6c-1.8-1.8-4.5-3.4-8.2-4.9c-3-1.2-5.2-2.4-6.7-3.5c-1.5-1.2-2.3-2.6-2.3-4.4
		c0-0.8,0.2-1.6,0.5-2.3c0.4-0.7,0.9-1.3,1.5-1.8c0.6-0.5,1.3-0.8,2.2-1.1c0.8-0.3,1.7-0.4,2.6-0.4c2.4,0,4.3,0.5,5.7,1.5
		c1.4,1,2.6,2.6,3.6,4.8c0.1,0.2,0.3,0.4,0.5,0.6c0.2,0.2,0.6,0.3,1.1,0.3c0.2,0,0.5,0,0.9-0.1c-0.2-1.2-0.4-2.4-0.5-3.7
		c-0.1-1.3-0.2-2.6-0.3-3.7c-2.1-0.8-3.9-1.4-5.6-1.7c-1.7-0.3-3.4-0.5-5.2-0.5c-1.7,0-3.3,0.3-4.7,0.8c-1.4,0.5-2.6,1.3-3.6,2.2
		s-1.7,2-2.3,3.3c-0.5,1.3-0.8,2.6-0.8,4c0,1.6,0.3,3,0.8,4.2c0.5,1.2,1.3,2.2,2.2,3.1c1,0.9,2.1,1.7,3.5,2.3
		c1.3,0.7,2.8,1.3,4.5,1.9c2.5,0.9,4.5,2,5.9,3.1c1.4,1.2,2.1,2.7,2.1,4.7c0,0.9-0.2,1.7-0.5,2.5C159,288.8,158.6,289.5,157.9,290.1
		z"/>
	<path d="M219.8,258.5c-0.2-0.7-0.3-1.3-0.5-1.7s-0.5-0.6-0.8-0.6c-0.3,0-0.7,0-1.2,0.1c-0.5,0-1,0.1-1.6,0.1
		c-0.6,0-1.2,0.1-1.7,0.1c-0.6,0-1.1,0.1-1.6,0.1h-19.3c-0.5,0-1,0-1.6-0.1c-0.6,0-1.1-0.1-1.7-0.1c-0.6,0-1.1-0.1-1.6-0.1
		c-0.5,0-0.9-0.1-1.2-0.1c-0.4,0-0.7,0.2-0.8,0.6c-0.2,0.4-0.3,0.9-0.5,1.6c-0.2,0.7-0.3,1.6-0.5,2.7c-0.2,1.1-0.5,2.3-0.9,3.7
		c0.3,0.2,0.7,0.3,1.1,0.3c0.2,0,0.3,0,0.5-0.1c0.2-0.1,0.3-0.2,0.4-0.4c0.5-1,0.9-1.8,1.3-2.5c0.4-0.7,0.9-1.3,1.5-1.8
		c0.6-0.5,1.3-0.8,2.1-1c0.8-0.2,1.8-0.3,2.9-0.3h6v30.8c0,0.9-0.4,1.5-1.2,1.8c-0.8,0.3-2,0.6-3.8,0.9c-0.4,0.1-0.6,0.4-0.6,0.9
		c0,0.3,0,0.6,0.1,1c1.2-0.1,2.6-0.1,4-0.2c1.4-0.1,2.8-0.1,4.1-0.1c1.4,0,2.8,0,4.1,0.1c1.4,0.1,2.7,0.1,3.9,0.2
		c0.1-0.4,0.1-0.7,0.1-1c0-0.6-0.2-0.9-0.6-0.9c-1.7-0.2-3-0.5-3.7-0.8c-0.7-0.4-1.1-1-1.1-1.9v-30.8h6c1.2,0,2.1,0.1,2.9,0.3
		c0.8,0.2,1.5,0.6,2,1c0.6,0.5,1,1.1,1.5,1.8c0.4,0.7,0.8,1.6,1.3,2.5c0.1,0.2,0.2,0.3,0.4,0.4c0.2,0.1,0.4,0.1,0.5,0.1
		c0.2,0,0.4,0,0.6-0.1c0.2-0.1,0.4-0.2,0.5-0.2c-0.4-1.3-0.7-2.5-0.9-3.6C220.1,260.1,219.9,259.2,219.8,258.5z"/>
	<path d="M243.8,291.7c-0.5,0.3-1.5,0.6-3,0.9c-0.4,0.1-0.6,0.3-0.6,0.8c0,0.3,0,0.7,0.1,1c1.2-0.1,2.4-0.1,3.6-0.2
		c1.2-0.1,2.3-0.1,3.4-0.1c1,0,2.2,0,3.5,0.1c1.3,0.1,2.5,0.1,3.5,0.2c0.1-0.4,0.1-0.7,0.1-1c0-0.5-0.2-0.7-0.6-0.8
		c-1.5-0.3-2.5-0.6-3-0.9c-0.5-0.3-0.8-0.8-0.8-1.6v-14h18.1v14c0,0.8-0.3,1.3-0.8,1.6c-0.5,0.3-1.5,0.6-2.9,0.9
		c-0.4,0.1-0.6,0.3-0.6,0.8c0,0.3,0,0.7,0.1,1c1.2-0.1,2.3-0.1,3.6-0.2c1.2-0.1,2.4-0.1,3.4-0.1c1,0,2.2,0,3.5,0.1
		c1.3,0.1,2.4,0.1,3.4,0.2c0.1-0.4,0.1-0.7,0.1-1c0-0.5-0.2-0.7-0.6-0.8c-1.5-0.3-2.5-0.6-3-0.9c-0.5-0.3-0.8-0.8-0.8-1.6v-29.3
		c0-0.8,0.2-1.3,0.7-1.7c0.5-0.3,1.5-0.6,3-0.9c0.4-0.1,0.6-0.4,0.6-0.9c0-0.3,0-0.6-0.1-1c-1.2,0.1-2.4,0.1-3.6,0.2
		c-1.2,0.1-2.3,0.1-3.4,0.1c-1,0-2.2,0-3.5-0.1c-1.3-0.1-2.4-0.1-3.4-0.2c-0.1,0.4-0.1,0.7-0.1,1c0,0.6,0.2,0.9,0.6,0.9
		c1.5,0.2,2.5,0.5,2.9,1c0.5,0.4,0.7,0.9,0.7,1.6v12.9H250v-12.9c0-0.8,0.2-1.3,0.7-1.7c0.5-0.3,1.5-0.6,3-0.9
		c0.4-0.1,0.6-0.4,0.6-0.9c0-0.3,0-0.6-0.1-1c-1.2,0.1-2.3,0.1-3.5,0.2c-1.2,0.1-2.3,0.1-3.4,0.1c-1,0-2.2,0-3.5-0.1
		s-2.4-0.1-3.4-0.2c-0.1,0.4-0.1,0.7-0.1,1c0,0.6,0.2,0.9,0.6,0.9c0.8,0.2,1.4,0.3,1.9,0.4c0.5,0.1,0.9,0.3,1.1,0.5
		c0.3,0.2,0.5,0.4,0.5,0.7c0.1,0.3,0.1,0.6,0.1,1V290C244.6,290.8,244.3,291.3,243.8,291.7z"/>
	<path d="M303.3,291.7c-0.6,0.3-1.7,0.6-3.1,0.9c-0.4,0.1-0.6,0.4-0.6,0.9c0,0.2,0,0.5,0.1,0.9c1.2-0.1,2.4-0.1,3.6-0.2
		c1.3-0.1,2.5-0.1,3.6-0.1h12.7c0.5,0,1.1,0,1.8,0.1c0.7,0,1.4,0.1,2,0.1c0.7,0,1.3,0,1.9,0.1c0.6,0,1,0.1,1.3,0.1
		c0.4,0,0.7-0.3,1-1c0.3-0.7,0.5-1.4,0.7-2.4c0.2-0.9,0.5-1.9,0.7-2.9c0.3-1,0.5-1.9,0.9-2.6c-0.2-0.1-0.4-0.2-0.6-0.3
		c-0.2-0.1-0.4-0.2-0.6-0.2c-0.5,0-0.8,0.1-0.9,0.4c-0.5,0.9-0.9,1.8-1.4,2.5c-0.5,0.8-1.1,1.4-1.7,2c-0.6,0.6-1.4,1-2.2,1.3
		c-0.8,0.3-1.8,0.5-2.9,0.5h-3.2c-2.4,0-4.1-0.1-5.1-0.4c-1-0.3-1.6-0.8-1.6-1.6v-13.6h9c0.8,0,1.3,0.4,1.6,1.1s0.6,1.7,0.8,2.7
		c0.1,0.5,0.5,0.8,1.1,0.8c0.3,0,0.6,0,0.9-0.1c-0.1-1.2-0.2-2.3-0.2-3.2c0-0.9-0.1-1.7-0.1-2.4c0-0.8,0-1.8,0.1-2.8
		c0.1-1.1,0.1-2,0.2-2.9c-0.1,0-0.3-0.1-0.5-0.1c-0.2,0-0.3-0.1-0.5-0.1c-0.6,0-0.9,0.3-1,0.8c-0.2,1.1-0.5,2-0.8,2.7
		s-0.9,1.1-1.6,1.1h-9v-14.8h8.5c1.2,0,2.1,0.1,2.9,0.3c0.8,0.2,1.5,0.6,2,1c0.6,0.5,1,1,1.5,1.8c0.4,0.7,0.9,1.6,1.3,2.6
		c0.2,0.3,0.5,0.5,1,0.5c0.4,0,0.7-0.1,1-0.3c-0.4-0.7-0.7-1.5-0.9-2.5c-0.2-1-0.3-1.9-0.4-2.8c-0.1-0.9-0.3-1.6-0.4-2.3
		c-0.2-0.6-0.5-1-1-1c-0.4,0-1.3,0.1-2.5,0.2c-1.3,0.1-2.8,0.2-4.5,0.2h-11.4c-0.9,0-1.9,0-3-0.1c-1.1,0-2.5-0.1-4.2-0.2
		c0,0.2-0.1,0.3-0.1,0.4c0,0.1,0,0.3,0,0.5c0,0.6,0.2,0.9,0.6,1c1.6,0.3,2.7,0.6,3.3,0.9c0.6,0.3,0.8,0.8,0.8,1.6V290
		C304.2,290.8,303.9,291.3,303.3,291.7z"/>
	<path d="M375.4,258.9c1.2,0,2.1,0.1,2.9,0.3c0.8,0.2,1.5,0.6,2,1c0.6,0.5,1,1.1,1.5,1.8c0.4,0.7,0.8,1.6,1.3,2.5
		c0.1,0.2,0.2,0.3,0.4,0.4c0.2,0.1,0.4,0.1,0.5,0.1c0.2,0,0.4,0,0.6-0.1c0.2-0.1,0.4-0.2,0.5-0.2c-0.4-1.3-0.7-2.5-0.9-3.6
		c-0.2-1.1-0.3-2-0.5-2.7c-0.2-0.7-0.3-1.3-0.5-1.7c-0.2-0.4-0.5-0.6-0.8-0.6c-0.3,0-0.7,0-1.2,0.1c-0.5,0-1,0.1-1.6,0.1
		c-0.6,0-1.2,0.1-1.7,0.1c-0.6,0-1.1,0.1-1.6,0.1h-19.3c-0.5,0-1,0-1.6-0.1c-0.6,0-1.1-0.1-1.7-0.1c-0.6,0-1.1-0.1-1.6-0.1
		c-0.5,0-0.9-0.1-1.2-0.1c-0.4,0-0.7,0.2-0.8,0.6c-0.2,0.4-0.3,0.9-0.5,1.6c-0.2,0.7-0.3,1.6-0.5,2.7c-0.2,1.1-0.5,2.3-0.9,3.7
		c0.3,0.2,0.7,0.3,1.1,0.3c0.2,0,0.3,0,0.5-0.1c0.2-0.1,0.3-0.2,0.4-0.4c0.5-1,0.9-1.8,1.3-2.5c0.4-0.7,0.9-1.3,1.5-1.8
		c0.6-0.5,1.3-0.8,2.1-1s1.8-0.3,2.9-0.3h5.9v30.8c0,0.9-0.4,1.5-1.2,1.8s-2,0.6-3.8,0.9c-0.4,0.1-0.6,0.4-0.6,0.9
		c0,0.3,0,0.6,0.1,1c1.2-0.1,2.6-0.1,4-0.2c1.4-0.1,2.8-0.1,4.1-0.1c1.4,0,2.8,0,4.1,0.1c1.4,0.1,2.7,0.1,3.9,0.2
		c0.1-0.4,0.1-0.7,0.1-1c0-0.6-0.2-0.9-0.6-0.9c-1.7-0.2-3-0.5-3.7-0.8c-0.7-0.4-1.1-1-1.1-1.9v-30.8H375.4z"/>
	<path d="M407.8,291.7c-0.5,0.3-1.5,0.6-3,0.9c-0.4,0.1-0.6,0.4-0.6,0.9c0,0.2,0,0.5,0.1,0.9c1.1-0.1,2.3-0.1,3.6-0.2
		c1.3-0.1,2.4-0.1,3.4-0.1c1.1,0,2.2,0,3.4,0.1c1.2,0.1,2.4,0.1,3.6,0.2c0.1-0.4,0.1-0.7,0.1-0.9c0-0.5-0.2-0.8-0.6-0.9
		c-1.5-0.3-2.5-0.6-3-0.9c-0.5-0.3-0.8-0.8-0.8-1.6v-29.4c0-0.8,0.3-1.3,0.8-1.6c0.5-0.3,1.5-0.6,3-0.8c0.4-0.1,0.6-0.4,0.6-1
		c0-0.2,0-0.5-0.1-0.9c-1.2,0.1-2.4,0.1-3.7,0.2c-1.3,0.1-2.4,0.1-3.3,0.1c-1,0-2.1,0-3.4-0.1c-1.3-0.1-2.5-0.1-3.6-0.2
		c-0.1,0.4-0.1,0.7-0.1,0.9s0,0.4,0.1,0.6c0.1,0.2,0.2,0.3,0.5,0.3c1.5,0.2,2.5,0.5,3,0.8c0.5,0.3,0.8,0.9,0.8,1.6V290
		C408.6,290.8,408.3,291.3,407.8,291.7z"/>
	<path d="M465.7,294.5c2-0.2,3.9-0.4,5.8-0.7c0.3-1.6,0.7-3.2,1.2-4.9c0.5-1.6,0.9-3.1,1.4-4.4c-0.1-0.1-0.3-0.1-0.5-0.2
		c-0.2-0.1-0.4-0.1-0.6-0.1c-0.7,0-1.1,0.3-1.4,0.9c-0.5,1.2-1,2.2-1.5,3.1c-0.5,0.9-1.2,1.7-1.9,2.3c-0.8,0.6-1.7,1.1-2.8,1.4
		c-1.1,0.3-2.5,0.5-4.2,0.5c-2.1,0-4-0.4-5.9-1.3c-1.8-0.9-3.4-2.1-4.8-3.8s-2.5-3.5-3.3-5.8c-0.8-2.2-1.2-4.7-1.2-7.3
		c0-2.4,0.3-4.6,1-6.5c0.6-1.9,1.6-3.6,2.8-5c1.3-1.4,2.8-2.5,4.6-3.2c1.8-0.8,3.9-1.2,6.3-1.2c2.8,0,5,0.5,6.5,1.6
		c1.5,1.1,2.6,2.9,3.3,5.4c0.1,0.3,0.2,0.6,0.5,0.6c0.3,0.1,0.5,0.1,0.8,0.1c0.3,0,0.6-0.1,0.9-0.2c-0.4-1.5-0.7-3.1-0.9-4.6
		c-0.2-1.5-0.4-2.8-0.4-3.8c-1-0.3-2-0.5-2.9-0.7c-0.9-0.2-1.9-0.4-2.8-0.5c-1-0.1-2-0.2-3-0.3c-1.1-0.1-2.2-0.1-3.5-0.1
		c-3.2,0-6.1,0.6-8.5,1.8c-2.4,1.2-4.4,2.7-6,4.6c-1.6,1.9-2.8,4-3.6,6.3c-0.8,2.3-1.2,4.6-1.2,6.9c0,2.7,0.4,5.3,1.2,7.7
		c0.8,2.4,2,4.4,3.6,6.2c1.6,1.8,3.6,3.1,6,4.1c2.4,1,5.3,1.5,8.5,1.5C461.5,294.8,463.7,294.7,465.7,294.5z"/>
	<path d="M166.5,233.4c-1.6-3.2-4.9-5.2-8.4-5.2c-0.6,0-1.2-0.3-1.6-0.6c-0.4-0.4-0.7-1-0.7-1.6v-0.3c0-1.4,1.1-2.5,2.5-2.5h29.9
		c1.4,0,2.5,1.1,2.5,2.5v0.2c0,1.4-1.1,2.5-2.5,2.5h-0.1c-5.3,0-8.7,5.6-6.4,10.3l6.3,12.6h52.1l13.2-32.6l18,32.6h51.9l5.2-12.6
		c2-4.7-0.9-10.3-5.3-10.3h-0.1c-1.1,0-2.1-1.1-2.1-2.5v-0.2c0-1.4,0.9-2.5,2.1-2.5h24.7c1.2,0,2.1,1.1,2.1,2.5v0.3
		c0,0.6-0.2,1.2-0.5,1.6c-0.3,0.4-0.8,0.6-1.3,0.6c-2.9,0-5.6,2-7,5.2l-7.5,17.8h168.3L353.5,101l0.1-0.1c0.4-0.4,8.7-9.9,13.3-24.8
		c4.2-13.8,5.8-35-11-57.3C346.6,6.3,331.2,0,310.1,0c-13.9,0-30.3,2.9-47.3,8.4c-0.2,0.1-0.5,0.2-0.7,0.2l-3.8-3.9l-7.8,8
		c-1,0.4-2.1,0.8-3.1,1.2c-22.7,9.2-43.5,21.8-54.2,33c-3.3,3.4-6.6,7-9.7,10.7l-0.2,0.3l0,0l-5.6,6.8l-0.8,1l0,0l-1.9,2.5
		c-12.1,15.8-20.5,31.2-25.2,45.8c-0.3,0.9-0.6,1.9-0.8,2.8l-131,134.3h157.7L166.5,233.4z M310.1,1.5L310.1,1.5
		c18.7,0,34.9,5.1,44.6,18.1c31.6,42.3-2.3,80.3-2.3,80.3l-2.2-2.2l-0.5-0.5c16.3-26.6,15.4-78.8-31.9-78.8c-0.9,0-1.8,0-2.7,0.1
		c-12.6,0.5-25.9,2-38.8,4.5c-20.1,3.9-39.5,10.3-54.8,19.6c-12.3,7.4-21.9,16.6-27.1,27.8c-0.7,1.5-1.4,3.1-1.9,4.8
		c-12.8,37.5,39.8,40.4,39.8,40.4s-3.7,0.7-9.1,0.9c-0.4,0-0.8,0-1.2,0c-0.4,0-0.8,0-1.2,0c-10.1,0-24.4-2.1-32.8-12.5
		c-0.4-0.5-0.8-1-1.1-1.5c-0.2-0.3-0.4-0.5-0.5-0.8c-0.3-0.5-0.7-1.1-1-1.6c-2.3-4.2-3.9-9.5-4.2-16.1c-0.3-6.9,0.7-15.2,3.5-25.2
		c3.3-3.8,6.5-7.4,9.7-10.7c10.5-10.9,30.7-23.4,53.7-32.7c5-2,10.2-3.9,15.4-5.6C279.1,4.7,295.4,1.5,310.1,1.5z M277.5,24.2
		c12.2-2.3,24.9-3.8,37.6-4.3c0.9,0,1.8-0.1,2.7-0.1c15.9,0,27.7,6.2,34.3,17.9c9.9,17.8,5.6,43.2-3.5,58.3L277.5,24.2z M176.1,89
		C176.1,89,176.1,89,176.1,89c-0.8,1.3-38.3,64.9,0.1,87c6,3.4,12.4,5.7,19.1,7.1c0.5,0.1,1,0.2,1.6,0.3c0.6,0.1,1.1,0.2,1.7,0.3
		c0.6,0.1,1.1,0.2,1.7,0.3s1.1,0.2,1.7,0.2c0.4,0,0.8,0.1,1.2,0.1c0.8,0.1,1.6,0.1,2.4,0.2c0.8,0.1,1.6,0.1,2.4,0.2
		c1.6,0.1,3.3,0.1,4.9,0.1c1.6,0,3.2,0,4.7-0.1s3.2-0.2,4.7-0.3c1.6-0.1,3.2-0.3,4.7-0.5c1.6-0.2,3.2-0.4,4.7-0.7
		c1.6-0.3,3.1-0.5,4.7-0.8c4.7-0.9,9.2-2,13.7-3.2c3.5-5.9,5.3-10.4,5.6-12.7c0,0-17.4-1.7-13.2-12.9c4.3-11.2,24-34.1,26.1-38.8
		c0.2-0.4,0.3-0.8,0.4-1.2c0.1-0.3,0.1-0.5,0.2-0.8c0.3-1.7-0.1-3.5-1-5c-0.2-0.4-0.5-0.7-0.8-1c-1.3-1.3-3.1-2.1-5.5-2.1
		c-0.3,0-0.5,0-0.8,0c-0.2,0-0.4,0-0.7,0.1c-0.2,0-0.4,0-0.6,0c-0.1,0-0.2,0-0.4,0c-0.2,0-0.5,0-0.8,0.1c0,0,0,0,0,0
		c-0.3,0-0.6,0.1-0.9,0.1c-0.3,0-0.6,0.1-1,0.1c-0.3,0-0.7,0-1.1,0.1c-0.4,0-0.7,0.1-1.1,0.1c-0.6,0-1.2,0.1-1.8,0.1
		c-1.1,0.1-2.2,0.1-3.4,0.2c-0.5,0-1,0-1.5,0.1c-1.5,0-3,0.1-4.6,0.1c-2.4,0-4.9-0.1-7.5-0.2c-0.6,0-1.1-0.1-1.7-0.1
		c-2.6-0.2-5.1-0.5-7.6-0.9c-0.6-0.1-1.1-0.2-1.7-0.3c-0.5-0.1-1.1-0.2-1.6-0.3c-0.5-0.1-1.1-0.2-1.6-0.4c-1.3-0.3-2.6-0.7-3.9-1.1
		c-0.5-0.2-1-0.3-1.5-0.5c-0.7-0.3-1.4-0.6-2.1-0.9c-0.9-0.4-1.8-0.9-2.6-1.3c-0.2-0.1-0.4-0.3-0.6-0.4c-0.3-0.2-0.7-0.5-1-0.7
		c-1-0.7-1.9-1.5-2.7-2.3c-3.5-3.8-4.9-9-2.8-16.2c0,0,4.5,11.3,21.8,14.5c2.5,0.5,5.2,0.7,8.2,0.8c0.9,0,1.8,0,2.7,0
		c20.4,0,25.8-5.3,31.1-6c0.2,0,0.4,0,0.5,0s0.3,0,0.5,0c5.7,0,11.2,8.6,15.6,8.6c0.2,0,0.4,0,0.6-0.1c4.5-0.9,10.7-2.8,10.4-8.8v0
		c-0.9-1.8-1.4-3.9-1.4-6.1c0-6.9,5-12.5,9.9-12.5c4.9,0,8.9,5.6,8.9,12.5c0,4.4-0.4,8.7-2.9,10.9c-1.2,1.1-3.4,1.5-5.2,1.6
		c0,0-0.1,0-0.2,0h0c-1.2,0.1-5.7,0.6-4.1,4.7c1.9,4.6,9.3,2.4,11.4,9.5s5.3,20,20.7,26.6c0,0-3.2,1-7.1,1c-0.8,0-1.6,0-2.5-0.2
		c-0.4,0-0.9-0.1-1.3-0.2c-0.4-0.1-0.8-0.2-1.3-0.3c-0.2-0.1-0.4-0.1-0.6-0.2c-0.4-0.2-0.8-0.3-1.2-0.5c-0.3-0.1-0.6-0.3-0.9-0.5
		c-0.3-0.2-0.6-0.3-0.9-0.5c-0.4-0.3-0.8-0.6-1.1-0.9c-0.4-0.3-0.7-0.7-1.1-1c-0.4-0.4-0.7-0.8-1.1-1.1c-1.3-1.4-2.5-2.8-3.7-4.3
		c-0.3-0.4-0.7-0.8-1-1.3c-0.7-0.8-1.4-1.6-2.1-2.4c-0.2-0.2-0.4-0.4-0.5-0.6c-0.4-0.4-0.7-0.7-1.1-1c-0.4-0.3-0.7-0.7-1.1-0.9
		c-1.9-1.5-3.8-2.4-6-2.4c-0.4,0-0.9,0-1.3,0.1c-7.6,1.4-18.9,13.3-22.6,18.3c-3.8,5-7.1,10.9-2.7,12.6c4.4,1.7,12.4,6.4,12.9,16.9
		c9.3-4.2,15-7.5,15-7.5c-2.2,2.7-7.6,6.6-15,10.7c-0.8,10.7-8.2,24.9-34.9,38.3c0,0,24-24.3,24.8-32.2c0-0.3,0-0.6,0-0.9
		c-3.5,1.7-7.3,3.3-11.3,4.9c-0.7,2.2-1.7,4.5-3,6.8c-0.2,0.3-0.3,0.5-0.5,0.8c0,0.1-0.1,0.1-0.1,0.2c-0.1,0.1-0.2,0.2-0.2,0.3
		c-0.4,0.6-0.9,1.2-1.5,1.9c-0.3,0.3-0.6,0.7-0.9,1c-0.5,0.6-1,1.2-1.6,1.8c-0.3,0.4-0.6,0.7-1,1.1c-0.3,0.4-0.7,0.7-1,1.1
		c-1.3,1.4-2.7,2.9-4.2,4.4c-0.3,0.3-0.7,0.7-1,1.1c-0.1,0.1-0.2,0.2-0.3,0.3c-0.2,0.2-0.4,0.4-0.7,0.7c-0.3,0.3-0.6,0.7-1,1
		c-1.4,1.4-2.8,2.9-4.2,4.4c-0.1,0.1-0.2,0.3-0.4,0.4c-0.3,0.4-0.7,0.8-1.1,1.1c-0.2,0.2-0.4,0.5-0.7,0.7c-0.4,0.4-0.8,0.9-1.2,1.3
		c0,0-0.1,0.1-0.1,0.1c-0.4,0.4-0.7,0.8-1.1,1.2c-0.9,1-1.8,2-2.6,3c-0.2,0.2-0.4,0.5-0.6,0.7c-0.1,0.1-0.2,0.2-0.2,0.3
		c-0.3,0.4-0.6,0.7-0.9,1.1c-0.2,0.2-0.4,0.5-0.5,0.7c-0.2,0.2-0.4,0.5-0.5,0.7c-1.8,2.4-3.4,4.8-4.5,7c0,0.1-0.1,0.1-0.2,0.1
		c-0.1,0-0.2-0.1-0.2-0.2c0,0,0,0,0-0.1c0-0.2,0.1-0.5,0.2-0.7c0-0.2,0.1-0.3,0.1-0.5c0.1-0.3,0.2-0.7,0.3-1.1
		c0.1-0.3,0.2-0.6,0.3-1c0.4-1.5,0.9-3.2,1.5-5.1c0.1-0.4,0.3-0.8,0.4-1.3c1.1-3.3,2.4-6.9,4-10.5c0.2-0.5,0.4-1,0.7-1.4
		c0.7-1.5,1.5-3,2.3-4.4c0.4-0.7,0.8-1.5,1.3-2.2c0.1-0.2,0.2-0.3,0.3-0.5c0.2-0.4,0.5-0.8,0.7-1.1c0.3-0.4,0.6-0.8,0.9-1.3
		c0.3-0.4,0.6-0.8,0.9-1.2c1.7-2.3,3.3-4.4,4.7-6.5c-14.1,4.3-29.3,7.3-43.3,7.3c-18,0-34.2-5-43.8-18.5
		c-13.6-19.2-13.8-40.3-7.4-60.5c5.2-16.2,14.7-31.9,25-45.4V89z M226.7,227.1c0-0.1,0-0.3,0.1-0.5c0,0,0.1,0,0.1,0
		C226.8,226.8,226.8,227,226.7,227.1z"/>
	<path d="M35.5,502.7c-0.1-0.5-0.2-1-0.2-1.5c0-0.5-0.1-0.8-0.2-1c-0.1-0.2-0.3-0.3-0.5-0.3c-0.3,0-0.7,0-1.5,0.1
		c-0.7,0.1-1.6,0.1-2.7,0.1h-7c-0.5,0-1.2,0-1.9,0s-1.6-0.1-2.6-0.1c0,0.1-0.1,0.2-0.1,0.3c0,0.1,0,0.2,0,0.3c0,0.3,0.1,0.5,0.3,0.6
		c0.5,0.1,0.9,0.2,1.2,0.3c0.3,0.1,0.6,0.2,0.8,0.3c0.2,0.1,0.3,0.2,0.4,0.4c0.1,0.1,0.1,0.3,0.1,0.5v17.1c0,0.5-0.2,0.8-0.6,0.9
		c-0.4,0.2-1,0.3-1.8,0.5c-0.2,0-0.3,0.2-0.3,0.5c0,0.1,0,0.2,0,0.3c0,0.1,0,0.3,0.1,0.4c0.3,0,0.7,0,1.1-0.1c0.4,0,0.8,0,1.2-0.1
		c0.4,0,0.8,0,1.2-0.1s0.7,0,1,0c0.7,0,1.3,0,2,0c0.7,0,1.3,0,1.9,0.1c0.3,0,0.6,0,1,0.1c0.3,0,0.6,0,1,0c0-0.1,0-0.2,0.1-0.4
		c0-0.2,0-0.3,0-0.3c0-0.4-0.1-0.6-0.4-0.6c-0.4-0.1-0.8-0.1-1.2-0.2c-0.4-0.1-0.7-0.1-1-0.2c-0.3-0.1-0.5-0.2-0.6-0.4
		c-0.2-0.1-0.2-0.3-0.2-0.6v-7.6h4.7c0.4,0,0.7,0.2,0.9,0.6c0.2,0.4,0.3,0.9,0.4,1.7c0.1,0.3,0.3,0.5,0.7,0.5c0.1,0,0.2,0,0.3,0
		s0.2,0,0.3-0.1c-0.1-0.7-0.1-1.3-0.1-1.9c0-0.6,0-1,0-1.4c0-0.5,0-1.1,0.1-1.8c0-0.7,0.1-1.3,0.1-1.8c-0.1,0-0.2,0-0.3-0.1
		c-0.1,0-0.3,0-0.3,0c-0.4,0-0.6,0.1-0.6,0.4c-0.1,0.8-0.3,1.3-0.4,1.7c-0.2,0.4-0.4,0.6-0.8,0.6h-4.7v-8.6h4.5
		c0.6,0,1.2,0.1,1.6,0.2c0.4,0.1,0.8,0.3,1.2,0.6s0.6,0.6,0.9,1c0.3,0.4,0.5,0.9,0.8,1.5c0.1,0.2,0.3,0.3,0.5,0.3
		c0.1,0,0.3,0,0.4-0.1c0.1,0,0.3-0.1,0.4-0.1c-0.2-0.5-0.3-1-0.4-1.3C35.7,503.4,35.6,503,35.5,502.7z"/>
	<path d="M53.4,502c0-0.1,0.1-0.3,0.3-0.4c0.1-0.1,0.4-0.2,0.6-0.3c0.3-0.1,0.7-0.2,1.1-0.2c0.2-0.1,0.3-0.3,0.3-0.6
		c0-0.1,0-0.2,0-0.3c0-0.1,0-0.3-0.1-0.4c-0.7,0-1.5,0.1-2.3,0.1c-0.8,0-1.6,0.1-2.2,0.1c-0.7,0-1.4,0-2.2-0.1
		c-0.8,0-1.6-0.1-2.3-0.1c0,0.1-0.1,0.2-0.1,0.4s0,0.2,0,0.3c0,0.3,0.1,0.5,0.3,0.6c0.5,0.1,0.9,0.1,1.1,0.2
		c0.3,0.1,0.5,0.2,0.6,0.3c0.1,0.1,0.2,0.2,0.3,0.4c0,0.1,0.1,0.3,0.1,0.6v17.1c0,0.2,0,0.4-0.1,0.6c0,0.1-0.1,0.3-0.3,0.4
		c-0.1,0.1-0.3,0.2-0.6,0.3c-0.3,0.1-0.7,0.2-1.1,0.2c-0.2,0-0.3,0.2-0.3,0.6c0,0.1,0,0.2,0,0.3c0,0.1,0,0.3,0.1,0.3
		c0.7,0,1.5-0.1,2.3-0.1c0.8,0,1.6-0.1,2.2-0.1c0.6,0,1.4,0,2.2,0.1c0.8,0,1.6,0.1,2.3,0.1c0-0.1,0-0.2,0.1-0.3c0-0.1,0-0.2,0-0.3
		c0-0.3-0.1-0.5-0.3-0.6c-0.5-0.1-0.9-0.1-1.1-0.2c-0.3-0.1-0.5-0.2-0.6-0.3c-0.1-0.1-0.2-0.2-0.3-0.4c0-0.1-0.1-0.3-0.1-0.6v-17.1
		C53.3,502.4,53.3,502.2,53.4,502z"/>
	<path d="M87,502.4c-0.1-0.5-0.2-1-0.2-1.4c0-0.4-0.1-0.7-0.2-0.9c-0.1-0.2-0.3-0.3-0.5-0.3c-0.3,0-0.8,0-1.5,0.1
		c-0.7,0.1-1.6,0.1-2.6,0.1H71.4c-1,0-1.9,0-2.7-0.1c-0.7-0.1-1.2-0.1-1.5-0.1c-0.3,0-0.5,0.1-0.5,0.3c-0.1,0.2-0.1,0.5-0.2,0.9
		c0,0.4-0.1,0.9-0.2,1.4c-0.1,0.4-0.2,0.8-0.3,1.2c-0.1,0.4-0.3,0.9-0.4,1.4c0.1,0,0.2,0.1,0.4,0.2c0.2,0.1,0.3,0.1,0.5,0.1
		c0.2,0,0.4-0.1,0.5-0.3c0.3-0.6,0.5-1.1,0.8-1.5c0.3-0.4,0.6-0.8,0.9-1c0.3-0.3,0.7-0.5,1.2-0.6c0.4-0.1,1-0.2,1.6-0.2h3v17.9
		c0,0.5-0.1,0.8-0.3,1c-0.2,0.2-0.7,0.3-1.6,0.5c-0.3,0-0.4,0.1-0.5,0.2c-0.1,0.1-0.1,0.2-0.1,0.4c0,0.1,0,0.2,0,0.3
		c0,0.1,0,0.3,0.1,0.3c0.7,0,1.5-0.1,2.3-0.1s1.5-0.1,2.2-0.1c0.6,0,1.4,0,2.2,0.1c0.8,0,1.6,0.1,2.3,0.1c0-0.1,0-0.2,0.1-0.3
		c0-0.1,0-0.2,0-0.3c0-0.3-0.2-0.5-0.5-0.6c-0.5-0.1-0.8-0.1-1.1-0.2c-0.3-0.1-0.4-0.2-0.6-0.3c-0.1-0.1-0.2-0.2-0.3-0.4
		c0-0.1-0.1-0.3-0.1-0.6v-17.9h3c0.6,0,1.1,0.1,1.6,0.2c0.4,0.1,0.8,0.3,1.2,0.6c0.3,0.3,0.6,0.6,0.9,1c0.3,0.4,0.5,0.9,0.8,1.5
		c0.1,0.2,0.3,0.3,0.5,0.3c0.1,0,0.3,0,0.5-0.1c0.2-0.1,0.3-0.1,0.4-0.2c-0.2-0.5-0.3-1-0.4-1.4S87.1,502.8,87,502.4z"/>
	<path d="M119.8,499.9c-0.5,0.1-1,0.1-1.6,0.1c-0.5,0-1.1,0-1.9,0s-1.4,0-1.9,0c-0.5,0-1.1-0.1-1.7-0.1c0,0.1-0.1,0.2-0.1,0.3
		c0,0.1,0,0.2,0,0.3c0,0.4,0.1,0.6,0.4,0.6c0.9,0.1,1.5,0.3,1.8,0.5c0.3,0.2,0.5,0.6,0.5,1.1v12.1l-11.3-14.3
		c-0.2-0.2-0.3-0.3-0.5-0.3s-0.6-0.1-1.3-0.1c-0.3,0-0.7,0-1.2,0c-0.5,0-1,0-1.5-0.1c-0.3,0-0.6,0-0.9-0.1c-0.3,0-0.6,0-0.9-0.1
		l0,0.3c0,0.1,0,0.1,0,0.2c0,0.1,0,0.1,0,0.2c0,0.4,0.1,0.6,0.4,0.6c0.8,0.1,1.4,0.3,1.6,0.5c0.2,0.2,0.4,0.5,0.4,0.8v17.3
		c0,0.4-0.1,0.8-0.4,1c-0.3,0.2-0.8,0.4-1.6,0.5c-0.1,0-0.2,0.1-0.3,0.2c-0.1,0.1-0.1,0.3-0.1,0.5c0,0.1,0,0.2,0,0.3
		c0,0.1,0,0.2,0.1,0.3c0.5,0,1.1-0.1,1.7-0.1c0.6,0,1.2-0.1,1.9-0.1c0.7,0,1.2,0,1.7,0.1c0.5,0,1,0.1,1.6,0.1c0-0.2,0.1-0.4,0.1-0.6
		c0-0.3,0-0.4-0.1-0.5c-0.1-0.1-0.2-0.1-0.3-0.2c-0.5-0.1-0.9-0.2-1.1-0.3c-0.3-0.1-0.5-0.2-0.6-0.3c-0.1-0.1-0.2-0.2-0.3-0.4
		c0-0.1-0.1-0.3-0.1-0.6v-14.7l13.4,17c0.2,0.2,0.4,0.4,0.6,0.5c0.2,0.1,0.4,0.1,0.5,0.1c0.1,0,0.2,0,0.4,0c0.2,0,0.4,0,0.5-0.1
		v-19.9c0-0.5,0.1-0.8,0.4-1c0.3-0.2,0.8-0.4,1.5-0.5c0.3,0,0.4-0.3,0.4-0.6c0-0.1,0-0.2,0-0.3C119.8,500.1,119.8,500,119.8,499.9z"
		/>
	<path d="M148.2,516.6c-0.3,0-0.4,0.1-0.5,0.2c-0.3,0.5-0.5,1-0.8,1.5c-0.3,0.4-0.6,0.8-1,1.2c-0.4,0.3-0.8,0.6-1.2,0.8
		c-0.5,0.2-1,0.3-1.7,0.3h-1.4c-1.4,0-2.4-0.1-3-0.2c-0.6-0.2-0.9-0.5-0.9-1v-7.6h4.8c0.4,0,0.7,0.2,0.8,0.5
		c0.2,0.3,0.3,0.9,0.5,1.8c0,0.3,0.2,0.5,0.6,0.5c0.1,0,0.2,0,0.3,0s0.3,0,0.3-0.1c-0.1-0.7-0.1-1.3-0.1-1.9c0-0.6,0-1,0-1.4
		c0-0.5,0-1.1,0.1-1.8c0-0.7,0.1-1.3,0.1-1.8c-0.1,0-0.2,0-0.3-0.1c-0.1,0-0.3,0-0.3,0c-0.2,0-0.3,0-0.4,0.1s-0.2,0.2-0.2,0.4
		c-0.1,0.8-0.3,1.4-0.4,1.7c-0.2,0.4-0.5,0.5-0.9,0.5h-4.8v-8.2h4.5c0.6,0,1.1,0.1,1.6,0.2c0.4,0.1,0.8,0.3,1.2,0.6s0.6,0.6,0.9,1
		c0.3,0.4,0.5,0.9,0.8,1.5c0.1,0.2,0.3,0.3,0.5,0.3c0.1,0,0.3,0,0.4-0.1c0.1,0,0.3-0.1,0.4-0.1c-0.2-0.5-0.3-1-0.4-1.3
		c-0.1-0.4-0.2-0.7-0.2-1.1c-0.1-0.5-0.2-1-0.2-1.5c0-0.5-0.1-0.8-0.2-1c-0.1-0.2-0.3-0.3-0.5-0.3c-0.3,0-0.8,0-1.5,0.1
		c-0.7,0.1-1.6,0.1-2.6,0.1h-7c-0.5,0-1.2,0-1.9,0s-1.6-0.1-2.6-0.1c0,0.1-0.1,0.2-0.1,0.3c0,0.1,0,0.2,0,0.3c0,0.3,0.1,0.5,0.3,0.6
		c0.5,0.1,0.9,0.2,1.2,0.3c0.3,0.1,0.6,0.2,0.8,0.3c0.2,0.1,0.3,0.2,0.4,0.4c0.1,0.1,0.1,0.3,0.1,0.6v17.1c0,0.5-0.2,0.8-0.6,1
		c-0.4,0.2-1,0.4-1.9,0.5c-0.2,0-0.3,0.2-0.3,0.5c0,0.1,0,0.2,0,0.3c0,0.1,0,0.3,0.1,0.4c0.7,0,1.4-0.1,2.3-0.1
		c0.9,0,1.6-0.1,2.3-0.1h7.7c0.3,0,0.6,0,1.1,0c0.4,0,0.8,0,1.2,0.1c0.4,0,0.8,0,1.1,0.1c0.3,0,0.6,0,0.8,0c0.3,0,0.5-0.1,0.5-0.3
		c0-0.1,0.1-0.2,0.1-0.4c0.1-0.2,0.1-0.4,0.2-0.7c0.1-0.3,0.1-0.5,0.2-0.8c0.1-0.3,0.1-0.5,0.2-0.8c0.1-0.2,0.1-0.4,0.2-0.7
		c0.1-0.3,0.2-0.6,0.3-0.8c0-0.2,0.1-0.3,0.2-0.5c0.1-0.2,0.1-0.3,0.2-0.5c-0.2-0.1-0.3-0.1-0.5-0.2
		C148.5,516.6,148.4,516.6,148.2,516.6z"/>
	<path d="M172,510.5c-0.9-0.5-1.8-1-2.8-1.4c-1-0.4-2-0.7-2.8-1.1c-0.9-0.4-1.6-0.8-2.2-1.3c-0.6-0.5-0.9-1.2-0.9-2
		c0-1.1,0.4-1.9,1.1-2.4c0.8-0.5,1.7-0.8,2.8-0.8c1.4,0,2.5,0.3,3.3,0.9c0.8,0.6,1.5,1.5,2,2.8c0,0.1,0.1,0.3,0.3,0.4
		s0.4,0.2,0.7,0.2c0.2,0,0.4,0,0.6-0.1c-0.1-0.7-0.3-1.4-0.4-2.3c-0.1-0.9-0.2-1.6-0.2-2.3c-1.2-0.5-2.3-0.8-3.3-1
		c-1-0.2-1.9-0.3-2.9-0.3c-1.2,0-2.2,0.2-3.1,0.5s-1.7,0.8-2.3,1.4c-0.6,0.6-1.1,1.3-1.4,2c-0.3,0.8-0.5,1.6-0.5,2.5
		c0,1.4,0.3,2.4,0.8,3.3c0.6,0.8,1.2,1.5,2.1,2c0.8,0.5,1.7,0.9,2.7,1.3c1,0.3,1.9,0.7,2.7,1.1c0.8,0.4,1.5,0.8,2.1,1.4
		c0.6,0.6,0.8,1.3,0.8,2.3c0,0.5-0.1,0.9-0.2,1.3c-0.2,0.4-0.4,0.8-0.7,1.1c-0.3,0.3-0.7,0.6-1.2,0.8s-1.1,0.3-1.8,0.3
		c-0.8,0-1.5-0.1-2.2-0.3c-0.6-0.2-1.2-0.5-1.7-0.9c-0.5-0.4-0.9-0.9-1.3-1.5c-0.4-0.6-0.7-1.4-1-2.2c-0.1-0.3-0.2-0.4-0.3-0.5
		s-0.3-0.2-0.6-0.2c-0.3,0-0.6,0-0.8,0.1c0.2,0.9,0.3,1.8,0.5,2.7c0.1,0.9,0.3,1.9,0.3,2.9c0.8,0.4,1.8,0.7,2.9,1.1
		c1.2,0.3,2.5,0.5,4,0.5c1.4,0,2.5-0.2,3.5-0.6c1-0.4,1.8-0.9,2.4-1.5c0.6-0.6,1.1-1.3,1.4-2.2c0.3-0.8,0.4-1.7,0.4-2.5
		c0-1.3-0.3-2.4-0.9-3.2S172.8,511.1,172,510.5z"/>
	<path d="M198.4,510.5c-0.9-0.5-1.8-1-2.8-1.4c-1-0.4-2-0.7-2.8-1.1c-0.9-0.4-1.6-0.8-2.2-1.3c-0.6-0.5-0.9-1.2-0.9-2
		c0-1.1,0.4-1.9,1.1-2.4c0.8-0.5,1.7-0.8,2.8-0.8c1.4,0,2.5,0.3,3.3,0.9c0.8,0.6,1.5,1.5,2,2.8c0,0.1,0.1,0.3,0.3,0.4
		s0.4,0.2,0.7,0.2c0.2,0,0.4,0,0.6-0.1c-0.1-0.7-0.3-1.4-0.4-2.3c-0.1-0.9-0.2-1.6-0.2-2.3c-1.2-0.5-2.3-0.8-3.3-1
		c-1-0.2-1.9-0.3-2.9-0.3c-1.2,0-2.2,0.2-3.1,0.5s-1.7,0.8-2.3,1.4c-0.6,0.6-1.1,1.3-1.4,2c-0.3,0.8-0.5,1.6-0.5,2.5
		c0,1.4,0.3,2.4,0.8,3.3c0.6,0.8,1.2,1.5,2.1,2c0.8,0.5,1.7,0.9,2.7,1.3c1,0.3,1.9,0.7,2.7,1.1c0.8,0.4,1.5,0.8,2.1,1.4
		c0.6,0.6,0.8,1.3,0.8,2.3c0,0.5-0.1,0.9-0.2,1.3c-0.2,0.4-0.4,0.8-0.7,1.1c-0.3,0.3-0.7,0.6-1.2,0.8s-1.1,0.3-1.8,0.3
		c-0.8,0-1.5-0.1-2.2-0.3c-0.6-0.2-1.2-0.5-1.7-0.9c-0.5-0.4-0.9-0.9-1.3-1.5c-0.4-0.6-0.7-1.4-1-2.2c-0.1-0.3-0.2-0.4-0.3-0.5
		s-0.3-0.2-0.6-0.2c-0.3,0-0.6,0-0.8,0.1c0.2,0.9,0.3,1.8,0.5,2.7c0.1,0.9,0.3,1.9,0.3,2.9c0.8,0.4,1.8,0.7,2.9,1.1
		c1.2,0.3,2.5,0.5,4,0.5c1.4,0,2.5-0.2,3.5-0.6c1-0.4,1.8-0.9,2.4-1.5c0.6-0.6,1.1-1.3,1.4-2.2c0.3-0.8,0.4-1.7,0.4-2.5
		c0-1.3-0.3-2.4-0.9-3.2S199.3,511.1,198.4,510.5z"/>
	<path d="M251.3,521.3c-0.3,0-0.5-0.1-0.7-0.1c-0.2,0-0.4-0.1-0.5-0.1c-0.3-0.1-0.5-0.2-0.9-0.4c-0.3-0.2-0.7-0.4-1.2-0.8
		c-0.5-0.3-1-0.8-1.7-1.3c-0.6-0.5-1.4-1.2-2.2-2c0.7-1,1.3-2,1.9-3.1c0.6-1.1,1.1-2.1,1.6-3.2c0.2-0.3,0.3-0.6,0.4-0.8
		c0.1-0.2,0.3-0.3,0.4-0.5c0.2-0.1,0.3-0.2,0.5-0.2c0.2,0,0.4-0.1,0.7-0.2c0.3,0,0.4-0.2,0.4-0.5c0,0,0-0.1,0-0.3
		c0-0.1,0-0.3-0.1-0.4c-0.4,0-0.9,0.1-1.3,0.1c-0.5,0-1,0-1.4,0c-0.5,0-1.1,0-1.7,0c-0.6,0-1.1,0-1.6-0.1c-0.1,0.2-0.1,0.4-0.1,0.6
		s0,0.3,0.1,0.4c0.1,0.1,0.2,0.1,0.4,0.2c0.5,0.1,0.9,0.3,1.1,0.4c0.2,0.1,0.3,0.3,0.3,0.5c0,0.3-0.1,0.6-0.2,1.1
		c-0.1,0.4-0.3,0.9-0.5,1.5c-0.2,0.5-0.5,1.1-0.9,1.7c-0.3,0.6-0.7,1.2-1.1,1.7c-0.8-0.7-1.6-1.6-2.6-2.5c-1-0.9-2-2-3.2-3.2
		c1-0.6,1.8-1.4,2.5-2.3c0.6-0.9,0.9-1.8,0.9-2.8c0-1.2-0.4-2.1-1.3-2.9c-0.9-0.8-2.2-1.2-3.9-1.2c-0.8,0-1.6,0.1-2.3,0.4
		c-0.7,0.2-1.3,0.6-1.8,1c-0.5,0.4-0.9,0.9-1.2,1.5s-0.4,1.2-0.4,1.8c0,0.4,0.1,0.8,0.2,1.2c0.1,0.4,0.3,0.8,0.5,1.3s0.6,0.9,1,1.4
		c0.4,0.5,0.9,1.1,1.5,1.7c-0.6,0.3-1.3,0.7-1.8,1.2c-0.6,0.4-1.1,0.9-1.6,1.4c-0.5,0.5-0.8,1.1-1.1,1.7c-0.3,0.6-0.4,1.3-0.4,2.1
		c0,0.9,0.2,1.7,0.5,2.4c0.3,0.7,0.8,1.2,1.4,1.7c0.6,0.4,1.3,0.8,2.1,1c0.8,0.2,1.7,0.3,2.7,0.3c1.6,0,2.9-0.3,4.1-0.9
		c1.1-0.6,2.2-1.3,3.2-2.3c1,1,1.9,1.7,2.5,2.2c0.6,0.5,1.2,0.7,1.7,0.7c0.3,0,0.7,0,1.2,0c0.6,0,1.1,0,1.7,0c0.6,0,1.1,0,1.6,0
		c0.5,0,0.8,0,1,0.1c0.1-0.2,0.1-0.4,0.1-0.6C251.8,521.5,251.6,521.3,251.3,521.3z M233.8,502.8c0.3-0.4,0.8-0.6,1.4-0.6
		c0.7,0,1.2,0.3,1.7,0.8c0.4,0.5,0.6,1.2,0.6,2.2c0,0.5-0.1,1.1-0.4,1.8c-0.2,0.6-0.6,1.3-1.1,1.9c-0.9-0.9-1.6-1.6-2.1-2.4
		c-0.5-0.7-0.7-1.4-0.7-2.1C233.3,503.7,233.5,503.2,233.8,502.8z M239.3,519.3c-0.4,0.3-0.8,0.4-1.2,0.6c-0.4,0.1-0.8,0.2-1.2,0.3
		c-0.4,0.1-0.8,0.1-1.3,0.1c-0.5,0-1-0.1-1.5-0.2c-0.5-0.1-0.9-0.4-1.3-0.7s-0.7-0.7-0.9-1.2c-0.2-0.5-0.4-1-0.4-1.7
		c0-1,0.2-1.9,0.6-2.7c0.4-0.8,0.9-1.4,1.5-2.1c1.4,1.5,2.7,2.8,3.8,3.8s2.1,2,3,2.8C240.1,518.8,239.7,519.1,239.3,519.3z"/>
	<path d="M298.6,521.2c-0.5-0.1-0.9-0.3-1.5-0.5c-0.5-0.2-1-0.6-1.4-1.2l-5.4-7.8c1.3-0.5,2.3-1.2,3.1-2.2c0.7-1,1.1-2.1,1.1-3.3
		c0-0.9-0.2-1.7-0.5-2.5c-0.4-0.8-0.9-1.4-1.5-1.9c-0.7-0.5-1.5-1-2.4-1.3c-1-0.3-2-0.4-3.2-0.4h-5.1c-0.7,0-1.4,0-2.2-0.1
		c-0.8,0-1.6-0.1-2.2-0.1c0,0.1-0.1,0.2-0.1,0.3c0,0.1,0,0.2,0,0.3c0,0.2,0,0.4,0.1,0.5c0.1,0.1,0.2,0.2,0.3,0.2
		c0.9,0.1,1.6,0.3,1.9,0.5c0.3,0.2,0.5,0.5,0.5,1v17.1c0,0.2,0,0.4-0.1,0.6c-0.1,0.1-0.2,0.3-0.3,0.4c-0.2,0.1-0.4,0.2-0.7,0.3
		c-0.3,0.1-0.7,0.2-1.2,0.3c-0.3,0-0.4,0.3-0.4,0.6c0,0.1,0,0.2,0,0.3c0,0.1,0,0.2,0.1,0.3c0.7,0,1.4-0.1,2.1-0.1
		c0.8,0,1.6-0.1,2.4-0.1c1.2,0,2.2,0,3.2,0.1s1.8,0.1,2.5,0.1c0-0.2,0.1-0.4,0.1-0.6c0-0.4-0.2-0.6-0.5-0.7
		c-1.1-0.1-1.8-0.3-2.3-0.5c-0.4-0.2-0.7-0.6-0.7-1.1v-7.1h1.5l5.3,7.8c0.5,0.7,0.9,1.2,1.4,1.6c0.5,0.4,1,0.6,1.4,0.6
		c0.3,0,0.7,0,1.2,0c0.5,0,1,0,1.5,0.1c0.5,0,1,0,1.4,0.1c0.5,0,0.8,0,1.1,0.1c0-0.1,0.1-0.2,0.1-0.3s0-0.2,0-0.3
		c0-0.2,0-0.3-0.1-0.4C298.8,521.3,298.7,521.3,298.6,521.2z M289.5,508.4c-0.2,0.5-0.5,1-0.9,1.3c-0.4,0.3-0.9,0.6-1.5,0.7
		c-0.6,0.1-1.2,0.2-1.9,0.2h-1v-8.9h1c1.7,0,2.9,0.4,3.6,1.2s1,1.9,1,3.3C289.9,507.1,289.8,507.8,289.5,508.4z"/>
	<path d="M326.6,516.6c-0.3,0-0.4,0.1-0.5,0.2c-0.3,0.5-0.5,1-0.8,1.5c-0.3,0.4-0.6,0.8-1,1.2c-0.4,0.3-0.8,0.6-1.2,0.8
		c-0.5,0.2-1,0.3-1.7,0.3h-1.4c-1.4,0-2.4-0.1-3-0.2c-0.6-0.2-0.9-0.5-0.9-1v-7.6h4.8c0.4,0,0.7,0.2,0.8,0.5
		c0.2,0.3,0.3,0.9,0.5,1.8c0,0.3,0.2,0.5,0.6,0.5c0.1,0,0.2,0,0.3,0s0.3,0,0.3-0.1c-0.1-0.7-0.1-1.3-0.1-1.9c0-0.6,0-1,0-1.4
		c0-0.5,0-1.1,0.1-1.8c0-0.7,0.1-1.3,0.1-1.8c-0.1,0-0.2,0-0.3-0.1c-0.1,0-0.3,0-0.3,0c-0.2,0-0.3,0-0.4,0.1
		c-0.1,0.1-0.2,0.2-0.2,0.4c-0.1,0.8-0.3,1.4-0.4,1.7s-0.5,0.5-0.9,0.5h-4.8v-8.2h4.5c0.6,0,1.1,0.1,1.6,0.2s0.8,0.3,1.2,0.6
		c0.3,0.3,0.6,0.6,0.9,1c0.3,0.4,0.5,0.9,0.8,1.5c0.1,0.2,0.3,0.3,0.5,0.3c0.1,0,0.3,0,0.4-0.1c0.1,0,0.3-0.1,0.4-0.1
		c-0.2-0.5-0.3-1-0.4-1.3s-0.2-0.7-0.2-1.1c-0.1-0.5-0.2-1-0.2-1.5c0-0.5-0.1-0.8-0.2-1c-0.1-0.2-0.3-0.3-0.5-0.3
		c-0.3,0-0.8,0-1.5,0.1c-0.7,0.1-1.6,0.1-2.6,0.1h-7c-0.5,0-1.2,0-1.9,0c-0.8,0-1.6-0.1-2.6-0.1c0,0.1-0.1,0.2-0.1,0.3
		c0,0.1,0,0.2,0,0.3c0,0.3,0.1,0.5,0.3,0.6c0.5,0.1,0.9,0.2,1.2,0.3c0.3,0.1,0.6,0.2,0.8,0.3s0.3,0.2,0.4,0.4
		c0.1,0.1,0.1,0.3,0.1,0.6v17.1c0,0.5-0.2,0.8-0.6,1c-0.4,0.2-1,0.4-1.9,0.5c-0.2,0-0.3,0.2-0.3,0.5c0,0.1,0,0.2,0,0.3
		c0,0.1,0,0.3,0.1,0.4c0.7,0,1.4-0.1,2.3-0.1s1.6-0.1,2.3-0.1h7.7c0.3,0,0.6,0,1.1,0c0.4,0,0.8,0,1.2,0.1c0.4,0,0.8,0,1.1,0.1
		c0.3,0,0.6,0,0.8,0c0.3,0,0.5-0.1,0.5-0.3c0-0.1,0.1-0.2,0.1-0.4c0.1-0.2,0.1-0.4,0.2-0.7c0.1-0.3,0.1-0.5,0.2-0.8s0.1-0.5,0.2-0.8
		c0.1-0.2,0.1-0.4,0.2-0.7c0.1-0.3,0.2-0.6,0.3-0.8c0-0.2,0.1-0.3,0.2-0.5c0.1-0.2,0.1-0.3,0.2-0.5c-0.2-0.1-0.3-0.1-0.5-0.2
		C326.8,516.6,326.7,516.6,326.6,516.6z"/>
	<path d="M356.6,516c-0.2,0-0.3,0-0.5,0.1c-0.1,0.1-0.3,0.2-0.3,0.4c-0.3,0.7-0.6,1.4-0.9,1.9c-0.3,0.5-0.7,1-1.2,1.3
		s-1,0.6-1.7,0.8c-0.6,0.2-1.4,0.3-2.3,0.3c-1.1,0-2.1-0.3-3.1-0.8c-1-0.5-1.8-1.3-2.5-2.2c-0.7-0.9-1.2-2-1.6-3.3
		c-0.4-1.3-0.6-2.6-0.6-4.1c0-1.4,0.2-2.6,0.5-3.7c0.3-1.1,0.8-2,1.4-2.8c0.6-0.8,1.4-1.4,2.4-1.8c0.9-0.4,2-0.6,3.3-0.6
		c0.8,0,1.5,0.1,2.1,0.2c0.6,0.1,1.1,0.4,1.6,0.7s0.8,0.7,1.1,1.2c0.3,0.5,0.6,1.1,0.9,1.9c0,0.2,0.1,0.3,0.3,0.4
		c0.1,0.1,0.3,0.1,0.5,0.1c0.1,0,0.2,0,0.4-0.1s0.3-0.1,0.4-0.1c-0.3-0.9-0.4-1.8-0.6-2.8c-0.1-1-0.2-1.7-0.3-2.4
		c-1.2-0.3-2.3-0.6-3.3-0.7c-1-0.2-2.1-0.2-3.3-0.2c-2.1,0-3.9,0.3-5.5,1c-1.5,0.7-2.8,1.6-3.8,2.7c-1,1.1-1.7,2.3-2.1,3.7
		c-0.5,1.4-0.7,2.7-0.7,4.1c0,1.6,0.2,3.1,0.7,4.5c0.5,1.4,1.2,2.6,2.1,3.6c0.9,1,2.1,1.8,3.5,2.4c1.4,0.6,3.1,0.9,5,0.9
		c1.4,0,2.7,0,3.8-0.1s2.3-0.2,3.4-0.4c0.1-0.5,0.2-1,0.3-1.5c0.1-0.5,0.3-1,0.4-1.5c0.2-0.5,0.3-1,0.5-1.5c0.1-0.5,0.3-0.9,0.4-1.3
		c-0.1,0-0.3-0.1-0.4-0.1C356.9,516,356.7,516,356.6,516z"/>
	<path d="M387,502.9c-1-1-2.3-1.8-3.7-2.4c-1.4-0.6-2.9-0.9-4.6-0.9c-1.6,0-3.1,0.3-4.5,0.9c-1.4,0.6-2.6,1.4-3.7,2.5
		c-1,1-1.9,2.3-2.5,3.6c-0.6,1.4-0.9,2.9-0.9,4.5c0,1.7,0.3,3.2,0.9,4.6c0.6,1.4,1.4,2.6,2.4,3.6c1,1,2.2,1.8,3.6,2.4
		c1.4,0.6,2.9,0.9,4.6,0.9c1.6,0,3.1-0.3,4.5-0.9c1.4-0.6,2.6-1.4,3.7-2.5c1-1,1.9-2.3,2.5-3.6c0.6-1.4,0.9-2.9,0.9-4.5
		c0-1.7-0.3-3.2-0.9-4.6S388.1,503.9,387,502.9z M385.2,515.9c-0.3,1-0.7,1.8-1.3,2.6s-1.2,1.3-2,1.7s-1.6,0.6-2.6,0.6
		c-1.2,0-2.2-0.3-3.1-0.9c-0.9-0.6-1.7-1.4-2.3-2.4s-1.1-2.3-1.4-3.7c-0.3-1.4-0.5-3-0.5-4.7c0-1.2,0.2-2.3,0.5-3.2
		c0.3-1,0.8-1.8,1.4-2.4c0.6-0.7,1.2-1.2,2-1.5c0.8-0.4,1.5-0.5,2.3-0.5c1.3,0,2.3,0.3,3.3,0.9c0.9,0.6,1.7,1.4,2.4,2.4
		c0.6,1,1.1,2.2,1.4,3.6c0.3,1.4,0.5,2.9,0.5,4.5C385.7,513.9,385.5,514.9,385.2,515.9z"/>
	<path d="M421,499.9c-0.4,0.1-0.9,0.1-1.6,0.1c-0.6,0-1.2,0-1.9,0c-0.3,0-0.6,0-1,0c-0.4,0-0.7,0-1.1,0c-0.4,0-0.7,0-1-0.1
		c-0.3,0-0.5,0-0.8-0.1l0,0.3c0,0.1,0,0.1,0,0.2c0,0.1,0,0.1,0,0.2c0,0.4,0.1,0.6,0.4,0.6c0.7,0.1,1.2,0.2,1.5,0.4
		c0.3,0.1,0.4,0.4,0.4,0.7c0,0.2-0.1,0.4-0.2,0.7l-5.3,13.2l-5-13.5c-0.1-0.2-0.1-0.4-0.1-0.5c0-0.3,0.1-0.5,0.4-0.6
		c0.3-0.2,0.8-0.3,1.5-0.3c0.3,0,0.4-0.2,0.4-0.6c0-0.1,0-0.2,0-0.3c0-0.1,0-0.2-0.1-0.3c-0.7,0-1.5,0.1-2.4,0.1
		c-0.9,0-1.7,0.1-2.5,0.1c-0.3,0-0.7,0-1.1,0c-0.4,0-0.9,0-1.3,0c-0.4,0-0.9,0-1.3-0.1s-0.8,0-1.2-0.1c0,0.1-0.1,0.2-0.1,0.3
		s0,0.2,0,0.3c0,0.5,0.1,0.7,0.4,0.7c0.4,0,0.8,0.1,1,0.2s0.5,0.1,0.6,0.2s0.3,0.2,0.4,0.3c0.1,0.1,0.2,0.3,0.2,0.4l8,19.7
		c0.1,0.3,0.2,0.4,0.3,0.5c0.1,0.1,0.2,0.1,0.4,0.1c0.1,0,0.2,0,0.2,0c0.1,0,0.2,0,0.3,0l8.4-20.1c0.2-0.4,0.4-0.7,0.7-0.9
		c0.3-0.2,0.8-0.3,1.6-0.4c0.3,0,0.4-0.3,0.4-0.7c0,0,0-0.1,0-0.2s0-0.1,0-0.2L421,499.9z"/>
	<path d="M448.3,516.6c-0.3,0-0.4,0.1-0.5,0.2c-0.3,0.5-0.5,1-0.8,1.5c-0.3,0.4-0.6,0.8-1,1.2c-0.4,0.3-0.8,0.6-1.2,0.8
		c-0.5,0.2-1,0.3-1.7,0.3h-1.4c-1.4,0-2.4-0.1-3-0.2c-0.6-0.2-0.9-0.5-0.9-1v-7.6h4.8c0.4,0,0.7,0.2,0.8,0.5
		c0.2,0.3,0.3,0.9,0.5,1.8c0,0.3,0.2,0.5,0.6,0.5c0.1,0,0.2,0,0.3,0s0.3,0,0.3-0.1c-0.1-0.7-0.1-1.3-0.1-1.9c0-0.6,0-1,0-1.4
		c0-0.5,0-1.1,0.1-1.8c0-0.7,0.1-1.3,0.1-1.8c-0.1,0-0.2,0-0.3-0.1c-0.1,0-0.3,0-0.3,0c-0.2,0-0.3,0-0.4,0.1
		c-0.1,0.1-0.2,0.2-0.2,0.4c-0.1,0.8-0.3,1.4-0.4,1.7s-0.5,0.5-0.9,0.5h-4.8v-8.2h4.5c0.6,0,1.1,0.1,1.6,0.2s0.8,0.3,1.2,0.6
		c0.3,0.3,0.6,0.6,0.9,1c0.3,0.4,0.5,0.9,0.8,1.5c0.1,0.2,0.3,0.3,0.5,0.3c0.1,0,0.3,0,0.4-0.1c0.1,0,0.3-0.1,0.4-0.1
		c-0.2-0.5-0.3-1-0.4-1.3s-0.2-0.7-0.2-1.1c-0.1-0.5-0.2-1-0.2-1.5c0-0.5-0.1-0.8-0.2-1c-0.1-0.2-0.3-0.3-0.5-0.3
		c-0.3,0-0.8,0-1.5,0.1c-0.7,0.1-1.6,0.1-2.6,0.1h-7c-0.5,0-1.2,0-1.9,0c-0.8,0-1.6-0.1-2.6-0.1c0,0.1-0.1,0.2-0.1,0.3
		c0,0.1,0,0.2,0,0.3c0,0.3,0.1,0.5,0.3,0.6c0.5,0.1,0.9,0.2,1.2,0.3c0.3,0.1,0.6,0.2,0.8,0.3s0.3,0.2,0.4,0.4
		c0.1,0.1,0.1,0.3,0.1,0.6v17.1c0,0.5-0.2,0.8-0.6,1c-0.4,0.2-1,0.4-1.9,0.5c-0.2,0-0.3,0.2-0.3,0.5c0,0.1,0,0.2,0,0.3
		c0,0.1,0,0.3,0.1,0.4c0.7,0,1.4-0.1,2.3-0.1s1.6-0.1,2.3-0.1h7.7c0.3,0,0.6,0,1.1,0c0.4,0,0.8,0,1.2,0.1c0.4,0,0.8,0,1.1,0.1
		c0.3,0,0.6,0,0.8,0c0.3,0,0.5-0.1,0.5-0.3c0-0.1,0.1-0.2,0.1-0.4c0.1-0.2,0.1-0.4,0.2-0.7c0.1-0.3,0.1-0.5,0.2-0.8s0.1-0.5,0.2-0.8
		c0.1-0.2,0.1-0.4,0.2-0.7c0.1-0.3,0.2-0.6,0.3-0.8c0-0.2,0.1-0.3,0.2-0.5c0.1-0.2,0.1-0.3,0.2-0.5c-0.2-0.1-0.3-0.1-0.5-0.2
		C448.5,516.6,448.4,516.6,448.3,516.6z"/>
	<path d="M481.1,521.2c-0.5-0.1-0.9-0.3-1.5-0.5s-1-0.6-1.4-1.2l-5.4-7.8c1.3-0.5,2.3-1.2,3.1-2.2c0.7-1,1.1-2.1,1.1-3.3
		c0-0.9-0.2-1.7-0.5-2.5s-0.9-1.4-1.5-1.9c-0.7-0.5-1.5-1-2.4-1.3c-1-0.3-2-0.4-3.2-0.4h-5.1c-0.7,0-1.4,0-2.2-0.1
		c-0.8,0-1.6-0.1-2.2-0.1c0,0.1-0.1,0.2-0.1,0.3c0,0.1,0,0.2,0,0.3c0,0.2,0,0.4,0.1,0.5c0.1,0.1,0.2,0.2,0.3,0.2
		c0.9,0.1,1.6,0.3,1.9,0.5c0.3,0.2,0.5,0.5,0.5,1v17.1c0,0.2,0,0.4-0.1,0.6c-0.1,0.1-0.2,0.3-0.3,0.4c-0.2,0.1-0.4,0.2-0.7,0.3
		c-0.3,0.1-0.7,0.2-1.2,0.3c-0.3,0-0.4,0.3-0.4,0.6c0,0.1,0,0.2,0,0.3c0,0.1,0,0.2,0.1,0.3c0.7,0,1.4-0.1,2.1-0.1
		c0.8,0,1.6-0.1,2.4-0.1c1.2,0,2.2,0,3.2,0.1c1,0,1.8,0.1,2.5,0.1c0-0.2,0.1-0.4,0.1-0.6c0-0.4-0.2-0.6-0.5-0.7
		c-1.1-0.1-1.8-0.3-2.3-0.5s-0.7-0.6-0.7-1.1v-7.1h1.5l5.3,7.8c0.5,0.7,0.9,1.2,1.4,1.6s1,0.6,1.4,0.6c0.3,0,0.7,0,1.2,0
		c0.5,0,1,0,1.5,0.1c0.5,0,1,0,1.4,0.1c0.5,0,0.8,0,1.1,0.1c0-0.1,0.1-0.2,0.1-0.3s0-0.2,0-0.3c0-0.2,0-0.3-0.1-0.4
		C481.3,521.3,481.2,521.3,481.1,521.2z M472,508.4c-0.2,0.5-0.5,1-0.9,1.3c-0.4,0.3-0.9,0.6-1.5,0.7c-0.6,0.1-1.2,0.2-1.9,0.2h-1
		v-8.9h1c1.7,0,2.9,0.4,3.6,1.2s1,1.9,1,3.3C472.3,507.1,472.2,507.8,472,508.4z"/>
	<path d="M506.4,500c-0.6,0-1.1,0-1.7,0c-0.5,0-1.2,0-1.9-0.1s-1.3-0.1-1.8-0.1c-0.1,0.3-0.1,0.5-0.1,0.6c0,0.4,0.1,0.6,0.4,0.6
		c0.6,0.1,1,0.2,1.3,0.4c0.3,0.1,0.4,0.3,0.4,0.6c0,0.3-0.1,0.7-0.4,1.1l-3.9,7.4l-4-7.9c-0.2-0.3-0.2-0.5-0.2-0.7
		c0-0.2,0.1-0.4,0.3-0.5c0.2-0.1,0.6-0.2,1.2-0.3c0.3,0,0.4-0.3,0.4-0.6c0,0,0-0.1,0-0.2c0-0.1,0-0.2-0.1-0.4c-0.3,0-0.6,0-1,0.1
		s-0.8,0-1.3,0.1c-0.5,0-0.9,0-1.3,0c-0.4,0-0.8,0-1.1,0c-0.9,0-1.8,0-2.6-0.1s-1.4-0.1-1.9-0.1l0,0.2c0,0.1,0,0.1,0,0.2
		c0,0.1,0,0.1,0,0.2c0,0.4,0.1,0.7,0.4,0.7c0.6,0.1,1.1,0.2,1.4,0.4s0.7,0.5,0.9,1l5.4,10.3v6.7c0,0.3,0,0.5-0.1,0.6
		c-0.1,0.2-0.2,0.3-0.4,0.4c-0.2,0.1-0.4,0.2-0.8,0.3c-0.3,0.1-0.7,0.2-1.2,0.3c-0.1,0-0.2,0.1-0.3,0.2c-0.1,0.1-0.1,0.2-0.1,0.5
		c0,0,0,0.1,0,0.2c0,0.1,0,0.1,0,0.2l0,0.2c0.3,0,0.6,0,0.9,0c0.3,0,0.6,0,0.9-0.1c0.5,0,1-0.1,1.6-0.1s1,0,1.4,0c0.4,0,0.9,0,1.4,0
		c0.6,0,1.1,0,1.7,0.1c0.3,0,0.6,0,1,0.1c0.3,0,0.7,0,1,0l0-0.2c0-0.1,0-0.1,0-0.2c0-0.1,0-0.1,0-0.2c0-0.3,0-0.4-0.1-0.5
		c-0.1-0.1-0.2-0.1-0.3-0.2c-0.5-0.1-0.9-0.1-1.2-0.2c-0.3-0.1-0.6-0.2-0.7-0.3c-0.2-0.1-0.3-0.3-0.4-0.4c-0.1-0.2-0.1-0.4-0.1-0.6
		v-6.8l5.6-10.4c0.2-0.4,0.5-0.7,0.8-0.9s0.9-0.3,1.7-0.4c0.3,0,0.4-0.2,0.4-0.6c0,0,0-0.1,0-0.2c0-0.1,0-0.2-0.1-0.4
		C507.5,499.9,507,500,506.4,500z"/>
	<rect x="455.3" y="279.5" transform="matrix(0.7071 -0.7071 0.7071 0.7071 -65.611 407.0991)" width="6.6" height="6.6"/>
</g>
</svg>
